<svg width="20" height="20" viewBox="0 0 20 20" fill="none" xmlns="http://www.w3.org/2000/svg">
<path d="M12.8959 10.8542C12.5679 10.5261 12.4039 10.1346 12.4039 9.67959C12.4039 9.22445 12.5679 8.83285 12.8959 8.5048C13.224 8.17688 13.6155 8.01292 14.0705 8.01292C14.5257 8.01292 14.9173 8.17688 15.2453 8.5048C15.5732 8.83285 15.7372 9.22445 15.7372 9.67959C15.7372 10.1346 15.5732 10.5261 15.2453 10.8542C14.9173 11.1822 14.5257 11.3463 14.0705 11.3463C13.6155 11.3463 13.224 11.1822 12.8959 10.8542ZM10.3205 15.5129V14.7629C10.3205 14.5043 10.3851 14.2699 10.5143 14.0596C10.6433 13.8493 10.8266 13.6981 11.0643 13.6058C11.5336 13.4082 12.0192 13.2599 12.5211 13.161C13.0231 13.0623 13.5395 13.0129 14.0705 13.0129C14.58 13.0129 15.0861 13.0623 15.5889 13.161C16.0916 13.2599 16.5877 13.4082 17.077 13.6058C17.3145 13.6981 17.4978 13.8493 17.627 14.0596C17.756 14.2699 17.8205 14.5043 17.8205 14.7629V15.5129H10.3205ZM6.24365 8.75647C5.75656 8.26924 5.51302 7.67945 5.51302 6.98709C5.51302 6.29487 5.75656 5.70515 6.24365 5.21792C6.73087 4.7307 7.32066 4.48709 8.01302 4.48709C8.70524 4.48709 9.29497 4.7307 9.78219 5.21792C10.2694 5.70515 10.513 6.29487 10.513 6.98709C10.513 7.67945 10.2694 8.26924 9.78219 8.75647C9.29497 9.24355 8.70524 9.48709 8.01302 9.48709C7.32066 9.48709 6.73087 9.24355 6.24365 8.75647ZM2.17969 15.5129V14.141C2.17969 13.7806 2.27899 13.4493 2.4776 13.1471C2.67635 12.845 2.9467 12.6218 3.28865 12.4775C4.02573 12.1036 4.79122 11.8216 5.5851 11.6315C6.37899 11.4413 7.1883 11.3463 8.01302 11.3463C8.34955 11.3463 8.68608 11.3638 9.0226 11.399C9.35913 11.4342 9.69566 11.4808 10.0322 11.5385L9.67635 11.9102C9.55774 12.0342 9.43913 12.1582 9.32052 12.2821C9.1026 12.2393 8.88469 12.2115 8.66677 12.1988C8.44885 12.186 8.23094 12.1796 8.01302 12.1796C7.2608 12.1796 6.51795 12.2608 5.78448 12.4231C5.05115 12.5855 4.35163 12.8472 3.68594 13.2083C3.50441 13.3099 3.34684 13.4365 3.21323 13.5881C3.07976 13.7398 3.01302 13.9241 3.01302 14.141V14.6796H8.01302V15.5129H2.17969ZM9.1901 8.16417C9.51649 7.83779 9.67969 7.44542 9.67969 6.98709C9.67969 6.52876 9.51649 6.1364 9.1901 5.81001C8.86372 5.48362 8.47135 5.32042 8.01302 5.32042C7.55469 5.32042 7.16233 5.48362 6.83594 5.81001C6.50955 6.1364 6.34635 6.52876 6.34635 6.98709C6.34635 7.44542 6.50955 7.83779 6.83594 8.16417C7.16233 8.49056 7.55469 8.65376 8.01302 8.65376C8.47135 8.65376 8.86372 8.49056 9.1901 8.16417Z" fill="white"/>
</svg>
