<svg width="20" height="20" viewBox="0 0 20 20" fill="none" xmlns="http://www.w3.org/2000/svg">
<path d="M9.75173 16.6185C9.86062 16.6185 9.97222 16.594 10.0865 16.5448C10.2008 16.4958 10.2933 16.436 10.3638 16.3654L16.8607 9.86855C17.07 9.65924 17.2316 9.44507 17.3455 9.22605C17.4592 9.00702 17.5161 8.7666 17.5161 8.5048C17.5161 8.2398 17.4592 7.98257 17.3455 7.73313C17.2316 7.48369 17.07 7.25584 16.8607 7.04959L13.7357 3.92459C13.5294 3.71528 13.3176 3.56174 13.1003 3.46396C12.8828 3.36619 12.6416 3.3173 12.3767 3.3173C12.1149 3.3173 11.8719 3.36619 11.6476 3.46396C11.4231 3.56174 11.2116 3.71528 11.013 3.92459L10.2869 4.65063L11.8286 6.19709C11.9942 6.35945 12.1176 6.54431 12.1988 6.75167C12.2799 6.95889 12.3205 7.16931 12.3205 7.38292C12.3205 7.81681 12.1787 8.17556 11.8951 8.45917C11.6115 8.74278 11.2528 8.88459 10.819 8.88459C10.6053 8.88459 10.3967 8.85202 10.1932 8.78688C9.98972 8.72174 9.80673 8.60792 9.64423 8.44542L8.04965 6.85584L4.45194 10.4535C4.36764 10.538 4.30437 10.6339 4.26215 10.7413C4.21993 10.8486 4.19882 10.9567 4.19882 11.0656C4.19882 11.2623 4.26187 11.4244 4.38798 11.5521C4.51395 11.6797 4.67527 11.7435 4.87194 11.7435C4.98083 11.7435 5.09243 11.719 5.20673 11.6698C5.32104 11.6208 5.41347 11.561 5.48402 11.4904L8.12507 8.84938L8.71486 9.43917L6.07861 12.0802C5.99416 12.1645 5.93083 12.2604 5.88861 12.3677C5.84652 12.4751 5.82548 12.5833 5.82548 12.6923C5.82548 12.8783 5.89118 13.0369 6.02257 13.1683C6.15395 13.2997 6.31257 13.3654 6.4984 13.3654C6.60743 13.3654 6.71909 13.3408 6.8334 13.2917C6.9477 13.2425 7.04013 13.1826 7.11069 13.1121L9.94402 10.2838L10.5338 10.8733L7.70527 13.7067C7.63152 13.7772 7.5709 13.8697 7.5234 13.984C7.47576 14.0983 7.45194 14.2099 7.45194 14.319C7.45194 14.5048 7.51763 14.6634 7.64902 14.7948C7.78055 14.9263 7.93923 14.9921 8.12507 14.9921C8.23409 14.9921 8.34229 14.971 8.44965 14.9288C8.55701 14.8865 8.65284 14.8232 8.73715 14.7388L11.5705 11.9102L12.1603 12.5L9.32694 15.3333C9.24264 15.4178 9.17937 15.519 9.13715 15.6371C9.09493 15.7551 9.07382 15.8633 9.07382 15.9615C9.07382 16.1581 9.14298 16.3168 9.28132 16.4375C9.41965 16.5582 9.57645 16.6185 9.75173 16.6185ZM9.74694 17.4519C9.31847 17.4519 8.95173 17.2951 8.64673 16.9817C8.34173 16.6681 8.20791 16.281 8.24527 15.8204C7.77305 15.8258 7.37986 15.6849 7.06569 15.3975C6.75166 15.11 6.60264 14.7088 6.61861 14.194C6.10375 14.1992 5.69805 14.0521 5.40152 13.7525C5.105 13.4528 4.97014 13.0577 4.99694 12.5673C4.53319 12.5727 4.14534 12.4424 3.8334 12.1763C3.52145 11.9103 3.36548 11.5401 3.36548 11.0656C3.36548 10.852 3.40687 10.6381 3.48965 10.424C3.57243 10.2097 3.695 10.0213 3.85736 9.85896L8.04965 5.67146L10.2019 7.82375C10.2725 7.8975 10.3596 7.95813 10.4632 8.00563C10.5668 8.05313 10.6838 8.07688 10.8142 8.07688C10.9926 8.07688 11.1501 8.01466 11.2869 7.89021C11.4237 7.76577 11.4921 7.60362 11.4921 7.40375C11.4921 7.27348 11.4683 7.15653 11.4207 7.05292C11.3732 6.94931 11.3126 6.86223 11.2388 6.79167L8.37194 3.92459C8.16569 3.71528 7.95118 3.56174 7.7284 3.46396C7.50562 3.36619 7.2618 3.3173 6.99694 3.3173C6.73514 3.3173 6.49743 3.36619 6.28382 3.46396C6.07007 3.56174 5.85847 3.71528 5.64902 3.92459L3.11215 6.46625C2.93382 6.64473 2.78965 6.85737 2.67965 7.10417C2.56951 7.35098 2.51125 7.60577 2.50486 7.86855C2.49847 8.0566 2.51451 8.23743 2.55298 8.41105C2.59145 8.58466 2.65236 8.74785 2.73569 8.90063L2.10423 9.53209C1.96423 9.30875 1.85472 9.05153 1.77569 8.76042C1.69666 8.46931 1.66034 8.17202 1.66673 7.86855C1.67312 7.49035 1.74895 7.12792 1.89423 6.78125C2.03951 6.43459 2.24736 6.12612 2.51777 5.85584L5.03861 3.33501C5.32916 3.04751 5.63659 2.83382 5.9609 2.69396C6.28507 2.55396 6.63576 2.48396 7.01298 2.48396C7.39007 2.48396 7.73805 2.55396 8.05694 2.69396C8.37583 2.83382 8.67895 3.04751 8.96632 3.33501L9.69236 4.06084L10.4184 3.33501C10.709 3.04751 11.0137 2.83382 11.3326 2.69396C11.6515 2.55396 11.9995 2.48396 12.3767 2.48396C12.7538 2.48396 13.1045 2.55396 13.4288 2.69396C13.753 2.83382 14.0588 3.04751 14.3463 3.33501L17.4505 6.43917C17.7378 6.72653 17.9595 7.04917 18.1155 7.40709C18.2715 7.765 18.3494 8.13251 18.3494 8.50959C18.3494 8.88681 18.2715 9.23487 18.1155 9.55375C17.9595 9.87264 17.7378 10.1758 17.4505 10.4631L10.9536 16.9552C10.7806 17.1283 10.5922 17.2543 10.3886 17.3333C10.1851 17.4124 9.97125 17.4519 9.74694 17.4519Z" fill="white"/>
</svg>
