<svg width="20" height="20" viewBox="0 0 10 14" fill="none" xmlns="http://www.w3.org/2000/svg">
  <path fill-rule="evenodd" clip-rule="evenodd" d="M9.97381 5.36034C10.1822 3.95943 9.12254 3.20618 7.67477 2.70356L8.14453 0.805387L6.99799 0.517988L6.54017 2.36603C6.23894 2.28984 5.92975 2.21899 5.62122 2.14814L6.08236 0.288068L4.93582 0L4.46606 1.89751C4.21658 1.84003 3.97108 1.78388 3.73355 1.72373L3.73487 1.71771L2.15308 1.32003L1.84786 2.55385C1.84786 2.55385 2.69914 2.75035 2.68123 2.76238C3.14568 2.87934 3.22928 3.1888 3.21535 3.43476L2.68056 5.59694C2.71241 5.60496 2.75355 5.61699 2.79999 5.63504L2.67857 5.60496L1.92881 8.63402C1.87175 8.77571 1.72777 8.98892 1.40265 8.90805C1.41459 8.92476 0.569288 8.69885 0.569288 8.69885L0 10.0209L1.49289 10.3958C1.77023 10.466 2.04227 10.5395 2.30966 10.6084L1.83526 12.5279L2.98113 12.8153L3.45089 10.9172C3.76407 11.0021 4.06795 11.0809 4.3652 11.1558L3.89677 13.0459L5.04331 13.3333L5.51771 11.4178C7.47373 11.7907 8.94405 11.6404 9.56311 9.85847C10.0621 8.42415 9.53856 7.59604 8.50946 7.05666C9.25922 6.88289 9.8232 6.38629 9.97381 5.36034ZM7.35297 9.06178C6.99932 10.4968 4.60075 9.72079 3.82312 9.52629L4.45345 6.98314C5.23108 7.17897 7.72387 7.56596 7.35297 9.06178ZM7.70794 5.33962C7.38482 6.64495 5.38899 5.98125 4.74207 5.81884L5.31269 3.51296C5.95961 3.67537 8.045 3.97814 7.70794 5.33962Z" fill="#ACA39D"/>
</svg>
