<svg width="20" height="20" viewBox="0 0 20 20" fill="none" xmlns="http://www.w3.org/2000/svg">
<g clip-path="url(#clip0_7715_6063)">
<path d="M8.4375 9.0625L10.9375 11.5625" stroke="white" stroke-linecap="round" stroke-linejoin="round"/>
<path d="M3.1251 4.99974L4.20088 3.88802C4.8393 3.24951 5.59724 2.74301 6.43142 2.39745C7.2656 2.05188 8.15968 1.87402 9.0626 1.87402C9.96553 1.87402 10.8596 2.05188 11.6938 2.39745C12.528 2.74301 13.2859 3.24951 13.9243 3.88802L18.8798 8.87943C18.9969 8.99663 19.0627 9.15554 19.0627 9.32123C19.0627 9.48692 18.9969 9.64583 18.8798 9.76302L16.6407 12.0044C16.5235 12.1216 16.3646 12.1873 16.1989 12.1873C16.0332 12.1873 15.8743 12.1216 15.7571 12.0044L13.1251 9.37474L5.18291 17.3169C5.06572 17.4341 4.90681 17.4998 4.74112 17.4998C4.57543 17.4998 4.41652 17.4341 4.29932 17.3169L2.68291 15.7029C2.56579 15.5857 2.5 15.4268 2.5 15.2611C2.5 15.0954 2.56579 14.9365 2.68291 14.8193L10.6251 6.87474L6.23291 2.48256" stroke="white" stroke-linecap="round" stroke-linejoin="round"/>
<path d="M17.0375 7.02539L13.9062 10.1566" stroke="white" stroke-linecap="round" stroke-linejoin="round"/>
</g>
<defs>
<clipPath id="clip0_7715_6063">
<rect width="20" height="20" fill="white"/>
</clipPath>
</defs>
</svg>
