<svg width="20" height="20" viewBox="0 0 20 20" fill="none" xmlns="http://www.w3.org/2000/svg">
<path d="M9.99984 11.71L11.3748 12.556C11.4955 12.6319 11.6189 12.6258 11.745 12.5377C11.8712 12.4495 11.9187 12.3312 11.8878 12.1827L11.519 10.6106L12.7434 9.5577C12.8609 9.45409 12.8946 9.33416 12.8444 9.19791C12.7941 9.06166 12.6932 8.98659 12.5415 8.9727L10.9438 8.82687L10.3107 7.35895C10.2519 7.22437 10.1483 7.15707 9.99984 7.15707C9.85137 7.15707 9.74775 7.22437 9.689 7.35895L9.05588 8.82687L7.45817 8.9727C7.3065 8.98659 7.20553 9.06166 7.15525 9.19791C7.10512 9.33416 7.1388 9.45409 7.2563 9.5577L8.48067 10.6106L8.11192 12.1827C8.08095 12.3312 8.12852 12.4495 8.25463 12.5377C8.38074 12.6258 8.50414 12.6319 8.62484 12.556L9.99984 11.71ZM7.56067 15.8333H5.51275C5.13984 15.8333 4.8222 15.7022 4.55984 15.44C4.29762 15.1776 4.1665 14.86 4.1665 14.4871V12.4392L2.67442 10.9423C2.54303 10.8077 2.44637 10.6584 2.38442 10.4944C2.32248 10.3303 2.2915 10.1655 2.2915 9.99999C2.2915 9.83443 2.32248 9.66964 2.38442 9.50562C2.44637 9.34159 2.54303 9.19228 2.67442 9.0577L4.1665 7.56082V5.51291C4.1665 5.13999 4.29762 4.82235 4.55984 4.55999C4.8222 4.29777 5.13984 4.16666 5.51275 4.16666H7.56067L9.05755 2.67457C9.19213 2.54318 9.34143 2.44652 9.50546 2.38457C9.66949 2.32263 9.83428 2.29166 9.99984 2.29166C10.1654 2.29166 10.3302 2.32263 10.4942 2.38457C10.6582 2.44652 10.8075 2.54318 10.9421 2.67457L12.439 4.16666H14.4869C14.8598 4.16666 15.1775 4.29777 15.4398 4.55999C15.7021 4.82235 15.8332 5.13999 15.8332 5.51291V7.56082L17.3253 9.0577C17.4566 9.19228 17.5533 9.34159 17.6153 9.50562C17.6772 9.66964 17.7082 9.83443 17.7082 9.99999C17.7082 10.1655 17.6772 10.3303 17.6153 10.4944C17.5533 10.6584 17.4566 10.8077 17.3253 10.9423L15.8332 12.4392V14.4871C15.8332 14.86 15.7021 15.1776 15.4398 15.44C15.1775 15.7022 14.8598 15.8333 14.4869 15.8333H12.439L10.9421 17.3254C10.8075 17.4568 10.6582 17.5535 10.4942 17.6154C10.3302 17.6774 10.1654 17.7083 9.99984 17.7083C9.83428 17.7083 9.66949 17.6774 9.50546 17.6154C9.34143 17.5535 9.19213 17.4568 9.05755 17.3254L7.56067 15.8333ZM7.9165 15L9.6313 16.7148C9.72741 16.8109 9.85026 16.8589 9.99984 16.8589C10.1494 16.8589 10.2723 16.8109 10.3684 16.7148L12.0832 15H14.4869C14.6365 15 14.7594 14.9519 14.8557 14.8558C14.9518 14.7596 14.9998 14.6367 14.9998 14.4871V12.0833L16.7146 10.3685C16.8107 10.2724 16.8588 10.1496 16.8588 9.99999C16.8588 9.85041 16.8107 9.72756 16.7146 9.63145L14.9998 7.91666V5.51291C14.9998 5.36332 14.9518 5.24041 14.8557 5.14416C14.7594 5.04805 14.6365 4.99999 14.4869 4.99999H12.0832L10.3684 3.2852C10.2723 3.18909 10.1494 3.14103 9.99984 3.14103C9.85026 3.14103 9.72741 3.18909 9.6313 3.2852L7.9165 4.99999H5.51275C5.36317 4.99999 5.24025 5.04805 5.144 5.14416C5.04789 5.24041 4.99984 5.36332 4.99984 5.51291V7.91666L3.28505 9.63145C3.18893 9.72756 3.14088 9.85041 3.14088 9.99999C3.14088 10.1496 3.18893 10.2724 3.28505 10.3685L4.99984 12.0833V14.4871C4.99984 14.6367 5.04789 14.7596 5.144 14.8558C5.24025 14.9519 5.36317 15 5.51275 15H7.9165Z" fill="white"/>
</svg>
