<svg width="20" height="20" viewBox="0 0 20 20" fill="none" xmlns="http://www.w3.org/2000/svg">
<g clip-path="url(#clip0_7715_6103)">
<path d="M10 14.375C11.7259 14.375 13.125 12.9759 13.125 11.25C13.125 9.52411 11.7259 8.125 10 8.125C8.27411 8.125 6.875 9.52411 6.875 11.25C6.875 12.9759 8.27411 14.375 10 14.375Z" stroke="white" stroke-linecap="round" stroke-linejoin="round"/>
<path d="M5.625 16.875C6.07366 16.1136 6.71325 15.4825 7.48054 15.0441C8.24784 14.6056 9.11627 14.375 10 14.375C10.8837 14.375 11.7522 14.6056 12.5195 15.0441C13.2867 15.4825 13.9263 16.1136 14.375 16.875" stroke="white" stroke-linecap="round" stroke-linejoin="round"/>
<path d="M12.8125 5.66797C13.0065 5.31638 13.2824 5.0167 13.6168 4.7943C13.9512 4.5719 14.3342 4.43333 14.7335 4.3903C15.1328 4.34728 15.5365 4.40108 15.9106 4.54714C16.2847 4.6932 16.6181 4.92723 16.8825 5.22942C17.147 5.53161 17.3348 5.89307 17.43 6.2832C17.5252 6.67333 17.5251 7.08066 17.4295 7.47071C17.334 7.86077 17.1459 8.22206 16.8811 8.52403C16.6164 8.82599 16.2828 9.05973 15.9086 9.20547C17.0281 9.44766 18.0875 10.3648 18.7523 11.25" stroke="white" stroke-linecap="round" stroke-linejoin="round"/>
<path d="M1.25 11.2502C1.91484 10.3651 2.97344 9.4479 4.09375 9.20572C3.71918 9.06039 3.38516 8.82692 3.11997 8.52509C2.85478 8.22326 2.66625 7.86197 2.57034 7.47181C2.47442 7.08165 2.47396 6.67412 2.56898 6.28375C2.664 5.89337 2.85171 5.53164 3.1162 5.22921C3.3807 4.92678 3.71419 4.69255 4.08842 4.54636C4.46266 4.40017 4.86662 4.34634 5.26607 4.38941C5.66553 4.43248 6.04873 4.5712 6.3832 4.7938C6.71767 5.01641 6.99356 5.31635 7.1875 5.66822" stroke="white" stroke-linecap="round" stroke-linejoin="round"/>
</g>
<defs>
<clipPath id="clip0_7715_6103">
<rect width="20" height="20" fill="white"/>
</clipPath>
</defs>
</svg>
