<svg width="24" height="24" viewBox="0 0 24 24" fill="none" xmlns="http://www.w3.org/2000/svg">
<path d="M16.8845 13.6155C16.3385 13.6155 15.8687 13.4187 15.475 13.025C15.0813 12.6313 14.8845 12.1615 14.8845 11.6155C14.8845 11.0693 15.0813 10.5994 15.475 10.2057C15.8687 9.81224 16.3385 9.61549 16.8845 9.61549C17.4307 9.61549 17.9006 9.81224 18.2943 10.2057C18.6878 10.5994 18.8845 11.0693 18.8845 11.6155C18.8845 12.1615 18.6878 12.6313 18.2943 13.025C17.9006 13.4187 17.4307 13.6155 16.8845 13.6155ZM12.3845 17.8077V17.7155C12.3845 17.4052 12.462 17.1238 12.617 16.8715C12.7718 16.6192 12.9918 16.4377 13.277 16.327C13.8513 16.0898 14.4401 15.9119 15.0433 15.7932C15.6464 15.6747 16.2602 15.6155 16.8845 15.6155C17.509 15.6155 18.1228 15.6747 18.726 15.7932C19.3292 15.9119 19.9179 16.0898 20.4923 16.327C20.7773 16.4377 20.9973 16.6192 21.1523 16.8715C21.3071 17.1238 21.3845 17.4052 21.3845 17.7155V17.8077C21.3845 18.0366 21.3072 18.2284 21.1525 18.3832C20.9977 18.5381 20.8058 18.6155 20.577 18.6155H13.1923C12.9634 18.6155 12.7716 18.5381 12.6168 18.3832C12.4619 18.2284 12.3845 18.0366 12.3845 17.8077ZM9.61551 11.3845C8.79051 11.3845 8.08426 11.0907 7.49676 10.5032C6.90926 9.91574 6.61551 9.20949 6.61551 8.38449C6.61551 7.55949 6.90926 6.85324 7.49676 6.26574C8.08426 5.67824 8.79051 5.38449 9.61551 5.38449C10.4405 5.38449 11.1468 5.67824 11.7343 6.26574C12.3218 6.85324 12.6155 7.55949 12.6155 8.38449C12.6155 9.20949 12.3218 9.91574 11.7343 10.5032C11.1468 11.0907 10.4405 11.3845 9.61551 11.3845ZM2.61551 16.967C2.61551 16.535 2.73468 16.1379 2.97301 15.7757C3.21151 15.4137 3.53593 15.1462 3.94626 14.973C4.83076 14.5243 5.74934 14.1859 6.70201 13.9577C7.65468 13.7296 8.62584 13.6155 9.61551 13.6155C10.0193 13.6155 10.4232 13.6366 10.827 13.6787C11.2308 13.7211 11.6347 13.7769 12.0385 13.8462L11.6115 14.2922C11.4692 14.4411 11.3268 14.5898 11.1845 14.7385C10.923 14.6872 10.6615 14.6538 10.4 14.6385C10.1385 14.6232 9.87701 14.6155 9.61551 14.6155C8.71284 14.6155 7.82143 14.7129 6.94126 14.9077C6.06126 15.1026 5.22184 15.4167 4.42301 15.85C4.20518 15.9718 4.01609 16.1237 3.85576 16.3057C3.69559 16.4877 3.61551 16.7089 3.61551 16.9692V17.6155H9.61551V17.802C9.61551 17.9738 9.64193 18.1292 9.69476 18.2682C9.74776 18.4071 9.82193 18.5228 9.91726 18.6155H3.65376C3.36026 18.6155 3.11384 18.5157 2.91451 18.3162C2.71518 18.1169 2.61551 17.8705 2.61551 17.577V16.967ZM9.61551 10.3845C10.1655 10.3845 10.6363 10.1887 11.028 9.79699C11.4197 9.40532 11.6155 8.93449 11.6155 8.38449C11.6155 7.83449 11.4197 7.36366 11.028 6.97199C10.6363 6.58032 10.1655 6.38449 9.61551 6.38449C9.06551 6.38449 8.59468 6.58032 8.20301 6.97199C7.81134 7.36366 7.61551 7.83449 7.61551 8.38449C7.61551 8.93449 7.81134 9.40532 8.20301 9.79699C8.59468 10.1887 9.06551 10.3845 9.61551 10.3845Z" fill="#ACA39D"/>
</svg>
