<svg width="20" height="20" viewBox="0 0 20 20" fill="none" xmlns="http://www.w3.org/2000/svg">
<path d="M6.56417 8.75646C6.07694 8.26924 5.83333 7.67944 5.83333 6.98708C5.83333 6.29486 6.07694 5.70514 6.56417 5.21792C7.05125 4.73069 7.64097 4.48708 8.33333 4.48708C9.02569 4.48708 9.61542 4.73069 10.1025 5.21792C10.5897 5.70514 10.8333 6.29486 10.8333 6.98708C10.8333 7.67944 10.5897 8.26924 10.1025 8.75646C9.61542 9.24354 9.02569 9.48708 8.33333 9.48708C7.64097 9.48708 7.05125 9.24354 6.56417 8.75646ZM2.5 15.5129V14.141C2.5 13.7574 2.59667 13.4257 2.79 13.1458C2.98347 12.866 3.25646 12.6432 3.60896 12.4775C4.28521 12.1485 4.98236 11.8776 5.70042 11.665C6.41833 11.4525 7.29597 11.3462 8.33333 11.3462H8.52875C8.58014 11.3462 8.64215 11.3494 8.71479 11.3558C8.65701 11.4989 8.61132 11.6391 8.57771 11.7765C8.5441 11.9137 8.51181 12.0481 8.48083 12.1796H8.33333C7.40069 12.1796 6.58736 12.2751 5.89333 12.4662C5.19944 12.6575 4.57049 12.9049 4.00646 13.2083C3.75326 13.3419 3.57778 13.4819 3.48 13.6281C3.38222 13.7745 3.33333 13.9455 3.33333 14.141V14.6796H8.58333C8.62389 14.811 8.67354 14.9522 8.73229 15.1033C8.79104 15.2546 8.85569 15.3911 8.92625 15.5129H2.5ZM13.5096 15.9135L13.3879 14.9519C13.1571 14.9038 12.9394 14.8229 12.7348 14.7092C12.5302 14.5954 12.3462 14.4509 12.1827 14.2756L11.2788 14.6346L10.9263 14.0352L11.6923 13.4583C11.6005 13.2211 11.5546 12.9765 11.5546 12.7244C11.5546 12.4723 11.6005 12.2276 11.6923 11.9904L10.9423 11.3815L11.2948 10.7821L12.1827 11.1571C12.3355 10.9818 12.5168 10.84 12.7267 10.7317C12.9367 10.6232 13.1571 10.5449 13.3879 10.4969L13.5096 9.53521H14.2148L14.3204 10.4969C14.5513 10.5449 14.7717 10.624 14.9817 10.734C15.1915 10.844 15.3728 10.9882 15.5256 11.1667L16.4135 10.7821L16.766 11.391L16.016 12C16.1078 12.2308 16.1538 12.4739 16.1538 12.7292C16.1538 12.9844 16.1078 13.2275 16.016 13.4583L16.7821 14.0352L16.4296 14.6346L15.5256 14.2756C15.3622 14.4509 15.1781 14.5954 14.9735 14.7092C14.769 14.8229 14.5513 14.9038 14.3204 14.9519L14.2148 15.9135H13.5096ZM14.911 13.7892C15.2053 13.4949 15.3525 13.1399 15.3525 12.7244C15.3525 12.3088 15.2053 11.9538 14.911 11.6594C14.6167 11.3651 14.2618 11.2179 13.8463 11.2179C13.4306 11.2179 13.0756 11.3651 12.7813 11.6594C12.4869 11.9538 12.3398 12.3088 12.3398 12.7244C12.3398 13.1399 12.4869 13.4949 12.7813 13.7892C13.0756 14.0836 13.4306 14.2308 13.8463 14.2308C14.2618 14.2308 14.6167 14.0836 14.911 13.7892ZM9.51042 8.16417C9.83681 7.83778 10 7.44542 10 6.98708C10 6.52875 9.83681 6.13639 9.51042 5.81C9.18403 5.48361 8.79167 5.32042 8.33333 5.32042C7.875 5.32042 7.48264 5.48361 7.15625 5.81C6.82986 6.13639 6.66667 6.52875 6.66667 6.98708C6.66667 7.44542 6.82986 7.83778 7.15625 8.16417C7.48264 8.49056 7.875 8.65375 8.33333 8.65375C8.79167 8.65375 9.18403 8.49056 9.51042 8.16417Z" fill="white"/>
</svg>
