<svg width="20" height="20" viewBox="0 0 20 20" fill="none" xmlns="http://www.w3.org/2000/svg">
<path d="M11.2677 7.98311L15.7179 3.55373C15.796 3.47568 15.8881 3.43852 15.9944 3.44227C16.1006 3.44602 16.1944 3.48852 16.2756 3.56977C16.3537 3.64769 16.3927 3.74332 16.3927 3.85665C16.3927 3.96984 16.3537 4.06547 16.2756 4.14352L11.7388 8.68019C11.6042 8.81491 11.4472 8.88227 11.2677 8.88227C11.0881 8.88227 10.931 8.81491 10.7965 8.68019L8.61375 6.49769C8.53264 6.41644 8.49021 6.31811 8.48646 6.20269C8.48271 6.08727 8.52674 5.98901 8.61854 5.9079C8.69979 5.82984 8.79813 5.79269 8.91354 5.79644C9.02882 5.80019 9.12708 5.84269 9.20833 5.92394L11.2677 7.98311ZM11.9935 17.2796C12.047 17.301 12.0951 17.3116 12.1379 17.3116C12.1806 17.3116 12.2286 17.301 12.2821 17.2796L17.1281 15.786C17.1122 15.5328 17.0356 15.3504 16.8983 15.2387C16.761 15.1271 16.609 15.0712 16.4423 15.0712H12.4904C12.1368 15.0712 11.8168 15.0573 11.5304 15.0296C11.2442 15.0018 10.9509 14.9356 10.6506 14.831L9.22271 14.371C9.10729 14.3337 9.02507 14.2589 8.97604 14.1466C8.92688 14.0344 8.92097 13.9206 8.95833 13.8052C8.9957 13.7006 9.06701 13.6229 9.17229 13.5721C9.27757 13.5214 9.38785 13.5147 9.50313 13.5521L10.7948 14.02C11.063 14.1108 11.3597 14.1691 11.685 14.1948C12.0104 14.2203 12.414 14.2347 12.8958 14.2379H13.109C13.109 13.9783 13.0612 13.7684 12.9656 13.6081C12.8699 13.4478 12.7329 13.3362 12.5546 13.2733L7.75958 11.5135C7.7275 11.503 7.69813 11.495 7.67146 11.4896C7.64479 11.4843 7.61542 11.4816 7.58333 11.4816H5.83333V15.4879L11.9935 17.2796ZM11.7804 18.1033L5.83333 16.3629C5.75431 16.6921 5.58632 16.9544 5.32938 17.1498C5.07243 17.3453 4.79167 17.4431 4.48708 17.4431H3.84625C3.47333 17.4431 3.15569 17.312 2.89333 17.0498C2.63111 16.7874 2.5 16.4698 2.5 16.0969V11.9944C2.5 11.6214 2.63111 11.3039 2.89333 11.0416C3.15569 10.7794 3.47333 10.6483 3.84625 10.6483H7.56729C7.64313 10.6483 7.72167 10.656 7.80292 10.6714C7.88403 10.687 7.96097 10.7087 8.03375 10.7364L12.8494 12.5008C13.1474 12.614 13.4041 12.8176 13.6194 13.1114C13.8347 13.4052 13.9423 13.7807 13.9423 14.2379H16.4423C16.9444 14.2379 17.329 14.395 17.5963 14.7091C17.8633 15.0232 17.9969 15.4216 17.9969 15.9046C17.9969 16.0712 17.9517 16.212 17.8615 16.3269C17.7712 16.4417 17.6394 16.528 17.4663 16.5858L12.5625 18.0985C12.4418 18.1327 12.3142 18.1525 12.1796 18.1579C12.0449 18.1632 11.9118 18.145 11.7804 18.1033ZM3.33333 16.0969C3.33333 16.2464 3.38139 16.3694 3.4775 16.4656C3.57375 16.5617 3.69667 16.6098 3.84625 16.6098H4.48708C4.63667 16.6098 4.75958 16.5697 4.85583 16.4896C4.95194 16.4094 5 16.2785 5 16.0969V11.4816H3.84625C3.69667 11.4816 3.57375 11.5297 3.4775 11.6258C3.38139 11.7219 3.33333 11.8448 3.33333 11.9944V16.0969Z" fill="white"/>
</svg>
