<svg width="24" height="24" viewBox="0 0 24 24" fill="none" xmlns="http://www.w3.org/2000/svg">
<path d="M5 17V19V5V17ZM5.6155 20C5.168 20 4.78683 19.8427 4.472 19.528C4.15733 19.2132 4 18.832 4 18.3845V5.6155C4 5.168 4.15733 4.78683 4.472 4.472C4.78683 4.15733 5.168 4 5.6155 4H18.3845C18.832 4 19.2132 4.15733 19.528 4.472C19.8427 4.78683 20 5.168 20 5.6155V8.55775H19V5.6155C19 5.436 18.9423 5.2885 18.827 5.173C18.7115 5.05767 18.564 5 18.3845 5H5.6155C5.436 5 5.2885 5.05767 5.173 5.173C5.05767 5.2885 5 5.436 5 5.6155V18.3845C5 18.564 5.05767 18.7115 5.173 18.827C5.2885 18.9423 5.436 19 5.6155 19H18.3845C18.564 19 18.7115 18.9423 18.827 18.827C18.9423 18.7115 19 18.564 19 18.3845V15.4423H20V18.3845C20 18.832 19.8427 19.2132 19.528 19.528C19.2132 19.8427 18.832 20 18.3845 20H5.6155ZM13.6155 16C13.168 16 12.7868 15.8427 12.472 15.528C12.1573 15.2132 12 14.832 12 14.3845V9.6155C12 9.168 12.1573 8.78683 12.472 8.472C12.7868 8.15733 13.168 8 13.6155 8H19.3845C19.832 8 20.2132 8.15733 20.528 8.472C20.8427 8.78683 21 9.168 21 9.6155V14.3845C21 14.832 20.8427 15.2132 20.528 15.528C20.2132 15.8427 19.832 16 19.3845 16H13.6155ZM19.3845 15C19.564 15 19.7115 14.9423 19.827 14.827C19.9423 14.7115 20 14.564 20 14.3845V9.6155C20 9.436 19.9423 9.2885 19.827 9.173C19.7115 9.05767 19.564 9 19.3845 9H13.6155C13.436 9 13.2885 9.05767 13.173 9.173C13.0577 9.2885 13 9.436 13 9.6155V14.3845C13 14.564 13.0577 14.7115 13.173 14.827C13.2885 14.9423 13.436 15 13.6155 15H19.3845ZM16 13.5C16.4167 13.5 16.7708 13.3542 17.0625 13.0625C17.3542 12.7708 17.5 12.4167 17.5 12C17.5 11.5833 17.3542 11.2292 17.0625 10.9375C16.7708 10.6458 16.4167 10.5 16 10.5C15.5833 10.5 15.2292 10.6458 14.9375 10.9375C14.6458 11.2292 14.5 11.5833 14.5 12C14.5 12.4167 14.6458 12.7708 14.9375 13.0625C15.2292 13.3542 15.5833 13.5 16 13.5Z" fill="#ACA39D"/>
</svg>
