<svg width="20" height="20" viewBox="0 0 20 20" fill="none" xmlns="http://www.w3.org/2000/svg">
<path d="M7.56067 15.8333H5.51275C5.13984 15.8333 4.8222 15.7022 4.55984 15.44C4.29762 15.1776 4.1665 14.86 4.1665 14.4871V12.4392L2.67442 10.9423C2.54303 10.8077 2.44637 10.6584 2.38442 10.4944C2.32248 10.3304 2.2915 10.1656 2.2915 10C2.2915 9.83445 2.32248 9.66966 2.38442 9.50563C2.44637 9.3416 2.54303 9.1923 2.67442 9.05771L4.1665 7.56084V5.51292C4.1665 5.14001 4.29762 4.82237 4.55984 4.56001C4.8222 4.29778 5.13984 4.16667 5.51275 4.16667H7.56067L9.05755 2.67459C9.19213 2.5432 9.34143 2.44653 9.50546 2.38459C9.66949 2.32264 9.83428 2.29167 9.99984 2.29167C10.1654 2.29167 10.3302 2.32264 10.4942 2.38459C10.6582 2.44653 10.8075 2.5432 10.9421 2.67459L12.439 4.16667H14.4869C14.8598 4.16667 15.1775 4.29778 15.4398 4.56001C15.7021 4.82237 15.8332 5.14001 15.8332 5.51292V7.56084L17.3253 9.05771C17.4566 9.1923 17.5533 9.3416 17.6153 9.50563C17.6772 9.66966 17.7082 9.83445 17.7082 10C17.7082 10.1656 17.6772 10.3304 17.6153 10.4944C17.5533 10.6584 17.4566 10.8077 17.3253 10.9423L15.8332 12.4392V14.4871C15.8332 14.86 15.7021 15.1776 15.4398 15.44C15.1775 15.7022 14.8598 15.8333 14.4869 15.8333H12.439L10.9421 17.3254C10.8075 17.4568 10.6582 17.5535 10.4942 17.6154C10.3302 17.6774 10.1654 17.7083 9.99984 17.7083C9.83428 17.7083 9.66949 17.6774 9.50546 17.6154C9.34143 17.5535 9.19213 17.4568 9.05755 17.3254L7.56067 15.8333ZM7.9165 15L9.6313 16.7148C9.72741 16.8109 9.85025 16.859 9.99984 16.859C10.1494 16.859 10.2723 16.8109 10.3684 16.7148L12.0832 15H14.4869C14.6365 15 14.7594 14.952 14.8557 14.8558C14.9518 14.7596 14.9998 14.6367 14.9998 14.4871V12.0833L16.7146 10.3685C16.8107 10.2724 16.8588 10.1496 16.8588 10C16.8588 9.85042 16.8107 9.72757 16.7146 9.63146L14.9998 7.91667V5.51292C14.9998 5.36334 14.9518 5.24042 14.8557 5.14417C14.7594 5.04806 14.6365 5.00001 14.4869 5.00001H12.0832L10.3684 3.28521C10.2723 3.1891 10.1494 3.14105 9.99984 3.14105C9.85025 3.14105 9.72741 3.1891 9.6313 3.28521L7.9165 5.00001H5.51275C5.36317 5.00001 5.24025 5.04806 5.144 5.14417C5.04789 5.24042 4.99984 5.36334 4.99984 5.51292V7.91667L3.28505 9.63146C3.18893 9.72757 3.14088 9.85042 3.14088 10C3.14088 10.1496 3.18893 10.2724 3.28505 10.3685L4.99984 12.0833V14.4871C4.99984 14.6367 5.04789 14.7596 5.144 14.8558C5.24025 14.952 5.36317 15 5.51275 15H7.9165Z" fill="white"/>
<path d="M12.6273 8.03605L9.38525 11.2988L7.914 9.82292C7.8222 9.73098 7.72317 9.68501 7.61692 9.68501C7.51053 9.68501 7.41143 9.73098 7.31963 9.82292C7.22768 9.91473 7.18171 10.0165 7.18171 10.1281C7.18171 10.2398 7.22768 10.3362 7.31963 10.4173L8.914 11.9958C9.04873 12.1306 9.20581 12.1979 9.38525 12.1979C9.5647 12.1979 9.72178 12.1306 9.8565 11.9958L13.2057 8.63042C13.2869 8.54931 13.3294 8.45028 13.3332 8.33334C13.3369 8.21626 13.2928 8.11716 13.2009 8.03605C13.1198 7.95799 13.0234 7.9182 12.9117 7.91667C12.8 7.91501 12.7053 7.9548 12.6273 8.03605Z" fill="white"/>
</svg>
