<svg width="20" height="20" viewBox="0 0 20 20" fill="none" xmlns="http://www.w3.org/2000/svg">
<path d="M14.5977 16.6667C14.8851 16.6667 15.154 16.5716 15.4046 16.3815C15.6551 16.1913 15.8183 15.9578 15.8942 15.681C16.2414 14.4503 16.5181 13.4292 16.7244 12.6177C16.9306 11.8063 17.0917 11.1204 17.2075 10.56C17.3235 9.99972 17.4012 9.52035 17.4406 9.12187C17.4802 8.72326 17.5 8.32153 17.5 7.91667C17.5 6.87389 17.1357 5.98819 16.4071 5.25958C15.6785 4.53097 14.7928 4.16667 13.75 4.16667H9.16667C8.79167 3.66667 8.35069 3.26389 7.84375 2.95833C7.33681 2.65278 6.80556 2.5 6.25 2.5C6.13778 2.5 6.04028 2.54139 5.9575 2.62417C5.87472 2.70694 5.83333 2.80444 5.83333 2.91667C5.83333 2.94653 5.8384 2.97375 5.84854 2.99833C5.85868 3.02292 5.86694 3.05389 5.87333 3.09125C5.93958 3.26542 6.00507 3.46632 6.06979 3.69396C6.13437 3.92146 6.20194 4.23771 6.2725 4.64271L3.83167 7.08333H3.17312C2.97965 7.08333 2.8191 7.14715 2.69146 7.27479C2.56382 7.40243 2.5 7.56299 2.5 7.75646V10.9615C2.5 11.1101 2.54139 11.2431 2.62417 11.3606C2.70694 11.4781 2.82264 11.5609 2.97125 11.609L4.69396 12.1762L5.75167 15.7035C5.84139 16.0005 6.00535 16.2353 6.24354 16.4079C6.48187 16.5804 6.75111 16.6667 7.05125 16.6667H7.82042C8.19333 16.6667 8.51097 16.5356 8.77333 16.2733C9.03555 16.011 9.16667 15.6933 9.16667 15.3204V15H12.5V15.3204C12.5 15.6933 12.6311 16.011 12.8933 16.2733C13.1557 16.5356 13.4733 16.6667 13.8462 16.6667H14.5977ZM14.5833 15.8333H13.8462C13.6967 15.8333 13.5738 15.7853 13.4775 15.6892C13.3814 15.5929 13.3333 15.47 13.3333 15.3204V14.1667H8.33333V15.3204C8.33333 15.47 8.28528 15.5929 8.18917 15.6892C8.09292 15.7853 7.97 15.8333 7.82042 15.8333H7.05125C6.93375 15.8333 6.82958 15.8012 6.73875 15.7371C6.64792 15.6731 6.58653 15.5823 6.55458 15.4648L5.375 11.5417L3.33333 10.8542V7.91667H4.16667L7.08333 5C7.08333 4.75431 7.06333 4.48882 7.02333 4.20354C6.98319 3.91826 6.92306 3.66132 6.84292 3.43271C7.21361 3.53313 7.55979 3.73208 7.88146 4.02958C8.20299 4.32722 8.44389 4.65069 8.60417 5H13.75C14.5556 5 15.2431 5.28472 15.8125 5.85417C16.3819 6.42361 16.6667 7.11111 16.6667 7.91667C16.6667 8.46472 16.5315 9.39236 16.2612 10.6996C15.991 12.0067 15.6079 13.5844 15.1121 15.4327C15.0801 15.5502 15.0134 15.6464 14.9119 15.7212C14.8103 15.796 14.7008 15.8333 14.5833 15.8333ZM6.66667 8.97438C6.49472 8.97438 6.34486 8.91056 6.21708 8.78292C6.08944 8.65514 6.02562 8.50528 6.02562 8.33333C6.02562 8.16139 6.08944 8.01153 6.21708 7.88375C6.34486 7.75611 6.49472 7.69229 6.66667 7.69229C6.83861 7.69229 6.98847 7.75611 7.11625 7.88375C7.24389 8.01153 7.30771 8.16139 7.30771 8.33333C7.30771 8.50528 7.24389 8.65514 7.11625 8.78292C6.98847 8.91056 6.83861 8.97438 6.66667 8.97438ZM9.58333 7.08333C9.46472 7.08333 9.36562 7.04354 9.28604 6.96396C9.20646 6.88438 9.16667 6.78528 9.16667 6.66667C9.16667 6.54806 9.20646 6.44896 9.28604 6.36937C9.36562 6.28979 9.46472 6.25 9.58333 6.25H12.9167C13.0353 6.25 13.1344 6.28979 13.214 6.36937C13.2935 6.44896 13.3333 6.54806 13.3333 6.66667C13.3333 6.78528 13.2935 6.88438 13.214 6.96396C13.1344 7.04354 13.0353 7.08333 12.9167 7.08333H9.58333Z" fill="white"/>
</svg>
