<svg width="20" height="20" viewBox="0 0 7 14" fill="none" xmlns="http://www.w3.org/2000/svg">
  <path d="M3.05234 13.5405V11.95C2.38183 11.8637 1.80577 11.6316 1.32419 11.2538C0.842601 10.8759 0.484539 10.3532 0.25 9.68568L0.974529 9.37003C1.20008 9.95533 1.51006 10.4058 1.90447 10.7216C2.29889 11.0373 2.8339 11.1951 3.5095 11.1951C4.10379 11.1951 4.64675 11.047 5.13837 10.7509C5.62999 10.4547 5.8758 9.97736 5.8758 9.31882C5.8758 8.76258 5.69488 8.31578 5.33304 7.97844C4.9712 7.64122 4.29416 7.31326 3.30193 6.99455C2.29159 6.67271 1.58049 6.30507 1.16861 5.89163C0.756603 5.47819 0.5506 4.93973 0.5506 4.27624C0.5506 3.54957 0.829246 2.96921 1.38654 2.53519C1.94382 2.10129 2.49909 1.86675 3.05234 1.83157V0.25H3.83414V1.83157C4.3754 1.88578 4.84025 2.03588 5.22867 2.28189C5.61709 2.52802 5.93906 2.87807 6.19457 3.33203L5.49995 3.68697C5.31349 3.35014 5.05693 3.07749 4.73027 2.86901C4.40348 2.66053 3.9875 2.5563 3.48233 2.5563C2.87892 2.5563 2.36977 2.71591 1.9549 3.03515C1.5399 3.35438 1.3324 3.76808 1.3324 4.27624C1.3324 4.7564 1.50283 5.14528 1.84369 5.44288C2.18442 5.74061 2.86693 6.05131 3.89121 6.37497C4.84044 6.6757 5.53885 7.06185 5.98642 7.5334C6.43387 8.00508 6.65759 8.59723 6.65759 9.30983C6.65759 10.0946 6.38149 10.718 5.82928 11.1801C5.27694 11.6421 4.6119 11.9017 3.83414 11.9589V13.5405H3.05234Z" fill="white" stroke="white" stroke-width="0.5" stroke-linejoin="round"/>
</svg>
