<svg width="1016" height="699" viewBox="0 0 1016 699" fill="none"
  xmlns="http://www.w3.org/2000/svg">
  <g clip-path="url(#clip0_1572_13551)">
    <rect width="1016" height="699" rx="8" fill="#1A1A1A" />
    <rect width="578.13" height="35.8405" transform="matrix(1 4.5575e-08 1.64003e-07 -1 605.43 33.8406)" fill="url(#paint0_linear_1572_13551)" />
    <rect width="520.792" height="34.7205" transform="matrix(1 4.09958e-08 1.82322e-07 -1 716.387 201.403)" fill="url(#paint1_linear_1572_13551)" />
    <rect width="557.514" height="34.7205" transform="matrix(1 5.75823e-08 1.29804e-07 -1 476.129 606.017)" fill="url(#paint2_linear_1572_13551)" />
    <rect width="553.201" height="34.7205" transform="matrix(1 4.43968e-08 1.68355e-07 -1 615.553 66.905)" fill="url(#paint3_linear_1572_13551)" />
    <rect width="559.093" height="35.8405" transform="matrix(1 3.91248e-08 1.91041e-07 -1 645.418 101.089)" fill="url(#paint4_linear_1572_13551)" />
    <rect width="534.294" height="34.7205" transform="matrix(1 3.91248e-08 1.91041e-07 -1 661.199 134.154)" fill="url(#paint5_linear_1572_13551)" />
    <rect width="583.891" height="35.8405" transform="matrix(1 3.91248e-08 1.91041e-07 -1 663.92 168.338)" fill="url(#paint6_linear_1572_13551)" />
    <rect width="525.659" height="35.8405" transform="matrix(1 5.75823e-08 1.29804e-07 -1 527.77 572.952)" fill="url(#paint7_linear_1572_13551)" />
    <rect width="516.259" height="35.8405" transform="matrix(1 4.09958e-08 1.82322e-07 -1 705.785 235.587)" fill="url(#paint8_linear_1572_13551)" />
    <rect width="545.445" height="35.8405" transform="matrix(1 5.75823e-08 1.29804e-07 -1 500.266 640.201)" fill="url(#paint9_linear_1572_13551)" />
    <rect width="456.449" height="35.8405" transform="matrix(1 4.74795e-08 1.57424e-07 -1 712.373 269.521)" fill="url(#paint10_linear_1572_13551)" />
    <rect width="473.304" height="35.8405" transform="matrix(1 5.75823e-08 1.29804e-07 -1 634.395 505.703)" fill="url(#paint11_linear_1572_13551)" />
    <rect width="579.261" height="35.8405" transform="matrix(1 5.75823e-08 1.29804e-07 -1 487.822 674.385)" fill="url(#paint12_linear_1572_13551)" />
    <rect width="458.32" height="34.7205" transform="matrix(1 5.75823e-08 1.29804e-07 -1 674.518 437.334)" fill="url(#paint13_linear_1572_13551)" />
    <rect width="457.963" height="34.7205" transform="matrix(1 4.74795e-08 1.57424e-07 -1 734.934 302.836)" fill="url(#paint14_linear_1572_13551)" />
    <rect width="487.803" height="34.7205" transform="matrix(1 5.75823e-08 1.29804e-07 -1 595.438 538.767)" fill="url(#paint15_linear_1572_13551)" />
    <rect width="566.878" height="34.7205" transform="matrix(1 3.74131e-08 1.99781e-07 -1 500.205 707.45)" fill="url(#paint16_linear_1572_13551)" />
    <rect width="480.009" height="35.8405" transform="matrix(1 5.75823e-08 1.29804e-07 -1 703.553 337.021)" fill="url(#paint17_linear_1572_13551)" />
    <rect width="503.116" height="34.7205" transform="matrix(1 5.75823e-08 1.29804e-07 -1 671.607 370.085)" fill="url(#paint18_linear_1572_13551)" />
    <rect width="464.598" height="35.8405" transform="matrix(1 5.75823e-08 1.29804e-07 -1 693.133 404.27)" fill="url(#paint19_linear_1572_13551)" />
    <rect width="501.795" height="35.8405" transform="matrix(1 5.75823e-08 1.29804e-07 -1 617.516 471.518)" fill="url(#paint20_linear_1572_13551)" />
  </g>
  <defs>
    <linearGradient id="paint0_linear_1572_13551" x1="-3.52224e-06" y1="17.9202" x2="578.13" y2="17.9195" gradientUnits="userSpaceOnUse">
      <stop stop-color="#0D0D0D" stop-opacity="0" />
      <stop offset="0.195" stop-color="#490F0F" />
      <stop offset="0.675" stop-color="#FED0FC" />
      <stop offset="1" stop-color="#FFFCD6" />
    </linearGradient>
    <linearGradient id="paint1_linear_1572_13551" x1="-3.17291e-06" y1="17.3602" x2="520.792" y2="17.3597" gradientUnits="userSpaceOnUse">
      <stop stop-color="#0D0D0D" stop-opacity="0" />
      <stop offset="0.195" stop-color="#490F0F" />
      <stop offset="0.675" stop-color="#FED0FC" />
      <stop offset="1" stop-color="#FFFCD6" />
    </linearGradient>
    <linearGradient id="paint2_linear_1572_13551" x1="-3.39664e-06" y1="17.3602" x2="557.514" y2="17.3596" gradientUnits="userSpaceOnUse">
      <stop stop-color="#0D0D0D" stop-opacity="0" />
      <stop offset="0.195" stop-color="#490F0F" />
      <stop offset="0.675" stop-color="#FED0FC" />
      <stop offset="1" stop-color="#FFFCD6" />
    </linearGradient>
    <linearGradient id="paint3_linear_1572_13551" x1="-3.37037e-06" y1="17.3602" x2="553.201" y2="17.3596" gradientUnits="userSpaceOnUse">
      <stop stop-color="#0D0D0D" stop-opacity="0" />
      <stop offset="0.195" stop-color="#490F0F" />
      <stop offset="0.675" stop-color="#FED0FC" />
      <stop offset="1" stop-color="#FFFCD6" />
    </linearGradient>
    <linearGradient id="paint4_linear_1572_13551" x1="-3.40626e-06" y1="17.9202" x2="559.093" y2="17.9196" gradientUnits="userSpaceOnUse">
      <stop stop-color="#0D0D0D" stop-opacity="0" />
      <stop offset="0.195" stop-color="#490F0F" />
      <stop offset="0.675" stop-color="#FED0FC" />
      <stop offset="1" stop-color="#FFFCD6" />
    </linearGradient>
    <linearGradient id="paint5_linear_1572_13551" x1="-3.25517e-06" y1="17.3602" x2="534.294" y2="17.3596" gradientUnits="userSpaceOnUse">
      <stop stop-color="#0D0D0D" stop-opacity="0" />
      <stop offset="0.195" stop-color="#490F0F" />
      <stop offset="0.675" stop-color="#FED0FC" />
      <stop offset="1" stop-color="#FFFCD6" />
    </linearGradient>
    <linearGradient id="paint6_linear_1572_13551" x1="-3.55734e-06" y1="17.9202" x2="583.891" y2="17.9195" gradientUnits="userSpaceOnUse">
      <stop stop-color="#0D0D0D" stop-opacity="0" />
      <stop offset="0.195" stop-color="#490F0F" />
      <stop offset="0.675" stop-color="#FED0FC" />
      <stop offset="1" stop-color="#FFFCD6" />
    </linearGradient>
    <linearGradient id="paint7_linear_1572_13551" x1="-3.20257e-06" y1="17.9202" x2="525.659" y2="17.9197" gradientUnits="userSpaceOnUse">
      <stop stop-color="#0D0D0D" stop-opacity="0" />
      <stop offset="0.195" stop-color="#490F0F" />
      <stop offset="0.675" stop-color="#FED0FC" />
      <stop offset="1" stop-color="#FFFCD6" />
    </linearGradient>
    <linearGradient id="paint8_linear_1572_13551" x1="-3.1453e-06" y1="17.9202" x2="516.259" y2="17.9197" gradientUnits="userSpaceOnUse">
      <stop stop-color="#0D0D0D" stop-opacity="0" />
      <stop offset="0.195" stop-color="#490F0F" />
      <stop offset="0.675" stop-color="#FED0FC" />
      <stop offset="1" stop-color="#FFFCD6" />
    </linearGradient>
    <linearGradient id="paint9_linear_1572_13551" x1="-3.32311e-06" y1="17.9202" x2="545.445" y2="17.9196" gradientUnits="userSpaceOnUse">
      <stop stop-color="#0D0D0D" stop-opacity="0" />
      <stop offset="0.195" stop-color="#490F0F" />
      <stop offset="0.675" stop-color="#FED0FC" />
      <stop offset="1" stop-color="#FFFCD6" />
    </linearGradient>
    <linearGradient id="paint10_linear_1572_13551" x1="-2.7809e-06" y1="17.9202" x2="456.449" y2="17.9198" gradientUnits="userSpaceOnUse">
      <stop stop-color="#0D0D0D" stop-opacity="0" />
      <stop offset="0.195" stop-color="#490F0F" />
      <stop offset="0.675" stop-color="#FED0FC" />
      <stop offset="1" stop-color="#FFFCD6" />
    </linearGradient>
    <linearGradient id="paint11_linear_1572_13551" x1="-2.88359e-06" y1="17.9202" x2="473.304" y2="17.9198" gradientUnits="userSpaceOnUse">
      <stop stop-color="#0D0D0D" stop-opacity="0" />
      <stop offset="0.195" stop-color="#490F0F" />
      <stop offset="0.675" stop-color="#FED0FC" />
      <stop offset="1" stop-color="#FFFCD6" />
    </linearGradient>
    <linearGradient id="paint12_linear_1572_13551" x1="-3.52914e-06" y1="17.9202" x2="579.261" y2="17.9195" gradientUnits="userSpaceOnUse">
      <stop stop-color="#0D0D0D" stop-opacity="0" />
      <stop offset="0.195" stop-color="#490F0F" />
      <stop offset="0.675" stop-color="#FED0FC" />
      <stop offset="1" stop-color="#FFFCD6" />
    </linearGradient>
    <linearGradient id="paint13_linear_1572_13551" x1="-2.79231e-06" y1="17.3602" x2="458.32" y2="17.3598" gradientUnits="userSpaceOnUse">
      <stop stop-color="#0D0D0D" stop-opacity="0" />
      <stop offset="0.195" stop-color="#490F0F" />
      <stop offset="0.675" stop-color="#FED0FC" />
      <stop offset="1" stop-color="#FFFCD6" />
    </linearGradient>
    <linearGradient id="paint14_linear_1572_13551" x1="-2.79013e-06" y1="17.3602" x2="457.963" y2="17.3598" gradientUnits="userSpaceOnUse">
      <stop stop-color="#0D0D0D" stop-opacity="0" />
      <stop offset="0.195" stop-color="#490F0F" />
      <stop offset="0.675" stop-color="#FED0FC" />
      <stop offset="1" stop-color="#FFFCD6" />
    </linearGradient>
    <linearGradient id="paint15_linear_1572_13551" x1="-2.97193e-06" y1="17.3602" x2="487.803" y2="17.3597" gradientUnits="userSpaceOnUse">
      <stop stop-color="#0D0D0D" stop-opacity="0" />
      <stop offset="0.195" stop-color="#490F0F" />
      <stop offset="0.675" stop-color="#FED0FC" />
      <stop offset="1" stop-color="#FFFCD6" />
    </linearGradient>
    <linearGradient id="paint16_linear_1572_13551" x1="-3.45369e-06" y1="17.3602" x2="566.878" y2="17.3595" gradientUnits="userSpaceOnUse">
      <stop stop-color="#0D0D0D" stop-opacity="0" />
      <stop offset="0.195" stop-color="#490F0F" />
      <stop offset="0.675" stop-color="#FED0FC" />
      <stop offset="1" stop-color="#FFFCD6" />
    </linearGradient>
    <linearGradient id="paint17_linear_1572_13551" x1="-2.92444e-06" y1="17.9202" x2="480.009" y2="17.9198" gradientUnits="userSpaceOnUse">
      <stop stop-color="#0D0D0D" stop-opacity="0" />
      <stop offset="0.195" stop-color="#490F0F" />
      <stop offset="0.675" stop-color="#FED0FC" />
      <stop offset="1" stop-color="#FFFCD6" />
    </linearGradient>
    <linearGradient id="paint18_linear_1572_13551" x1="-3.06522e-06" y1="17.3602" x2="503.116" y2="17.3597" gradientUnits="userSpaceOnUse">
      <stop stop-color="#0D0D0D" stop-opacity="0" />
      <stop offset="0.195" stop-color="#490F0F" />
      <stop offset="0.675" stop-color="#FED0FC" />
      <stop offset="1" stop-color="#FFFCD6" />
    </linearGradient>
    <linearGradient id="paint19_linear_1572_13551" x1="-2.83055e-06" y1="17.9202" x2="464.598" y2="17.9198" gradientUnits="userSpaceOnUse">
      <stop stop-color="#0D0D0D" stop-opacity="0" />
      <stop offset="0.195" stop-color="#490F0F" />
      <stop offset="0.675" stop-color="#FED0FC" />
      <stop offset="1" stop-color="#FFFCD6" />
    </linearGradient>
    <linearGradient id="paint20_linear_1572_13551" x1="-3.05718e-06" y1="17.9202" x2="501.795" y2="17.9197" gradientUnits="userSpaceOnUse">
      <stop stop-color="#0D0D0D" stop-opacity="0" />
      <stop offset="0.195" stop-color="#490F0F" />
      <stop offset="0.675" stop-color="#FED0FC" />
      <stop offset="1" stop-color="#FFFCD6" />
    </linearGradient>
    <clipPath id="clip0_1572_13551">
      <rect width="1016" height="699" rx="8" fill="white" />
    </clipPath>
  </defs>
</svg>
