<svg width="20" height="20" viewBox="0 0 20 20" fill="none" xmlns="http://www.w3.org/2000/svg">
<path d="M3.75058 8.75C5.47742 8.75 6.87607 7.35156 6.87607 5.625C6.87607 3.89844 5.47742 2.5 3.75058 2.5C2.02375 2.5 0.625097 3.89844 0.625097 5.625C0.625097 7.35156 2.02375 8.75 3.75058 8.75ZM3.75058 4.375C4.43819 4.375 5.00078 4.9375 5.00078 5.625C5.00078 6.3125 4.43819 6.875 3.75058 6.875C3.06298 6.875 2.50039 6.3125 2.50039 5.625C2.50039 4.9375 3.06298 4.375 3.75058 4.375ZM19.2374 12.6133C18.163 11.0195 16.0845 10.4258 14.2444 10.9844C13.6896 11.1523 13.1075 11.2461 12.498 11.2461C11.8886 11.2461 11.3065 11.1523 10.7517 10.9844C8.91155 10.4258 6.8331 11.0156 5.75871 12.6133C5.27426 13.332 4.99297 14.1953 4.99297 15.125V16.875C4.99297 17.9102 5.83294 18.75 6.86826 18.75H18.12C19.1553 18.75 19.9953 17.9102 19.9953 16.875V15.125C20.0031 14.1953 19.7218 13.332 19.2374 12.6133ZM18.1278 16.875H6.87607V15.125C6.87607 13.7031 8.01687 12.5391 9.43116 12.5C10.4274 12.9141 11.4588 13.125 12.5019 13.125C13.5451 13.125 14.5765 12.9141 15.5727 12.5C16.987 12.5391 18.1278 13.6992 18.1278 15.125V16.875ZM12.5019 10C14.9203 10 16.8776 8.04297 16.8776 5.625C16.8776 3.20703 14.9203 1.25 12.5019 1.25C10.0836 1.25 8.12627 3.20703 8.12627 5.625C8.12627 8.04297 10.0836 10 12.5019 10ZM12.5019 3.125C13.8811 3.125 15.0023 4.24609 15.0023 5.625C15.0023 7.00391 13.8811 8.125 12.5019 8.125C11.1228 8.125 10.0016 7.00391 10.0016 5.625C10.0016 4.24609 11.1228 3.125 12.5019 3.125ZM6.04782 10.5586C5.5243 10.207 4.89529 10 4.21941 10H3.28176C1.47289 10 0 11.4727 0 13.2812C0 13.7969 0.421941 14.2188 0.937646 14.2188C1.45335 14.2188 1.87529 13.7969 1.87529 13.2812C1.87529 12.5078 2.5082 11.875 3.28176 11.875H4.21941C4.39131 11.875 4.55149 11.918 4.69995 11.9727C5.06329 11.4258 5.5243 10.9531 6.04782 10.5586Z" fill="white"/>
</svg>
