<svg width="20" height="20" viewBox="0 0 20 20" fill="none" xmlns="http://www.w3.org/2000/svg">
<path d="M10.625 11.0938H8.45833C6.96198 11.0938 5.75 12.3174 5.75 13.8281C5.75 14.1289 5.99375 14.375 6.29167 14.375H12.7917C13.0908 14.375 13.3333 14.1301 13.3333 13.8281C13.3333 12.3174 12.1214 11.0938 10.625 11.0938ZM9.54167 10C10.7384 10 11.7083 9.02075 11.7083 7.8125C11.7083 6.60425 10.7384 5.625 9.54167 5.625C8.34526 5.625 7.375 6.60425 7.375 7.8125C7.375 9.02075 8.34661 10 9.54167 10ZM18.2083 12.1875H17.6667V15.4688H18.2083C18.5075 15.4688 18.75 15.2239 18.75 14.9219V12.7344C18.75 12.4336 18.5063 12.1875 18.2083 12.1875ZM18.2083 3.4375H17.6667V6.71875H18.2083C18.5063 6.71875 18.75 6.47266 18.75 6.17188V3.98438C18.75 3.68223 18.5063 3.4375 18.2083 3.4375ZM18.2083 7.8125H17.6667V11.0938H18.2083C18.5063 11.0938 18.75 10.8477 18.75 10.5469V8.35938C18.75 8.05859 18.5063 7.8125 18.2083 7.8125ZM14.4167 1.25H4.66667C3.46992 1.25 2.5 2.22925 2.5 3.4375V16.5625C2.5 17.7708 3.46992 18.75 4.66667 18.75H14.4167C15.6134 18.75 16.5833 17.7708 16.5833 16.5625V3.4375C16.5833 2.22925 15.6117 1.25 14.4167 1.25ZM14.9583 16.5625C14.9583 16.8645 14.7158 17.1094 14.4167 17.1094H4.66667C4.36753 17.1094 4.125 16.8645 4.125 16.5625V3.4375C4.125 3.13542 4.36753 2.89062 4.66667 2.89062H14.4167C14.7158 2.89062 14.9583 3.13542 14.9583 3.4375V16.5625Z" fill="white"/>
</svg>
