<svg width="20" height="20" viewBox="0 0 20 20" fill="none" xmlns="http://www.w3.org/2000/svg">
<path d="M13.6842 12.1053H11.5789C10.9977 12.1053 10.5263 12.5767 10.5263 13.1579V17.3685C10.5263 17.9497 10.9977 18.4211 11.5789 18.4211H13.6842C14.2655 18.4211 14.7368 17.9497 14.7368 17.3685V13.1579C14.7368 12.5767 14.2655 12.1053 13.6842 12.1053ZM13.1579 16.8421H12.1053V13.6842H13.1579V16.8421ZM18.9474 7.89477H16.8421C16.2609 7.89477 15.7895 8.36615 15.7895 8.9474V17.3685C15.7895 17.9497 16.2609 18.4211 16.8421 18.4211H18.9474C19.5286 18.4211 20 17.9497 20 17.3685V8.9474C20 8.36615 19.5286 7.89477 18.9474 7.89477ZM18.4211 16.8421H17.3684V9.47372H18.4211V16.8421ZM8.42105 7.89477H6.31579C5.73454 7.89477 5.26316 8.36615 5.26316 8.9474V17.3685C5.26316 17.9497 5.73454 18.4211 6.31579 18.4211H8.42105C9.0023 18.4211 9.47368 17.9497 9.47368 17.3685V8.9474C9.47368 8.36615 9.0023 7.89477 8.42105 7.89477ZM7.89474 16.8421H6.84211V9.47372H7.89474V16.8421ZM3.15789 13.1579H1.05263C0.471382 13.1579 0 13.6293 0 14.2106V17.3685C0 17.9497 0.471382 18.4211 1.05263 18.4211H3.15789C3.73914 18.4211 4.21053 17.9497 4.21053 17.3685V14.2106C4.21053 13.6293 3.73914 13.1579 3.15789 13.1579ZM2.63158 16.8421H1.57895V14.7369H2.63158V16.8421ZM2.10526 10C2.9773 10 3.68421 9.29312 3.68421 8.42109C3.68421 8.28062 3.65987 8.14674 3.62566 8.01714L6.96447 4.67832C7.09408 4.71253 7.22796 4.73687 7.36842 4.73687C7.57072 4.73687 7.76217 4.69543 7.94013 4.62602L11.0763 7.1349C11.0648 7.21155 11.053 7.28852 11.053 7.36845C11.053 8.24049 11.7599 8.9474 12.6319 8.9474C13.5039 8.9474 14.2109 8.24049 14.2109 7.36845C14.2109 7.28852 14.1987 7.21187 14.1875 7.13523L17.3237 4.62635C17.501 4.69543 17.6924 4.73687 17.8947 4.73687C18.7668 4.73687 19.4737 4.02997 19.4737 3.15793C19.4737 2.28589 18.7668 1.57898 17.8947 1.57898C17.0227 1.57898 16.3158 2.28589 16.3158 3.15793C16.3158 3.23786 16.328 3.31451 16.3391 3.39115L13.203 5.90003C13.0253 5.83062 12.8336 5.78918 12.6313 5.78918C12.4289 5.78918 12.2375 5.83062 12.0595 5.90003L8.92401 3.39148C8.93553 3.31483 8.94737 3.23786 8.94737 3.15793C8.94737 2.28589 8.24046 1.57898 7.36842 1.57898C6.49638 1.57898 5.78947 2.28589 5.78947 3.15793C5.78947 3.29839 5.81382 3.43227 5.84803 3.56187L2.50921 6.90069C2.37961 6.86648 2.24572 6.84214 2.10526 6.84214C1.23322 6.84214 0.526316 7.54905 0.526316 8.42109C0.526316 9.29312 1.23322 10 2.10526 10Z" fill="white"/>
</svg>
