<svg width="20" height="21" viewBox="0 0 20 21" fill="none" xmlns="http://www.w3.org/2000/svg">
<path d="M11.7432 12.1406H8.25684C5.00977 12.1406 2.34375 14.8066 2.34375 18.0537C2.34375 18.7031 2.89062 19.25 3.54004 19.25H16.46C17.1094 19.25 17.6562 18.7031 17.6562 18.0537C17.6562 14.8066 14.9902 12.1406 11.7432 12.1406ZM4.01855 17.6094C4.22363 15.4561 6.06934 13.7812 8.25684 13.7812H11.7432C13.9307 13.7812 15.7764 15.4561 15.9814 17.6094H4.01855ZM10 10.5C12.4268 10.5 14.375 8.55176 14.375 6.125C14.375 3.69824 12.4268 1.75 10 1.75C7.57324 1.75 5.625 3.69824 5.625 6.125C5.625 8.55176 7.57324 10.5 10 10.5ZM10 3.39062C11.5039 3.39062 12.7344 4.62109 12.7344 6.125C12.7344 7.62891 11.5039 8.85938 10 8.85938C8.49609 8.85938 7.26562 7.62891 7.26562 6.125C7.26562 4.62109 8.49609 3.39062 10 3.39062Z" fill="white"/>
</svg>
