<svg width="1112" height="326" viewBox="0 0 1112 326" fill="none" xmlns="http://www.w3.org/2000/svg">
<g clip-path="url(#clip0_2697_6156)">
<g clip-path="url(#clip1_2697_6156)">
<rect width="1143.84" height="641.739" transform="translate(-26.2899 -172.739)" fill="#000212"/>
<g filter="url(#filter0_f_2697_6156)">
<circle cx="161.775" cy="279.746" r="172.616" fill="#5203B7" fill-opacity="0.4"/>
</g>
<g filter="url(#filter1_f_2697_6156)">
<circle cx="739.637" cy="278.261" r="427.826" fill="#5203B7" fill-opacity="0.4"/>
</g>
</g>
<mask id="mask0_2697_6156" style="mask-type:alpha" maskUnits="userSpaceOnUse" x="187" y="-281" width="714" height="357">
<rect x="900.782" y="75.522" width="713.043" height="356.522" transform="rotate(-180 900.782 75.522)" fill="url(#paint0_radial_2697_6156)"/>
</mask>
<g mask="url(#mask0_2697_6156)">
</g>
<g clip-path="url(#clip2_2697_6156)">
<rect opacity="0.4" x="900.782" y="75.522" width="713.043" height="356.522" transform="rotate(-180 900.782 75.522)" fill="url(#paint1_radial_2697_6156)"/>
<g opacity="0.7">
<path d="M532.432 9.42746C532.271 9.53233 532.225 9.74834 532.329 9.90993C532.434 10.0715 532.65 10.1175 532.812 10.0126C532.973 9.90777 533.019 9.69176 532.915 9.53017C532.81 9.36858 532.594 9.3226 532.432 9.42746Z" fill="white"/>
<path opacity="0.3" d="M521.412 16.1626C521.25 16.2674 521.204 16.4834 521.309 16.645C521.414 16.8066 521.63 16.8526 521.791 16.7477C521.953 16.6429 521.999 16.4269 521.894 16.2653C521.789 16.1037 521.573 16.0577 521.412 16.1626Z" fill="white"/>
<path d="M489.257 13.7331C489.015 13.8905 488.946 14.2147 489.103 14.4572C489.26 14.6998 489.585 14.7688 489.827 14.6114C490.07 14.454 490.139 14.1298 489.981 13.8873C489.824 13.6448 489.5 13.5757 489.257 13.7331Z" fill="white"/>
<path d="M492.678 34.3911C492.436 34.5485 492.367 34.8727 492.524 35.1152C492.682 35.3577 493.006 35.4267 493.248 35.2693C493.491 35.112 493.56 34.7878 493.402 34.5452C493.245 34.3027 492.921 34.2337 492.678 34.3911Z" fill="white"/>
<path d="M577.866 14.0532C577.542 14.2631 577.45 14.6955 577.66 15.019C577.87 15.3424 578.302 15.4345 578.626 15.2246C578.949 15.0146 579.041 14.5823 578.831 14.2588C578.621 13.9354 578.189 13.8433 577.866 14.0532Z" fill="white"/>
<path opacity="0.3" d="M538.333 17.2439C538.009 17.4538 537.917 17.8862 538.127 18.2096C538.337 18.5331 538.769 18.6251 539.093 18.4152C539.416 18.2053 539.508 17.7729 539.298 17.4495C539.088 17.126 538.656 17.034 538.333 17.2439Z" fill="white"/>
<path opacity="0.3" d="M495.866 15.2666C495.542 15.4765 495.45 15.9089 495.66 16.2323C495.87 16.5558 496.302 16.6478 496.626 16.4379C496.949 16.228 497.041 15.7956 496.831 15.4722C496.621 15.1487 496.189 15.0567 495.866 15.2666Z" fill="white"/>
<path opacity="0.11" d="M513.567 16.2598C513.243 16.4697 513.151 16.9021 513.361 17.2255C513.571 17.549 514.003 17.641 514.327 17.4311C514.65 17.2212 514.742 16.7888 514.532 16.4654C514.322 16.1419 513.89 16.0499 513.567 16.2598Z" fill="white"/>
<path d="M431.072 7.94285C430.829 8.10024 430.76 8.42442 430.917 8.66695C431.075 8.90947 431.399 8.97849 431.642 8.8211C431.884 8.66372 431.953 8.33953 431.796 8.09701C431.638 7.85448 431.314 7.78546 431.072 7.94285Z" fill="white"/>
<path d="M370.391 26.9382C370.23 27.0431 370.184 27.2591 370.289 27.4207C370.393 27.5822 370.609 27.6282 370.771 27.5234C370.933 27.4185 370.979 27.2025 370.874 27.0409C370.769 26.8793 370.553 26.8333 370.391 26.9382Z" fill="white"/>
<path d="M348.744 63.4524C348.582 63.5572 348.536 63.7732 348.641 63.9348C348.746 64.0964 348.962 64.1424 349.124 64.0375C349.285 63.9327 349.331 63.7167 349.226 63.5551C349.122 63.3935 348.906 63.3475 348.744 63.4524Z" fill="white"/>
<path d="M323.459 49.4924C323.297 49.5973 323.251 49.8133 323.356 49.9749C323.461 50.1365 323.677 50.1824 323.838 50.0776C324 49.9727 324.046 49.7567 323.941 49.5951C323.836 49.4335 323.62 49.3875 323.459 49.4924Z" fill="white"/>
<path opacity="0.11" d="M373.649 14.0092C373.488 14.1141 373.442 14.3301 373.547 14.4917C373.652 14.6533 373.868 14.6993 374.029 14.5944C374.191 14.4895 374.237 14.2736 374.132 14.112C374.027 13.9504 373.811 13.9044 373.649 14.0092Z" fill="white"/>
<path d="M470.649 5.14207C470.487 5.24694 470.441 5.46294 470.546 5.62453C470.651 5.78612 470.867 5.83211 471.029 5.72724C471.19 5.62238 471.236 5.40636 471.131 5.24477C471.027 5.08318 470.811 5.03721 470.649 5.14207Z" fill="white"/>
<path d="M425.949 34.9816C425.787 35.0865 425.742 35.3025 425.846 35.4641C425.951 35.6257 426.167 35.6717 426.329 35.5668C426.49 35.462 426.536 35.246 426.432 35.0844C426.327 34.9228 426.111 34.8768 425.949 34.9816Z" fill="white"/>
<path opacity="0.3" d="M460.817 1.53685C460.655 1.64171 460.609 1.85771 460.714 2.0193C460.819 2.18089 461.035 2.22688 461.197 2.12202C461.358 2.01715 461.404 1.80113 461.299 1.63954C461.194 1.47795 460.978 1.43198 460.817 1.53685Z" fill="white"/>
<path opacity="0.3" d="M337.724 70.1868C337.562 70.2916 337.516 70.5076 337.621 70.6692C337.726 70.8308 337.942 70.8768 338.104 70.7719C338.265 70.6671 338.311 70.451 338.206 70.2894C338.102 70.1279 337.886 70.0819 337.724 70.1868Z" fill="white"/>
<path opacity="0.11" d="M392.641 51.6052C392.479 51.71 392.433 51.9261 392.538 52.0877C392.643 52.2492 392.859 52.2952 393.02 52.1904C393.182 52.0855 393.228 51.8695 393.123 51.7079C393.018 51.5463 392.802 51.5003 392.641 51.6052Z" fill="white"/>
<path opacity="0.11" d="M337.459 52.4724C337.298 52.5772 337.252 52.7932 337.357 52.9548C337.462 53.1164 337.678 53.1624 337.839 53.0575C338.001 52.9527 338.047 52.7367 337.942 52.5751C337.837 52.4135 337.621 52.3675 337.459 52.4724Z" fill="white"/>
<path opacity="0.3" d="M409.808 1.7754C409.485 1.98531 409.393 2.41769 409.603 2.74114C409.813 3.0646 410.245 3.15665 410.569 2.94674C410.892 2.73683 410.984 2.30444 410.774 1.98098C410.564 1.65752 410.132 1.56549 409.808 1.7754Z" fill="white"/>
<path opacity="0.11" d="M398.235 21.7651C397.912 21.975 397.82 22.4074 398.03 22.7309C398.24 23.0543 398.672 23.1464 398.995 22.9365C399.319 22.7266 399.411 22.2942 399.201 21.9707C398.991 21.6473 398.559 21.5552 398.235 21.7651Z" fill="white"/>
<path d="M405.029 31.9155C404.786 32.0729 404.717 32.3971 404.875 32.6396C405.032 32.8821 405.356 32.9511 405.599 32.7938C405.841 32.6364 405.91 32.3122 405.753 32.0697C405.596 31.8271 405.271 31.7581 405.029 31.9155Z" fill="white"/>
<path d="M304.298 45.2859C304.055 45.4433 303.986 45.7674 304.143 46.01C304.301 46.2525 304.625 46.3215 304.868 46.1641C305.11 46.0067 305.179 45.6825 305.022 45.44C304.864 45.1975 304.54 45.1285 304.298 45.2859Z" fill="white"/>
<path d="M415.279 16.9431C415.036 17.1005 414.967 17.4247 415.125 17.6672C415.282 17.9097 415.606 17.9787 415.849 17.8213C416.091 17.664 416.16 17.3398 416.003 17.0972C415.846 16.8547 415.521 16.7857 415.279 16.9431Z" fill="white"/>
<path d="M305.57 67.7575C305.327 67.9149 305.258 68.2391 305.415 68.4816C305.573 68.7242 305.897 68.7932 306.139 68.6358C306.382 68.4784 306.451 68.1542 306.294 67.9117C306.136 67.6692 305.812 67.6002 305.57 67.7575Z" fill="white"/>
<path opacity="0.3" d="M380.692 47.2959C380.369 47.5058 380.277 47.9382 380.487 48.2617C380.697 48.5851 381.129 48.6772 381.453 48.4673C381.776 48.2573 381.868 47.8249 381.658 47.5015C381.448 47.178 381.016 47.086 380.692 47.2959Z" fill="white"/>
<path d="M394.178 68.0779C393.855 68.2878 393.763 68.7202 393.973 69.0436C394.182 69.3671 394.615 69.4591 394.938 69.2492C395.262 69.0393 395.354 68.6069 395.144 68.2835C394.934 67.96 394.502 67.868 394.178 68.0779Z" fill="white"/>
<path d="M361.434 50.6384C361.192 50.7958 361.123 51.12 361.28 51.3625C361.437 51.605 361.761 51.674 362.004 51.5167C362.247 51.3593 362.316 51.0351 362.158 50.7926C362.001 50.55 361.677 50.481 361.434 50.6384Z" fill="white"/>
<path opacity="0.3" d="M354.645 71.2678C354.322 71.4777 354.23 71.9101 354.439 72.2336C354.649 72.557 355.082 72.6491 355.405 72.4392C355.729 72.2292 355.821 71.7969 355.611 71.4734C355.401 71.15 354.968 71.0579 354.645 71.2678Z" fill="white"/>
<path opacity="0.3" d="M312.178 69.291C311.854 69.5009 311.762 69.9333 311.972 70.2568C312.182 70.5802 312.614 70.6723 312.938 70.4623C313.261 70.2524 313.353 69.8201 313.143 69.4966C312.933 69.1732 312.501 69.0811 312.178 69.291Z" fill="white"/>
<path opacity="0.3" d="M346.048 46.4805C345.724 46.6904 345.632 47.1228 345.842 47.4462C346.052 47.7697 346.484 47.8617 346.808 47.6518C347.131 47.4419 347.223 47.0095 347.013 46.6861C346.804 46.3626 346.371 46.2706 346.048 46.4805Z" fill="white"/>
<path opacity="0.11" d="M329.879 70.2842C329.555 70.4941 329.463 70.9265 329.673 71.2499C329.883 71.5734 330.316 71.6654 330.639 71.4555C330.962 71.2456 331.055 70.8132 330.845 70.4898C330.635 70.1663 330.202 70.0743 329.879 70.2842Z" fill="white"/>
</g>
</g>
<g filter="url(#filter2_f_2697_6156)">
<ellipse cx="-3.21845" cy="140.748" rx="124.501" ry="124.501" transform="rotate(-90 -3.21845 140.748)" fill="#3C459A" fill-opacity="0.5"/>
</g>
<mask id="mask1_2697_6156" style="mask-type:alpha" maskUnits="userSpaceOnUse" x="-507" y="-161" width="1009" height="603">
<rect x="-507" y="-160.261" width="1008.61" height="602.016" fill="url(#paint2_radial_2697_6156)"/>
</mask>
<g mask="url(#mask1_2697_6156)">
<rect x="-45.2438" y="-67.2791" width="83.0005" height="83.0005" stroke="white" stroke-width="1.05064"/>
<rect x="37.7568" y="-67.2791" width="83.0005" height="83.0005" stroke="white" stroke-width="1.05064"/>
<rect x="120.757" y="-67.2791" width="83.0005" height="83.0005" stroke="white" stroke-width="1.05064"/>
<rect x="203.758" y="-67.2791" width="83.0005" height="83.0005" stroke="white" stroke-width="1.05064"/>
<rect x="286.758" y="-67.2791" width="83.0005" height="83.0005" stroke="white" stroke-width="1.05064"/>
<rect x="-45.2438" y="15.7214" width="83.0005" height="83.0005" fill="white" fill-opacity="0.25" stroke="white" stroke-width="1.05064"/>
<rect x="37.7568" y="15.7214" width="83.0005" height="83.0005" stroke="white" stroke-width="1.05064"/>
<rect x="120.757" y="15.7214" width="83.0005" height="83.0005" fill="white" fill-opacity="0.25" stroke="white" stroke-width="1.05064"/>
<rect x="203.758" y="15.7214" width="83.0005" height="83.0005" stroke="white" stroke-width="1.05064"/>
<rect x="286.758" y="15.7214" width="83.0005" height="83.0005" stroke="white" stroke-width="1.05064"/>
<rect x="-45.2438" y="98.7219" width="83.0005" height="83.0005" stroke="white" stroke-width="1.05064"/>
<rect x="37.7568" y="98.7219" width="83.0005" height="83.0005" stroke="white" stroke-width="1.05064"/>
<rect x="120.757" y="98.7219" width="83.0005" height="83.0005" stroke="white" stroke-width="1.05064"/>
<rect x="203.758" y="98.7219" width="83.0005" height="83.0005" stroke="white" stroke-width="1.05064"/>
<rect x="286.758" y="98.7219" width="83.0005" height="83.0005" stroke="white" stroke-width="1.05064"/>
<rect x="-45.2438" y="181.723" width="83.0005" height="83.0005" stroke="white" stroke-width="1.05064"/>
<rect x="37.7568" y="181.723" width="83.0005" height="83.0005" stroke="white" stroke-width="1.05064"/>
<rect x="120.757" y="181.723" width="83.0005" height="83.0005" stroke="white" stroke-width="1.05064"/>
<rect x="203.758" y="181.723" width="83.0005" height="83.0005" stroke="white" stroke-width="1.05064"/>
<rect x="286.758" y="181.723" width="83.0005" height="83.0005" stroke="white" stroke-width="1.05064"/>
<rect x="-45.2438" y="264.723" width="83.0005" height="83.0005" stroke="white" stroke-width="1.05064"/>
<rect x="37.7568" y="264.723" width="83.0005" height="83.0005" stroke="white" stroke-width="1.05064"/>
<rect x="120.757" y="264.723" width="83.0005" height="83.0005" stroke="white" stroke-width="1.05064"/>
<rect x="203.758" y="264.723" width="83.0005" height="83.0005" stroke="white" stroke-width="1.05064"/>
<rect x="286.758" y="264.723" width="83.0005" height="83.0005" stroke="white" stroke-width="1.05064"/>
</g>
<g filter="url(#filter3_f_2697_6156)">
<ellipse cx="1114.48" cy="140.748" rx="124.501" ry="124.501" transform="rotate(-90 1114.48 140.748)" fill="#3C459A" fill-opacity="0.5"/>
</g>
<mask id="mask2_2697_6156" style="mask-type:alpha" maskUnits="userSpaceOnUse" x="610" y="-161" width="1010" height="603">
<rect x="610.695" y="-160.261" width="1008.61" height="602.016" fill="url(#paint3_radial_2697_6156)"/>
</mask>
<g mask="url(#mask2_2697_6156)">
<rect x="740.449" y="-67.2791" width="83.0005" height="83.0005" stroke="white" stroke-width="1.05064"/>
<rect x="823.45" y="-67.2791" width="83.0005" height="83.0005" stroke="white" stroke-width="1.05064"/>
<rect x="906.45" y="-67.2791" width="83.0005" height="83.0005" stroke="white" stroke-width="1.05064"/>
<rect x="989.451" y="-67.2791" width="83.0005" height="83.0005" stroke="white" stroke-width="1.05064"/>
<rect x="1072.45" y="-67.2791" width="83.0005" height="83.0005" stroke="white" stroke-width="1.05064"/>
<rect x="740.449" y="15.7214" width="83.0005" height="83.0005" stroke="white" stroke-width="1.05064"/>
<rect x="823.45" y="15.7214" width="83.0005" height="83.0005" stroke="white" stroke-width="1.05064"/>
<rect x="906.45" y="15.7214" width="83.0005" height="83.0005" stroke="white" stroke-width="1.05064"/>
<rect x="989.451" y="15.7214" width="83.0005" height="83.0005" stroke="white" stroke-width="1.05064"/>
<rect x="1072.45" y="15.7214" width="83.0005" height="83.0005" fill="white" fill-opacity="0.25" stroke="white" stroke-width="1.05064"/>
<rect x="740.449" y="98.7219" width="83.0005" height="83.0005" stroke="white" stroke-width="1.05064"/>
<rect x="823.45" y="98.7219" width="83.0005" height="83.0005" stroke="white" stroke-width="1.05064"/>
<rect x="906.45" y="98.7219" width="83.0005" height="83.0005" stroke="white" stroke-width="1.05064"/>
<rect x="989.451" y="98.7219" width="83.0005" height="83.0005" stroke="white" stroke-width="1.05064"/>
<rect x="1072.45" y="98.7219" width="83.0005" height="83.0005" stroke="white" stroke-width="1.05064"/>
<rect x="740.449" y="181.723" width="83.0005" height="83.0005" stroke="white" stroke-width="1.05064"/>
<rect x="823.45" y="181.723" width="83.0005" height="83.0005" stroke="white" stroke-width="1.05064"/>
<rect x="906.45" y="181.723" width="83.0005" height="83.0005" stroke="white" stroke-width="1.05064"/>
<rect x="989.451" y="181.723" width="83.0005" height="83.0005" fill="white" fill-opacity="0.25" stroke="white" stroke-width="1.05064"/>
<rect x="1072.45" y="181.723" width="83.0005" height="83.0005" stroke="white" stroke-width="1.05064"/>
<rect x="740.449" y="264.723" width="83.0005" height="83.0005" stroke="white" stroke-width="1.05064"/>
<rect x="823.45" y="264.723" width="83.0005" height="83.0005" stroke="white" stroke-width="1.05064"/>
<rect x="906.45" y="264.723" width="83.0005" height="83.0005" stroke="white" stroke-width="1.05064"/>
<rect x="989.451" y="264.723" width="83.0005" height="83.0005" stroke="white" stroke-width="1.05064"/>
<rect x="1072.45" y="264.723" width="83.0005" height="83.0005" stroke="white" stroke-width="1.05064"/>
</g>
<path d="M304.661 154V130.64H309.109V154H304.661ZM308.469 154V150.16H319.061V154H308.469ZM308.469 144.048V140.208H318.229V144.048H308.469ZM308.469 134.48V130.64H318.805V134.48H308.469ZM321.388 154L327.052 144.72L326.956 145.456L321.612 136.624H326.444L329.932 142.736H330.412L333.708 136.624H338.252L333.196 145.424L333.292 144.784L339.276 154H334.444L330.316 147.44H329.836L325.932 154H321.388ZM342.153 160.4V136.624H345.673V144.112L345.129 144.08C345.214 142.309 345.577 140.827 346.217 139.632C346.878 138.437 347.753 137.552 348.841 136.976C349.929 136.379 351.145 136.08 352.489 136.08C353.726 136.08 354.836 136.304 355.817 136.752C356.82 137.2 357.673 137.829 358.377 138.64C359.102 139.451 359.657 140.4 360.041 141.488C360.425 142.555 360.617 143.707 360.617 144.944V145.616C360.617 146.875 360.425 148.048 360.041 149.136C359.678 150.203 359.134 151.152 358.409 151.984C357.705 152.795 356.852 153.435 355.849 153.904C354.846 154.352 353.726 154.576 352.489 154.576C351.188 154.576 349.993 154.309 348.905 153.776C347.838 153.221 346.974 152.379 346.313 151.248C345.652 150.096 345.278 148.613 345.193 146.8L346.601 148.944V160.4H342.153ZM351.369 150.832C352.329 150.832 353.161 150.597 353.865 150.128C354.59 149.659 355.156 149.008 355.561 148.176C355.966 147.323 356.169 146.363 356.169 145.296C356.169 144.187 355.966 143.227 355.561 142.416C355.156 141.605 354.59 140.976 353.865 140.528C353.161 140.059 352.329 139.824 351.369 139.824C350.494 139.824 349.684 140.016 348.937 140.4C348.212 140.784 347.614 141.349 347.145 142.096C346.697 142.843 346.473 143.739 346.473 144.784V146.064C346.473 147.067 346.708 147.92 347.177 148.624C347.646 149.328 348.254 149.872 349.001 150.256C349.748 150.64 350.537 150.832 351.369 150.832ZM364.752 154V130.64H369.2V154H364.752ZM362.576 133.968V130.64H369.2V133.968H362.576ZM382.63 154.608C381.094 154.608 379.739 154.363 378.566 153.872C377.393 153.381 376.401 152.72 375.59 151.888C374.779 151.035 374.161 150.075 373.734 149.008C373.329 147.941 373.126 146.832 373.126 145.68V145.008C373.126 143.813 373.339 142.683 373.766 141.616C374.214 140.528 374.843 139.568 375.654 138.736C376.486 137.883 377.489 137.221 378.662 136.752C379.835 136.261 381.158 136.016 382.63 136.016C384.102 136.016 385.425 136.261 386.598 136.752C387.771 137.221 388.763 137.883 389.574 138.736C390.406 139.568 391.035 140.528 391.462 141.616C391.889 142.683 392.102 143.813 392.102 145.008V145.68C392.102 146.832 391.889 147.941 391.462 149.008C391.057 150.075 390.449 151.035 389.638 151.888C388.827 152.72 387.835 153.381 386.662 153.872C385.489 154.363 384.145 154.608 382.63 154.608ZM382.63 150.8C383.718 150.8 384.635 150.565 385.382 150.096C386.129 149.605 386.694 148.955 387.078 148.144C387.462 147.312 387.654 146.373 387.654 145.328C387.654 144.261 387.451 143.323 387.046 142.512C386.662 141.68 386.086 141.029 385.318 140.56C384.571 140.069 383.675 139.824 382.63 139.824C381.585 139.824 380.678 140.069 379.91 140.56C379.163 141.029 378.587 141.68 378.182 142.512C377.777 143.323 377.574 144.261 377.574 145.328C377.574 146.373 377.766 147.312 378.15 148.144C378.555 148.955 379.131 149.605 379.878 150.096C380.625 150.565 381.542 150.8 382.63 150.8ZM395.997 154V136.624H399.517V143.984H399.421C399.421 141.488 399.954 139.6 401.021 138.32C402.087 137.04 403.655 136.4 405.725 136.4H406.365V140.272H405.149C403.655 140.272 402.493 140.677 401.661 141.488C400.85 142.277 400.445 143.429 400.445 144.944V154H395.997ZM416.992 154.608C415.498 154.608 414.186 154.352 413.056 153.84C411.946 153.328 411.018 152.645 410.272 151.792C409.546 150.917 408.992 149.947 408.608 148.88C408.245 147.813 408.064 146.725 408.064 145.616V145.008C408.064 143.856 408.245 142.747 408.608 141.68C408.992 140.592 409.546 139.632 410.272 138.8C411.018 137.947 411.936 137.275 413.024 136.784C414.112 136.272 415.37 136.016 416.8 136.016C418.677 136.016 420.245 136.432 421.504 137.264C422.784 138.075 423.744 139.152 424.384 140.496C425.024 141.819 425.344 143.248 425.344 144.784V146.384H409.952V143.664H422.56L421.184 145.008C421.184 143.899 421.024 142.949 420.704 142.16C420.384 141.371 419.893 140.763 419.232 140.336C418.592 139.909 417.781 139.696 416.8 139.696C415.818 139.696 414.986 139.92 414.304 140.368C413.621 140.816 413.098 141.467 412.736 142.32C412.394 143.152 412.224 144.155 412.224 145.328C412.224 146.416 412.394 147.387 412.736 148.24C413.077 149.072 413.6 149.733 414.304 150.224C415.008 150.693 415.904 150.928 416.992 150.928C418.08 150.928 418.965 150.715 419.648 150.288C420.33 149.84 420.768 149.296 420.96 148.656H425.056C424.8 149.851 424.309 150.896 423.583 151.792C422.858 152.688 421.93 153.381 420.8 153.872C419.69 154.363 418.421 154.608 416.992 154.608ZM443.518 154.224C441.918 154.224 440.595 154.021 439.55 153.616C438.526 153.189 437.758 152.485 437.246 151.504C436.734 150.501 436.478 149.157 436.478 147.472L436.51 131.728H440.67L440.638 147.76C440.638 148.613 440.862 149.275 441.31 149.744C441.779 150.192 442.44 150.416 443.294 150.416H446.014V154.224H443.518ZM433.726 139.888V136.624H446.014V139.888H433.726ZM449.747 154V130.64H454.195V144.272H453.427C453.427 142.523 453.651 141.04 454.099 139.824C454.547 138.608 455.208 137.68 456.083 137.04C456.979 136.4 458.109 136.08 459.475 136.08H459.667C461.651 136.08 463.155 136.763 464.179 138.128C465.203 139.493 465.715 141.477 465.715 144.08V154H461.267V143.664C461.267 142.555 460.947 141.68 460.307 141.04C459.688 140.4 458.867 140.08 457.843 140.08C456.755 140.08 455.869 140.443 455.187 141.168C454.525 141.872 454.195 142.8 454.195 143.952V154H449.747ZM478.273 154.608C476.779 154.608 475.467 154.352 474.337 153.84C473.227 153.328 472.299 152.645 471.553 151.792C470.827 150.917 470.273 149.947 469.889 148.88C469.526 147.813 469.345 146.725 469.345 145.616V145.008C469.345 143.856 469.526 142.747 469.889 141.68C470.273 140.592 470.827 139.632 471.553 138.8C472.299 137.947 473.217 137.275 474.305 136.784C475.393 136.272 476.651 136.016 478.081 136.016C479.958 136.016 481.526 136.432 482.785 137.264C484.065 138.075 485.025 139.152 485.665 140.496C486.305 141.819 486.625 143.248 486.625 144.784V146.384H471.233V143.664H483.841L482.465 145.008C482.465 143.899 482.305 142.949 481.985 142.16C481.665 141.371 481.174 140.763 480.513 140.336C479.873 139.909 479.062 139.696 478.081 139.696C477.099 139.696 476.267 139.92 475.585 140.368C474.902 140.816 474.379 141.467 474.017 142.32C473.675 143.152 473.505 144.155 473.505 145.328C473.505 146.416 473.675 147.387 474.017 148.24C474.358 149.072 474.881 149.733 475.585 150.224C476.289 150.693 477.185 150.928 478.273 150.928C479.361 150.928 480.246 150.715 480.929 150.288C481.611 149.84 482.049 149.296 482.241 148.656H486.337C486.081 149.851 485.59 150.896 484.865 151.792C484.139 152.688 483.211 153.381 482.081 153.872C480.971 154.363 479.702 154.608 478.273 154.608ZM507.455 154.576C506.025 154.576 504.767 154.277 503.679 153.68C502.591 153.061 501.737 152.165 501.119 150.992C500.5 149.819 500.159 148.4 500.095 146.736H500.767V154H497.247V130.64H501.695V142.32L500.511 144.144C500.596 142.352 500.948 140.859 501.567 139.664C502.207 138.469 503.06 137.573 504.127 136.976C505.193 136.379 506.399 136.08 507.743 136.08C508.937 136.08 510.025 136.304 511.007 136.752C511.988 137.2 512.831 137.829 513.535 138.64C514.239 139.429 514.772 140.357 515.135 141.424C515.519 142.491 515.711 143.653 515.711 144.912V145.584C515.711 146.843 515.519 148.016 515.135 149.104C514.751 150.192 514.196 151.152 513.471 151.984C512.745 152.795 511.871 153.435 510.847 153.904C509.844 154.352 508.713 154.576 507.455 154.576ZM506.463 150.832C507.423 150.832 508.255 150.597 508.959 150.128C509.684 149.637 510.249 148.976 510.655 148.144C511.06 147.312 511.263 146.352 511.263 145.264C511.263 144.155 511.06 143.195 510.655 142.384C510.249 141.573 509.684 140.944 508.959 140.496C508.255 140.048 507.423 139.824 506.463 139.824C505.588 139.824 504.777 140.016 504.031 140.4C503.305 140.784 502.708 141.349 502.239 142.096C501.791 142.843 501.567 143.739 501.567 144.784V146.064C501.567 147.067 501.801 147.92 502.271 148.624C502.74 149.328 503.348 149.872 504.095 150.256C504.841 150.64 505.631 150.832 506.463 150.832ZM527.398 154.608C525.904 154.608 524.592 154.352 523.462 153.84C522.352 153.328 521.424 152.645 520.678 151.792C519.952 150.917 519.398 149.947 519.014 148.88C518.651 147.813 518.47 146.725 518.47 145.616V145.008C518.47 143.856 518.651 142.747 519.014 141.68C519.398 140.592 519.952 139.632 520.678 138.8C521.424 137.947 522.342 137.275 523.43 136.784C524.518 136.272 525.776 136.016 527.206 136.016C529.083 136.016 530.651 136.432 531.91 137.264C533.19 138.075 534.15 139.152 534.79 140.496C535.43 141.819 535.75 143.248 535.75 144.784V146.384H520.358V143.664H532.966L531.59 145.008C531.59 143.899 531.43 142.949 531.11 142.16C530.79 141.371 530.299 140.763 529.638 140.336C528.998 139.909 528.187 139.696 527.206 139.696C526.224 139.696 525.392 139.92 524.71 140.368C524.027 140.816 523.504 141.467 523.142 142.32C522.8 143.152 522.63 144.155 522.63 145.328C522.63 146.416 522.8 147.387 523.142 148.24C523.483 149.072 524.006 149.733 524.71 150.224C525.414 150.693 526.31 150.928 527.398 150.928C528.486 150.928 529.371 150.715 530.054 150.288C530.736 149.84 531.174 149.296 531.366 148.656H535.462C535.206 149.851 534.715 150.896 533.99 151.792C533.264 152.688 532.336 153.381 531.206 153.872C530.096 154.363 528.827 154.608 527.398 154.608ZM545.77 154.544C543.38 154.544 541.503 154.043 540.138 153.04C538.794 152.016 538.09 150.608 538.026 148.816H542.026C542.09 149.413 542.42 149.957 543.018 150.448C543.615 150.939 544.554 151.184 545.834 151.184C546.9 151.184 547.743 150.992 548.362 150.608C549.002 150.224 549.322 149.701 549.322 149.04C549.322 148.464 549.076 148.005 548.586 147.664C548.116 147.323 547.306 147.099 546.154 146.992L544.618 146.832C542.676 146.619 541.183 146.064 540.138 145.168C539.092 144.272 538.57 143.077 538.57 141.584C538.57 140.389 538.868 139.387 539.466 138.576C540.063 137.765 540.884 137.157 541.93 136.752C542.996 136.325 544.212 136.112 545.578 136.112C547.711 136.112 549.439 136.581 550.762 137.52C552.084 138.459 552.778 139.835 552.842 141.648H548.842C548.799 141.051 548.5 140.539 547.946 140.112C547.391 139.685 546.591 139.472 545.546 139.472C544.607 139.472 543.882 139.653 543.37 140.016C542.858 140.379 542.602 140.848 542.602 141.424C542.602 141.979 542.804 142.405 543.21 142.704C543.636 143.003 544.319 143.205 545.258 143.312L546.794 143.472C548.842 143.685 550.442 144.251 551.594 145.168C552.767 146.085 553.354 147.323 553.354 148.88C553.354 150.032 553.034 151.035 552.394 151.888C551.775 152.72 550.9 153.371 549.77 153.84C548.639 154.309 547.306 154.544 545.77 154.544ZM564.58 154.224C562.98 154.224 561.657 154.021 560.612 153.616C559.588 153.189 558.82 152.485 558.308 151.504C557.796 150.501 557.54 149.157 557.54 147.472L557.572 131.728H561.732L561.7 147.76C561.7 148.613 561.924 149.275 562.372 149.744C562.841 150.192 563.503 150.416 564.356 150.416H567.076V154.224H564.58ZM554.788 139.888V136.624H567.076V139.888H554.788ZM583.668 154L586.964 137.2H592.083L595.892 154H592.372L588.5 137.296H590.356L586.932 154H583.668ZM582.356 154L582.324 150.352H585.876V154H582.356ZM580.564 154L575.828 136.624H580.148L584.66 154H580.564ZM593.492 154V150.352H597.044L597.012 154H593.492ZM594.9 154L598.9 136.624H602.932L598.74 154H594.9ZM613.835 154.608C612.342 154.608 611.03 154.352 609.899 153.84C608.79 153.328 607.862 152.645 607.115 151.792C606.39 150.917 605.835 149.947 605.451 148.88C605.089 147.813 604.907 146.725 604.907 145.616V145.008C604.907 143.856 605.089 142.747 605.451 141.68C605.835 140.592 606.39 139.632 607.115 138.8C607.862 137.947 608.779 137.275 609.867 136.784C610.955 136.272 612.214 136.016 613.643 136.016C615.521 136.016 617.089 136.432 618.347 137.264C619.627 138.075 620.587 139.152 621.227 140.496C621.867 141.819 622.187 143.248 622.187 144.784V146.384H606.795V143.664H619.403L618.027 145.008C618.027 143.899 617.867 142.949 617.547 142.16C617.227 141.371 616.737 140.763 616.075 140.336C615.435 139.909 614.625 139.696 613.643 139.696C612.662 139.696 611.83 139.92 611.147 140.368C610.465 140.816 609.942 141.467 609.579 142.32C609.238 143.152 609.067 144.155 609.067 145.328C609.067 146.416 609.238 147.387 609.579 148.24C609.921 149.072 610.443 149.733 611.147 150.224C611.851 150.693 612.747 150.928 613.835 150.928C614.923 150.928 615.809 150.715 616.491 150.288C617.174 149.84 617.611 149.296 617.803 148.656H621.899C621.643 149.851 621.153 150.896 620.427 151.792C619.702 152.688 618.774 153.381 617.643 153.872C616.534 154.363 615.265 154.608 613.835 154.608ZM636.111 154.576C634.682 154.576 633.423 154.277 632.335 153.68C631.247 153.061 630.394 152.165 629.775 150.992C629.156 149.819 628.815 148.4 628.751 146.736H629.423V154H625.903V130.64H630.351V142.32L629.167 144.144C629.252 142.352 629.604 140.859 630.223 139.664C630.863 138.469 631.716 137.573 632.783 136.976C633.85 136.379 635.055 136.08 636.399 136.08C637.594 136.08 638.682 136.304 639.663 136.752C640.644 137.2 641.487 137.829 642.191 138.64C642.895 139.429 643.428 140.357 643.791 141.424C644.175 142.491 644.367 143.653 644.367 144.912V145.584C644.367 146.843 644.175 148.016 643.791 149.104C643.407 150.192 642.852 151.152 642.127 151.984C641.402 152.795 640.527 153.435 639.503 153.904C638.5 154.352 637.37 154.576 636.111 154.576ZM635.119 150.832C636.079 150.832 636.911 150.597 637.615 150.128C638.34 149.637 638.906 148.976 639.311 148.144C639.716 147.312 639.919 146.352 639.919 145.264C639.919 144.155 639.716 143.195 639.311 142.384C638.906 141.573 638.34 140.944 637.615 140.496C636.911 140.048 636.079 139.824 635.119 139.824C634.244 139.824 633.434 140.016 632.687 140.4C631.962 140.784 631.364 141.349 630.895 142.096C630.447 142.843 630.223 143.739 630.223 144.784V146.064C630.223 147.067 630.458 147.92 630.927 148.624C631.396 149.328 632.004 149.872 632.751 150.256C633.498 150.64 634.287 150.832 635.119 150.832ZM655.542 154.608C653.75 154.608 652.203 154.267 650.902 153.584C649.622 152.901 648.641 151.995 647.958 150.864C647.275 149.712 646.934 148.432 646.934 147.024H651.318C651.318 148.155 651.691 149.072 652.438 149.776C653.206 150.459 654.241 150.8 655.542 150.8C656.417 150.8 657.163 150.64 657.782 150.32C658.422 149.979 658.913 149.52 659.254 148.944C659.595 148.347 659.766 147.664 659.766 146.896C659.766 145.744 659.393 144.805 658.646 144.08C657.899 143.333 656.875 142.96 655.574 142.96C654.934 142.96 654.369 143.045 653.878 143.216C653.409 143.387 652.993 143.611 652.63 143.888L650.55 140.304L658.23 135.056L657.942 134.512H647.894V130.64H663.158V135.312L655.254 140.56L652.79 140.112C653.195 139.984 653.633 139.888 654.102 139.824C654.571 139.739 655.083 139.696 655.638 139.696C657.409 139.696 658.923 140.005 660.182 140.624C661.462 141.221 662.443 142.053 663.126 143.12C663.809 144.187 664.15 145.413 664.15 146.8V147.216C664.15 148.56 663.809 149.797 663.126 150.928C662.443 152.037 661.462 152.933 660.182 153.616C658.902 154.277 657.355 154.608 655.542 154.608ZM675.216 160.4V136.624H678.736V144.112L678.192 144.08C678.277 142.309 678.64 140.827 679.28 139.632C679.941 138.437 680.816 137.552 681.904 136.976C682.992 136.379 684.208 136.08 685.552 136.08C686.789 136.08 687.898 136.304 688.88 136.752C689.882 137.2 690.736 137.829 691.44 138.64C692.165 139.451 692.72 140.4 693.104 141.488C693.488 142.555 693.68 143.707 693.68 144.944V145.616C693.68 146.875 693.488 148.048 693.104 149.136C692.741 150.203 692.197 151.152 691.472 151.984C690.768 152.795 689.914 153.435 688.912 153.904C687.909 154.352 686.789 154.576 685.552 154.576C684.25 154.576 683.056 154.309 681.968 153.776C680.901 153.221 680.037 152.379 679.376 151.248C678.714 150.096 678.341 148.613 678.256 146.8L679.664 148.944V160.4H675.216ZM684.432 150.832C685.392 150.832 686.224 150.597 686.928 150.128C687.653 149.659 688.218 149.008 688.624 148.176C689.029 147.323 689.232 146.363 689.232 145.296C689.232 144.187 689.029 143.227 688.624 142.416C688.218 141.605 687.653 140.976 686.928 140.528C686.224 140.059 685.392 139.824 684.432 139.824C683.557 139.824 682.746 140.016 682 140.4C681.274 140.784 680.677 141.349 680.208 142.096C679.76 142.843 679.536 143.739 679.536 144.784V146.064C679.536 147.067 679.77 147.92 680.24 148.624C680.709 149.328 681.317 149.872 682.064 150.256C682.81 150.64 683.6 150.832 684.432 150.832ZM697.591 154V136.624H701.111V143.984H701.015C701.015 141.488 701.548 139.6 702.615 138.32C703.681 137.04 705.249 136.4 707.319 136.4H707.959V140.272H706.743C705.249 140.272 704.087 140.677 703.255 141.488C702.444 142.277 702.039 143.429 702.039 144.944V154H697.591ZM719.161 154.608C717.625 154.608 716.271 154.363 715.097 153.872C713.924 153.381 712.932 152.72 712.121 151.888C711.311 151.035 710.692 150.075 710.265 149.008C709.86 147.941 709.657 146.832 709.657 145.68V145.008C709.657 143.813 709.871 142.683 710.297 141.616C710.745 140.528 711.375 139.568 712.185 138.736C713.017 137.883 714.02 137.221 715.193 136.752C716.367 136.261 717.689 136.016 719.161 136.016C720.633 136.016 721.956 136.261 723.129 136.752C724.303 137.221 725.295 137.883 726.105 138.736C726.937 139.568 727.567 140.528 727.993 141.616C728.42 142.683 728.633 143.813 728.633 145.008V145.68C728.633 146.832 728.42 147.941 727.993 149.008C727.588 150.075 726.98 151.035 726.169 151.888C725.359 152.72 724.367 153.381 723.193 153.872C722.02 154.363 720.676 154.608 719.161 154.608ZM719.161 150.8C720.249 150.8 721.167 150.565 721.913 150.096C722.66 149.605 723.225 148.955 723.609 148.144C723.993 147.312 724.185 146.373 724.185 145.328C724.185 144.261 723.983 143.323 723.577 142.512C723.193 141.68 722.617 141.029 721.849 140.56C721.103 140.069 720.207 139.824 719.161 139.824C718.116 139.824 717.209 140.069 716.441 140.56C715.695 141.029 715.119 141.68 714.713 142.512C714.308 143.323 714.105 144.261 714.105 145.328C714.105 146.373 714.297 147.312 714.681 148.144C715.087 148.955 715.663 149.605 716.409 150.096C717.156 150.565 718.073 150.8 719.161 150.8ZM730.064 160.56V156.752H731.408C732.197 156.752 732.805 156.539 733.232 156.112C733.659 155.685 733.872 155.077 733.872 154.288V136.624H738.16V154.032C738.16 155.632 737.915 156.901 737.424 157.84C736.933 158.8 736.176 159.493 735.152 159.92C734.128 160.347 732.784 160.56 731.12 160.56H730.064ZM731.344 139.952V136.624H738.16V139.952H731.344ZM735.312 134.416C734.459 134.416 733.819 134.192 733.392 133.744C732.987 133.275 732.784 132.688 732.784 131.984C732.784 131.28 732.987 130.704 733.392 130.256C733.819 129.808 734.459 129.584 735.312 129.584C736.187 129.584 736.827 129.808 737.232 130.256C737.659 130.704 737.872 131.28 737.872 131.984C737.872 132.688 737.659 133.275 737.232 133.744C736.827 134.192 736.187 134.416 735.312 134.416ZM750.929 154.608C749.436 154.608 748.124 154.352 746.993 153.84C745.884 153.328 744.956 152.645 744.209 151.792C743.484 150.917 742.929 149.947 742.545 148.88C742.182 147.813 742.001 146.725 742.001 145.616V145.008C742.001 143.856 742.182 142.747 742.545 141.68C742.929 140.592 743.484 139.632 744.209 138.8C744.956 137.947 745.873 137.275 746.961 136.784C748.049 136.272 749.308 136.016 750.737 136.016C752.614 136.016 754.182 136.432 755.441 137.264C756.721 138.075 757.681 139.152 758.321 140.496C758.961 141.819 759.281 143.248 759.281 144.784V146.384H743.889V143.664H756.497L755.121 145.008C755.121 143.899 754.961 142.949 754.641 142.16C754.321 141.371 753.83 140.763 753.169 140.336C752.529 139.909 751.718 139.696 750.737 139.696C749.756 139.696 748.924 139.92 748.241 140.368C747.558 140.816 747.036 141.467 746.673 142.32C746.332 143.152 746.161 144.155 746.161 145.328C746.161 146.416 746.332 147.387 746.673 148.24C747.014 149.072 747.537 149.733 748.241 150.224C748.945 150.693 749.841 150.928 750.929 150.928C752.017 150.928 752.902 150.715 753.585 150.288C754.268 149.84 754.705 149.296 754.897 148.656H758.993C758.737 149.851 758.246 150.896 757.521 151.792C756.796 152.688 755.868 153.381 754.737 153.872C753.628 154.363 752.358 154.608 750.929 154.608ZM770.709 154.608C769.194 154.608 767.882 154.352 766.773 153.84C765.685 153.328 764.767 152.645 764.021 151.792C763.295 150.939 762.751 149.979 762.389 148.912C762.026 147.845 761.845 146.757 761.845 145.648V145.04C761.845 143.867 762.026 142.747 762.389 141.68C762.773 140.592 763.338 139.632 764.085 138.8C764.831 137.947 765.749 137.275 766.837 136.784C767.946 136.272 769.226 136.016 770.677 136.016C772.191 136.016 773.546 136.315 774.741 136.912C775.935 137.488 776.885 138.299 777.589 139.344C778.314 140.389 778.719 141.605 778.805 142.992H774.485C774.378 142.096 773.994 141.349 773.333 140.752C772.693 140.155 771.807 139.856 770.677 139.856C769.695 139.856 768.874 140.091 768.213 140.56C767.573 141.029 767.093 141.68 766.773 142.512C766.453 143.323 766.293 144.261 766.293 145.328C766.293 146.352 766.442 147.28 766.741 148.112C767.061 148.944 767.541 149.595 768.181 150.064C768.842 150.533 769.685 150.768 770.709 150.768C771.477 150.768 772.138 150.629 772.693 150.352C773.247 150.075 773.685 149.691 774.005 149.2C774.346 148.709 774.559 148.155 774.645 147.536H778.965C778.879 148.944 778.463 150.181 777.717 151.248C776.991 152.293 776.021 153.115 774.805 153.712C773.61 154.309 772.245 154.608 770.709 154.608ZM790.08 154.224C788.48 154.224 787.157 154.021 786.112 153.616C785.088 153.189 784.32 152.485 783.808 151.504C783.296 150.501 783.04 149.157 783.04 147.472L783.072 131.728H787.232L787.2 147.76C787.2 148.613 787.424 149.275 787.872 149.744C788.341 150.192 789.003 150.416 789.856 150.416H792.576V154.224H790.08ZM780.288 139.888V136.624H792.576V139.888H780.288ZM802.488 154.544C800.099 154.544 798.222 154.043 796.856 153.04C795.512 152.016 794.808 150.608 794.744 148.816H798.744C798.808 149.413 799.139 149.957 799.736 150.448C800.334 150.939 801.272 151.184 802.552 151.184C803.619 151.184 804.462 150.992 805.08 150.608C805.72 150.224 806.04 149.701 806.04 149.04C806.04 148.464 805.795 148.005 805.304 147.664C804.835 147.323 804.024 147.099 802.872 146.992L801.336 146.832C799.395 146.619 797.902 146.064 796.856 145.168C795.811 144.272 795.288 143.077 795.288 141.584C795.288 140.389 795.587 139.387 796.184 138.576C796.782 137.765 797.603 137.157 798.648 136.752C799.715 136.325 800.931 136.112 802.296 136.112C804.43 136.112 806.158 136.581 807.48 137.52C808.803 138.459 809.496 139.835 809.56 141.648H805.56C805.518 141.051 805.219 140.539 804.664 140.112C804.11 139.685 803.31 139.472 802.264 139.472C801.326 139.472 800.6 139.653 800.088 140.016C799.576 140.379 799.32 140.848 799.32 141.424C799.32 141.979 799.523 142.405 799.928 142.704C800.355 143.003 801.038 143.205 801.976 143.312L803.512 143.472C805.56 143.685 807.16 144.251 808.312 145.168C809.486 146.085 810.072 147.323 810.072 148.88C810.072 150.032 809.752 151.035 809.112 151.888C808.494 152.72 807.619 153.371 806.488 153.84C805.358 154.309 804.024 154.544 802.488 154.544ZM351.662 186.608C350.147 186.608 348.835 186.352 347.726 185.84C346.638 185.328 345.721 184.645 344.974 183.792C344.249 182.939 343.705 181.979 343.342 180.912C342.979 179.845 342.798 178.757 342.798 177.648V177.04C342.798 175.867 342.979 174.747 343.342 173.68C343.726 172.592 344.291 171.632 345.038 170.8C345.785 169.947 346.702 169.275 347.79 168.784C348.899 168.272 350.179 168.016 351.63 168.016C353.145 168.016 354.499 168.315 355.694 168.912C356.889 169.488 357.838 170.299 358.542 171.344C359.267 172.389 359.673 173.605 359.758 174.992H355.438C355.331 174.096 354.947 173.349 354.286 172.752C353.646 172.155 352.761 171.856 351.63 171.856C350.649 171.856 349.827 172.091 349.166 172.56C348.526 173.029 348.046 173.68 347.726 174.512C347.406 175.323 347.246 176.261 347.246 177.328C347.246 178.352 347.395 179.28 347.694 180.112C348.014 180.944 348.494 181.595 349.134 182.064C349.795 182.533 350.638 182.768 351.662 182.768C352.43 182.768 353.091 182.629 353.646 182.352C354.201 182.075 354.638 181.691 354.958 181.2C355.299 180.709 355.513 180.155 355.598 179.536H359.918C359.833 180.944 359.417 182.181 358.67 183.248C357.945 184.293 356.974 185.115 355.758 185.712C354.563 186.309 353.198 186.608 351.662 186.608ZM369.401 186.544C367.396 186.544 365.838 185.883 364.729 184.56C363.641 183.237 363.097 181.275 363.097 178.672V168.592H367.545V179.056C367.545 180.123 367.844 180.976 368.441 181.616C369.038 182.235 369.849 182.544 370.873 182.544C371.897 182.544 372.729 182.213 373.369 181.552C374.03 180.891 374.361 179.995 374.361 178.864V168.592H378.809V186H375.289V178.608H375.641C375.641 180.357 375.417 181.819 374.969 182.992C374.521 184.165 373.849 185.051 372.953 185.648C372.057 186.245 370.937 186.544 369.593 186.544H369.401ZM383.919 186V168.624H387.439V175.984H387.343C387.343 173.488 387.876 171.6 388.943 170.32C390.009 169.04 391.577 168.4 393.647 168.4H394.287V172.272H393.071C391.577 172.272 390.415 172.677 389.583 173.488C388.772 174.277 388.367 175.429 388.367 176.944V186H383.919ZM407.697 186V180.848H406.961V175.12C406.961 174.117 406.715 173.371 406.225 172.88C405.734 172.389 404.977 172.144 403.953 172.144C403.419 172.144 402.779 172.155 402.033 172.176C401.286 172.197 400.529 172.229 399.761 172.272C399.014 172.293 398.342 172.325 397.745 172.368V168.592C398.235 168.549 398.79 168.507 399.409 168.464C400.027 168.421 400.657 168.4 401.297 168.4C401.958 168.379 402.577 168.368 403.153 168.368C404.945 168.368 406.427 168.603 407.601 169.072C408.795 169.541 409.691 170.277 410.289 171.28C410.907 172.283 411.217 173.595 411.217 175.216V186H407.697ZM402.097 186.448C400.838 186.448 399.729 186.224 398.769 185.776C397.83 185.328 397.094 184.688 396.561 183.856C396.049 183.024 395.793 182.021 395.793 180.848C395.793 179.568 396.102 178.523 396.721 177.712C397.361 176.901 398.246 176.293 399.377 175.888C400.529 175.483 401.873 175.28 403.409 175.28H407.441V177.936H403.345C402.321 177.936 401.531 178.192 400.977 178.704C400.443 179.195 400.177 179.835 400.177 180.624C400.177 181.413 400.443 182.053 400.977 182.544C401.531 183.035 402.321 183.28 403.345 183.28C403.963 183.28 404.529 183.173 405.041 182.96C405.574 182.725 406.011 182.341 406.353 181.808C406.715 181.253 406.918 180.507 406.961 179.568L408.049 180.816C407.942 182.032 407.643 183.056 407.153 183.888C406.683 184.72 406.022 185.36 405.169 185.808C404.337 186.235 403.313 186.448 402.097 186.448ZM423.533 186.224C421.933 186.224 420.61 186.021 419.565 185.616C418.541 185.189 417.773 184.485 417.261 183.504C416.749 182.501 416.493 181.157 416.493 179.472L416.525 163.728H420.685L420.653 179.76C420.653 180.613 420.877 181.275 421.325 181.744C421.794 182.192 422.456 182.416 423.309 182.416H426.029V186.224H423.533ZM413.741 171.888V168.624H426.029V171.888H413.741ZM437.445 186.608C435.951 186.608 434.639 186.352 433.509 185.84C432.399 185.328 431.471 184.645 430.725 183.792C429.999 182.917 429.445 181.947 429.061 180.88C428.698 179.813 428.517 178.725 428.517 177.616V177.008C428.517 175.856 428.698 174.747 429.061 173.68C429.445 172.592 429.999 171.632 430.725 170.8C431.471 169.947 432.389 169.275 433.477 168.784C434.565 168.272 435.823 168.016 437.253 168.016C439.13 168.016 440.698 168.432 441.957 169.264C443.237 170.075 444.197 171.152 444.837 172.496C445.477 173.819 445.797 175.248 445.797 176.784V178.384H430.405V175.664H443.013L441.637 177.008C441.637 175.899 441.477 174.949 441.157 174.16C440.837 173.371 440.346 172.763 439.685 172.336C439.045 171.909 438.234 171.696 437.253 171.696C436.271 171.696 435.439 171.92 434.757 172.368C434.074 172.816 433.551 173.467 433.189 174.32C432.847 175.152 432.677 176.155 432.677 177.328C432.677 178.416 432.847 179.387 433.189 180.24C433.53 181.072 434.053 181.733 434.757 182.224C435.461 182.693 436.357 182.928 437.445 182.928C438.533 182.928 439.418 182.715 440.101 182.288C440.783 181.84 441.221 181.296 441.413 180.656H445.509C445.253 181.851 444.762 182.896 444.037 183.792C443.311 184.688 442.383 185.381 441.253 185.872C440.143 186.363 438.874 186.608 437.445 186.608ZM456.712 186.576C455.496 186.576 454.376 186.352 453.352 185.904C452.328 185.456 451.443 184.827 450.696 184.016C449.95 183.205 449.374 182.267 448.968 181.2C448.563 180.112 448.36 178.939 448.36 177.68V177.008C448.36 175.771 448.552 174.608 448.936 173.52C449.342 172.432 449.896 171.483 450.6 170.672C451.326 169.861 452.19 169.232 453.192 168.784C454.216 168.315 455.347 168.08 456.584 168.08C457.95 168.08 459.144 168.379 460.168 168.976C461.214 169.552 462.046 170.427 462.664 171.6C463.283 172.773 463.624 174.245 463.688 176.016L462.376 174.48V162.64H466.824V186H463.304V178.608H464.072C464.008 180.379 463.646 181.861 462.984 183.056C462.323 184.229 461.448 185.115 460.36 185.712C459.294 186.288 458.078 186.576 456.712 186.576ZM457.704 182.832C458.579 182.832 459.379 182.64 460.104 182.256C460.83 181.851 461.406 181.275 461.832 180.528C462.28 179.76 462.504 178.864 462.504 177.84V176.56C462.504 175.536 462.28 174.683 461.832 174C461.384 173.296 460.798 172.763 460.072 172.4C459.347 172.016 458.558 171.824 457.704 171.824C456.744 171.824 455.891 172.059 455.144 172.528C454.419 172.976 453.843 173.616 453.416 174.448C453.011 175.28 452.808 176.251 452.808 177.36C452.808 178.469 453.022 179.44 453.448 180.272C453.875 181.083 454.451 181.712 455.176 182.16C455.923 182.608 456.766 182.832 457.704 182.832ZM489.002 186.576C487.572 186.576 486.314 186.277 485.226 185.68C484.138 185.061 483.284 184.165 482.666 182.992C482.047 181.819 481.706 180.4 481.642 178.736H482.314V186H478.794V162.64H483.242V174.32L482.058 176.144C482.143 174.352 482.495 172.859 483.114 171.664C483.754 170.469 484.607 169.573 485.674 168.976C486.74 168.379 487.946 168.08 489.29 168.08C490.484 168.08 491.572 168.304 492.554 168.752C493.535 169.2 494.378 169.829 495.082 170.64C495.786 171.429 496.319 172.357 496.682 173.424C497.066 174.491 497.258 175.653 497.258 176.912V177.584C497.258 178.843 497.066 180.016 496.682 181.104C496.298 182.192 495.743 183.152 495.018 183.984C494.292 184.795 493.418 185.435 492.394 185.904C491.391 186.352 490.26 186.576 489.002 186.576ZM488.01 182.832C488.97 182.832 489.802 182.597 490.506 182.128C491.231 181.637 491.796 180.976 492.202 180.144C492.607 179.312 492.81 178.352 492.81 177.264C492.81 176.155 492.607 175.195 492.202 174.384C491.796 173.573 491.231 172.944 490.506 172.496C489.802 172.048 488.97 171.824 488.01 171.824C487.135 171.824 486.324 172.016 485.578 172.4C484.852 172.784 484.255 173.349 483.786 174.096C483.338 174.843 483.114 175.739 483.114 176.784V178.064C483.114 179.067 483.348 179.92 483.818 180.624C484.287 181.328 484.895 181.872 485.642 182.256C486.388 182.64 487.178 182.832 488.01 182.832ZM500.282 192.848V189.04H503.546C504.164 189.04 504.676 188.955 505.082 188.784C505.508 188.635 505.86 188.379 506.138 188.016C506.415 187.675 506.628 187.195 506.778 186.576L511.45 168.624H515.706L510.554 187.536C510.212 188.837 509.732 189.872 509.114 190.64C508.495 191.429 507.695 191.995 506.714 192.336C505.754 192.677 504.559 192.848 503.13 192.848H500.282ZM505.69 185.616V182.096H509.402V185.616H505.69ZM504.186 185.616L498.554 168.624H503.034L508.378 185.616H504.186ZM533.221 186.224C531.621 186.224 530.298 186.021 529.253 185.616C528.229 185.189 527.461 184.485 526.949 183.504C526.437 182.501 526.181 181.157 526.181 179.472L526.213 163.728H530.373L530.341 179.76C530.341 180.613 530.565 181.275 531.013 181.744C531.482 182.192 532.143 182.416 532.997 182.416H535.717V186.224H533.221ZM523.429 171.888V168.624H535.717V171.888H523.429ZM539.45 186V162.64H543.898V176.272H543.13C543.13 174.523 543.354 173.04 543.802 171.824C544.25 170.608 544.911 169.68 545.786 169.04C546.682 168.4 547.813 168.08 549.178 168.08H549.37C551.354 168.08 552.858 168.763 553.882 170.128C554.906 171.493 555.418 173.477 555.418 176.08V186H550.97V175.664C550.97 174.555 550.65 173.68 550.01 173.04C549.391 172.4 548.57 172.08 547.546 172.08C546.458 172.08 545.573 172.443 544.89 173.168C544.229 173.872 543.898 174.8 543.898 175.952V186H539.45ZM567.976 186.608C566.483 186.608 565.171 186.352 564.04 185.84C562.931 185.328 562.003 184.645 561.256 183.792C560.531 182.917 559.976 181.947 559.592 180.88C559.229 179.813 559.048 178.725 559.048 177.616V177.008C559.048 175.856 559.229 174.747 559.592 173.68C559.976 172.592 560.531 171.632 561.256 170.8C562.003 169.947 562.92 169.275 564.008 168.784C565.096 168.272 566.355 168.016 567.784 168.016C569.661 168.016 571.229 168.432 572.488 169.264C573.768 170.075 574.728 171.152 575.368 172.496C576.008 173.819 576.328 175.248 576.328 176.784V178.384H560.936V175.664H573.544L572.168 177.008C572.168 175.899 572.008 174.949 571.688 174.16C571.368 173.371 570.877 172.763 570.216 172.336C569.576 171.909 568.765 171.696 567.784 171.696C566.803 171.696 565.971 171.92 565.288 172.368C564.605 172.816 564.083 173.467 563.72 174.32C563.379 175.152 563.208 176.155 563.208 177.328C563.208 178.416 563.379 179.387 563.72 180.24C564.061 181.072 564.584 181.733 565.288 182.224C565.992 182.693 566.888 182.928 567.976 182.928C569.064 182.928 569.949 182.715 570.632 182.288C571.315 181.84 571.752 181.296 571.944 180.656H576.04C575.784 181.851 575.293 182.896 574.568 183.792C573.843 184.688 572.915 185.381 571.784 185.872C570.675 186.363 569.405 186.608 567.976 186.608ZM594.662 186.608C593.147 186.608 591.835 186.352 590.726 185.84C589.638 185.328 588.721 184.645 587.974 183.792C587.249 182.939 586.705 181.979 586.342 180.912C585.979 179.845 585.798 178.757 585.798 177.648V177.04C585.798 175.867 585.979 174.747 586.342 173.68C586.726 172.592 587.291 171.632 588.038 170.8C588.785 169.947 589.702 169.275 590.79 168.784C591.899 168.272 593.179 168.016 594.63 168.016C596.145 168.016 597.499 168.315 598.694 168.912C599.889 169.488 600.838 170.299 601.542 171.344C602.267 172.389 602.673 173.605 602.758 174.992H598.438C598.331 174.096 597.947 173.349 597.286 172.752C596.646 172.155 595.761 171.856 594.63 171.856C593.649 171.856 592.827 172.091 592.166 172.56C591.526 173.029 591.046 173.68 590.726 174.512C590.406 175.323 590.246 176.261 590.246 177.328C590.246 178.352 590.395 179.28 590.694 180.112C591.014 180.944 591.494 181.595 592.134 182.064C592.795 182.533 593.638 182.768 594.662 182.768C595.43 182.768 596.091 182.629 596.646 182.352C597.201 182.075 597.638 181.691 597.958 181.2C598.299 180.709 598.513 180.155 598.598 179.536H602.918C602.833 180.944 602.417 182.181 601.67 183.248C600.945 184.293 599.974 185.115 598.758 185.712C597.563 186.309 596.198 186.608 594.662 186.608ZM614.833 186.608C613.297 186.608 611.942 186.363 610.769 185.872C609.596 185.381 608.604 184.72 607.793 183.888C606.982 183.035 606.364 182.075 605.937 181.008C605.532 179.941 605.329 178.832 605.329 177.68V177.008C605.329 175.813 605.542 174.683 605.969 173.616C606.417 172.528 607.046 171.568 607.857 170.736C608.689 169.883 609.692 169.221 610.865 168.752C612.038 168.261 613.361 168.016 614.833 168.016C616.305 168.016 617.628 168.261 618.801 168.752C619.974 169.221 620.966 169.883 621.777 170.736C622.609 171.568 623.238 172.528 623.665 173.616C624.092 174.683 624.305 175.813 624.305 177.008V177.68C624.305 178.832 624.092 179.941 623.665 181.008C623.26 182.075 622.652 183.035 621.841 183.888C621.03 184.72 620.038 185.381 618.865 185.872C617.692 186.363 616.348 186.608 614.833 186.608ZM614.833 182.8C615.921 182.8 616.838 182.565 617.585 182.096C618.332 181.605 618.897 180.955 619.281 180.144C619.665 179.312 619.857 178.373 619.857 177.328C619.857 176.261 619.654 175.323 619.249 174.512C618.865 173.68 618.289 173.029 617.521 172.56C616.774 172.069 615.878 171.824 614.833 171.824C613.788 171.824 612.881 172.069 612.113 172.56C611.366 173.029 610.79 173.68 610.385 174.512C609.98 175.323 609.777 176.261 609.777 177.328C609.777 178.373 609.969 179.312 610.353 180.144C610.758 180.955 611.334 181.605 612.081 182.096C612.828 182.565 613.745 182.8 614.833 182.8ZM628.2 186V168.624H631.72V176.08H631.4C631.4 174.331 631.624 172.869 632.072 171.696C632.52 170.501 633.181 169.605 634.056 169.008C634.952 168.389 636.061 168.08 637.384 168.08H637.576C638.92 168.08 640.029 168.389 640.904 169.008C641.8 169.605 642.461 170.501 642.888 171.696C643.336 172.869 643.56 174.331 643.56 176.08H642.44C642.44 174.331 642.664 172.869 643.112 171.696C643.581 170.501 644.253 169.605 645.128 169.008C646.024 168.389 647.133 168.08 648.456 168.08H648.648C649.992 168.08 651.112 168.389 652.008 169.008C652.904 169.605 653.576 170.501 654.024 171.696C654.493 172.869 654.728 174.331 654.728 176.08V186H650.28V175.664C650.28 174.576 650.003 173.712 649.448 173.072C648.893 172.411 648.104 172.08 647.08 172.08C646.056 172.08 645.235 172.421 644.616 173.104C643.997 173.765 643.688 174.661 643.688 175.792V186H639.24V175.664C639.24 174.576 638.963 173.712 638.408 173.072C637.853 172.411 637.064 172.08 636.04 172.08C635.016 172.08 634.195 172.421 633.576 173.104C632.957 173.765 632.648 174.661 632.648 175.792V186H628.2ZM659.481 186V168.624H663.001V176.08H662.681C662.681 174.331 662.905 172.869 663.353 171.696C663.801 170.501 664.462 169.605 665.337 169.008C666.233 168.389 667.342 168.08 668.665 168.08H668.857C670.201 168.08 671.31 168.389 672.185 169.008C673.081 169.605 673.742 170.501 674.169 171.696C674.617 172.869 674.841 174.331 674.841 176.08H673.721C673.721 174.331 673.945 172.869 674.393 171.696C674.862 170.501 675.534 169.605 676.409 169.008C677.305 168.389 678.414 168.08 679.737 168.08H679.929C681.273 168.08 682.393 168.389 683.289 169.008C684.185 169.605 684.857 170.501 685.305 171.696C685.774 172.869 686.009 174.331 686.009 176.08V186H681.561V175.664C681.561 174.576 681.284 173.712 680.729 173.072C680.174 172.411 679.385 172.08 678.361 172.08C677.337 172.08 676.516 172.421 675.897 173.104C675.278 173.765 674.969 174.661 674.969 175.792V186H670.521V175.664C670.521 174.576 670.244 173.712 669.689 173.072C669.134 172.411 668.345 172.08 667.321 172.08C666.297 172.08 665.476 172.421 664.857 173.104C664.238 173.765 663.929 174.661 663.929 175.792V186H659.481ZM696.682 186.544C694.677 186.544 693.12 185.883 692.01 184.56C690.922 183.237 690.378 181.275 690.378 178.672V168.592H694.826V179.056C694.826 180.123 695.125 180.976 695.722 181.616C696.32 182.235 697.13 182.544 698.154 182.544C699.178 182.544 700.01 182.213 700.65 181.552C701.312 180.891 701.642 179.995 701.642 178.864V168.592H706.09V186H702.57V178.608H702.922C702.922 180.357 702.698 181.819 702.25 182.992C701.802 184.165 701.13 185.051 700.234 185.648C699.338 186.245 698.218 186.544 696.874 186.544H696.682ZM711.2 186V168.624H714.72V176.08H714.4C714.4 174.309 714.635 172.837 715.104 171.664C715.573 170.469 716.267 169.573 717.184 168.976C718.123 168.379 719.285 168.08 720.672 168.08H720.864C722.933 168.08 724.501 168.752 725.568 170.096C726.635 171.419 727.168 173.403 727.168 176.048V186H722.72V175.664C722.72 174.597 722.411 173.733 721.792 173.072C721.195 172.411 720.363 172.08 719.296 172.08C718.208 172.08 717.323 172.421 716.64 173.104C715.979 173.765 715.648 174.661 715.648 175.792V186H711.2ZM732.782 186V168.624H737.23V186H732.782ZM730.35 171.952V168.624H737.23V171.952H730.35ZM734.414 166.544C733.539 166.544 732.889 166.32 732.462 165.872C732.057 165.403 731.854 164.827 731.854 164.144C731.854 163.419 732.057 162.832 732.462 162.384C732.889 161.936 733.539 161.712 734.414 161.712C735.289 161.712 735.929 161.936 736.334 162.384C736.739 162.832 736.942 163.419 736.942 164.144C736.942 164.827 736.739 165.403 736.334 165.872C735.929 166.32 735.289 166.544 734.414 166.544ZM749.908 186.224C748.308 186.224 746.985 186.021 745.94 185.616C744.916 185.189 744.148 184.485 743.636 183.504C743.124 182.501 742.868 181.157 742.868 179.472L742.9 163.728H747.06L747.028 179.76C747.028 180.613 747.252 181.275 747.7 181.744C748.169 182.192 748.831 182.416 749.684 182.416H752.404V186.224H749.908ZM740.116 171.888V168.624H752.404V171.888H740.116ZM755.625 192.848V189.04H758.889C759.508 189.04 760.02 188.955 760.425 188.784C760.852 188.635 761.204 188.379 761.481 188.016C761.759 187.675 761.972 187.195 762.121 186.576L766.793 168.624H771.049L765.897 187.536C765.556 188.837 765.076 189.872 764.457 190.64C763.839 191.429 763.039 191.995 762.057 192.336C761.097 192.677 759.903 192.848 758.473 192.848H755.625ZM761.033 185.616V182.096H764.745V185.616H761.033ZM759.529 185.616L753.897 168.624H758.377L763.721 185.616H759.529Z" fill="white"/>
</g>
<defs>
<filter id="filter0_f_2697_6156" x="-370.927" y="-252.956" width="1065.41" height="1065.41" filterUnits="userSpaceOnUse" color-interpolation-filters="sRGB">
<feFlood flood-opacity="0" result="BackgroundImageFix"/>
<feBlend mode="normal" in="SourceGraphic" in2="BackgroundImageFix" result="shape"/>
<feGaussianBlur stdDeviation="180.043" result="effect1_foregroundBlur_2697_6156"/>
</filter>
<filter id="filter1_f_2697_6156" x="-48.2754" y="-509.652" width="1575.83" height="1575.83" filterUnits="userSpaceOnUse" color-interpolation-filters="sRGB">
<feFlood flood-opacity="0" result="BackgroundImageFix"/>
<feBlend mode="normal" in="SourceGraphic" in2="BackgroundImageFix" result="shape"/>
<feGaussianBlur stdDeviation="180.043" result="effect1_foregroundBlur_2697_6156"/>
</filter>
<filter id="filter2_f_2697_6156" x="-337.847" y="-193.881" width="669.257" height="669.257" filterUnits="userSpaceOnUse" color-interpolation-filters="sRGB">
<feFlood flood-opacity="0" result="BackgroundImageFix"/>
<feBlend mode="normal" in="SourceGraphic" in2="BackgroundImageFix" result="shape"/>
<feGaussianBlur stdDeviation="105.064" result="effect1_foregroundBlur_2697_6156"/>
</filter>
<filter id="filter3_f_2697_6156" x="779.848" y="-193.881" width="669.257" height="669.257" filterUnits="userSpaceOnUse" color-interpolation-filters="sRGB">
<feFlood flood-opacity="0" result="BackgroundImageFix"/>
<feBlend mode="normal" in="SourceGraphic" in2="BackgroundImageFix" result="shape"/>
<feGaussianBlur stdDeviation="105.064" result="effect1_foregroundBlur_2697_6156"/>
</filter>
<radialGradient id="paint0_radial_2697_6156" cx="0" cy="0" r="1" gradientUnits="userSpaceOnUse" gradientTransform="translate(1257.3 253.783) rotate(26.5651) scale(398.603 318.883)">
<stop/>
<stop offset="0.8" stop-opacity="0"/>
</radialGradient>
<radialGradient id="paint1_radial_2697_6156" cx="0" cy="0" r="1" gradientUnits="userSpaceOnUse" gradientTransform="translate(1257.3 253.783) rotate(26.5651) scale(398.603 318.883)">
<stop stop-color="#5203B7"/>
<stop offset="0.7" stop-opacity="0"/>
</radialGradient>
<radialGradient id="paint2_radial_2697_6156" cx="0" cy="0" r="1" gradientUnits="userSpaceOnUse" gradientTransform="translate(-2.69305 140.747) rotate(90) scale(371.075 621.697)">
<stop stop-color="#D9D9D9" stop-opacity="0.2"/>
<stop offset="0.802083" stop-color="#D9D9D9" stop-opacity="0"/>
</radialGradient>
<radialGradient id="paint3_radial_2697_6156" cx="0" cy="0" r="1" gradientUnits="userSpaceOnUse" gradientTransform="translate(1115 140.747) rotate(90) scale(371.075 621.697)">
<stop stop-color="#D9D9D9" stop-opacity="0.2"/>
<stop offset="0.802083" stop-color="#D9D9D9" stop-opacity="0"/>
</radialGradient>
<clipPath id="clip0_2697_6156">
<rect width="1113" height="326" fill="white"/>
</clipPath>
<clipPath id="clip1_2697_6156">
<rect width="1143.84" height="641.739" fill="white" transform="translate(-26.2899 -172.739)"/>
</clipPath>
<clipPath id="clip2_2697_6156">
<rect width="713.043" height="356.522" fill="white" transform="translate(900.782 75.522) rotate(-180)"/>
</clipPath>
</defs>
</svg>
