<svg width="120" height="120" viewBox="0 0 120 120" fill="none" xmlns="http://www.w3.org/2000/svg">
<g filter="url(#filter0_d_2807_1433)">
<path d="M21.3897 36.2132C22.2065 27.8061 28.8061 21.2065 37.2132 20.3897C44.5255 19.6793 53.335 19 60.2852 19C67.2355 19 76.0449 19.6793 83.3573 20.3897C91.7644 21.2065 98.364 27.8061 99.1807 36.2132C99.8911 43.5255 100.57 52.335 100.57 59.2852C100.57 66.2355 99.8911 75.0449 99.1807 82.3573C98.364 90.7644 91.7644 97.364 83.3573 98.1807C76.0449 98.8911 67.2355 99.5704 60.2852 99.5704C53.335 99.5704 44.5255 98.8911 37.2132 98.1807C28.8061 97.364 22.2065 90.7644 21.3897 82.3573C20.6793 75.0449 20 66.2355 20 59.2852C20 52.335 20.6793 43.5255 21.3897 36.2132Z" fill="white"/>
</g>
<path d="M75.3337 56.1668V50.0335C75.3337 46.8132 75.3337 45.203 74.7069 43.9731C74.1557 42.8911 73.276 42.0115 72.1941 41.4602C70.9641 40.8335 69.354 40.8335 66.1337 40.8335H53.867C50.6467 40.8335 49.0365 40.8335 47.8065 41.4602C46.7246 42.0115 45.845 42.8911 45.2937 43.9731C44.667 45.203 44.667 46.8132 44.667 50.0335V69.9668C44.667 73.1871 44.667 74.7973 45.2937 76.0273C45.845 77.1092 46.7246 77.9888 47.8065 78.5401C49.0365 79.1668 50.6467 79.1668 53.867 79.1668H57.1253M61.917 58.0835H52.3337M58.0837 65.7502H52.3337M67.667 50.4168H52.3337M73.8962 69.5835V66.2293C73.8962 64.3769 72.3944 62.8752 70.542 62.8752C68.6895 62.8752 67.1878 64.3769 67.1878 66.2293V69.5835M66.9003 77.2502H74.1837C75.2571 77.2502 75.7938 77.2502 76.2038 77.0413C76.5645 76.8575 76.8577 76.5643 77.0414 76.2036C77.2503 75.7936 77.2503 75.2569 77.2503 74.1835V72.6502C77.2503 71.5767 77.2503 71.04 77.0414 70.63C76.8577 70.2694 76.5645 69.9762 76.2038 69.7924C75.7938 69.5835 75.2571 69.5835 74.1837 69.5835H66.9003C65.8269 69.5835 65.2902 69.5835 64.8802 69.7924C64.5195 69.9762 64.2263 70.2694 64.0426 70.63C63.8337 71.04 63.8337 71.5767 63.8337 72.6502V74.1835C63.8337 75.2569 63.8337 75.7936 64.0426 76.2036C64.2263 76.5643 64.5195 76.8575 64.8802 77.0413C65.2902 77.2502 65.8269 77.2502 66.9003 77.2502Z" stroke="#665EF6" stroke-width="4" stroke-linecap="round" stroke-linejoin="round"/>
<defs>
<filter id="filter0_d_2807_1433" x="3.6" y="2.6" width="113.37" height="113.37" filterUnits="userSpaceOnUse" color-interpolation-filters="sRGB">
<feFlood flood-opacity="0" result="BackgroundImageFix"/>
<feColorMatrix in="SourceAlpha" type="matrix" values="0 0 0 0 0 0 0 0 0 0 0 0 0 0 0 0 0 0 127 0" result="hardAlpha"/>
<feOffset/>
<feGaussianBlur stdDeviation="8.2"/>
<feComposite in2="hardAlpha" operator="out"/>
<feColorMatrix type="matrix" values="0 0 0 0 0.482353 0 0 0 0 0.341176 0 0 0 0 0.988235 0 0 0 0.68 0"/>
<feBlend mode="normal" in2="BackgroundImageFix" result="effect1_dropShadow_2807_1433"/>
<feBlend mode="normal" in="SourceGraphic" in2="effect1_dropShadow_2807_1433" result="shape"/>
</filter>
</defs>
</svg>
