<svg width="18" height="18" viewBox="0 0 18 18" fill="none" xmlns="http://www.w3.org/2000/svg">
<g clip-path="url(#clip0_445_2178)">
<path d="M12 12V14.1C12 14.9401 12 15.3601 11.8365 15.681C11.6927 15.9632 11.4632 16.1927 11.181 16.3365C10.8601 16.5 10.4401 16.5 9.6 16.5H3.9C3.05992 16.5 2.63988 16.5 2.31901 16.3365C2.03677 16.1927 1.8073 15.9632 1.66349 15.681C1.5 15.3601 1.5 14.9401 1.5 14.1V8.4C1.5 7.55992 1.5 7.13988 1.66349 6.81901C1.8073 6.53677 2.03677 6.3073 2.31901 6.16349C2.63988 6 3.05992 6 3.9 6H6M8.4 12H14.1C14.9401 12 15.3601 12 15.681 11.8365C15.9632 11.6927 16.1927 11.4632 16.3365 11.181C16.5 10.8601 16.5 10.4401 16.5 9.6V3.9C16.5 3.05992 16.5 2.63988 16.3365 2.31901C16.1927 2.03677 15.9632 1.8073 15.681 1.66349C15.3601 1.5 14.9401 1.5 14.1 1.5H8.4C7.55992 1.5 7.13988 1.5 6.81901 1.66349C6.53677 1.8073 6.3073 2.03677 6.16349 2.31901C6 2.63988 6 3.05992 6 3.9V9.6C6 10.4401 6 10.8601 6.16349 11.181C6.3073 11.4632 6.53677 11.6927 6.81901 11.8365C7.13988 12 7.55992 12 8.4 12Z" stroke="white" stroke-width="1.5" stroke-linecap="round" stroke-linejoin="round"/>
</g>
<defs>
<clipPath id="clip0_445_2178">
<rect width="18" height="18" fill="white"/>
</clipPath>
</defs>
</svg>
