<svg xmlns="http://www.w3.org/2000/svg" width="40" height="40" viewBox="0 0 40 40" fill="none">
  <path d="M19.1667 15.8333C20.0871 15.8333 20.8333 15.0871 20.8333 14.1667C20.8333 13.2462 20.0871 12.5 19.1667 12.5C18.2462 12.5 17.5 13.2462 17.5 14.1667C17.5 15.0871 18.2462 15.8333 19.1667 15.8333Z" fill="#ACA39D"/>
  <path d="M20 33.3332C27.3638 33.3332 33.3333 27.3636 33.3333 19.9998C33.3333 12.636 27.3638 6.6665 20 6.6665C12.6362 6.6665 6.66666 12.636 6.66666 19.9998C6.66666 27.3636 12.6362 33.3332 20 33.3332Z" stroke="#ACA39D" stroke-width="1.25" stroke-linecap="round" stroke-linejoin="round"/>
  <path d="M18.75 19.375C19.0815 19.375 19.3995 19.5067 19.6339 19.7411C19.8683 19.9755 20 20.2935 20 20.625V26.25C20 26.5815 20.1317 26.8995 20.3661 27.1339C20.6005 27.3683 20.9185 27.5 21.25 27.5" stroke="#ACA39D" stroke-width="1.25" stroke-linecap="round" stroke-linejoin="round"/>
</svg>
