<svg xmlns="http://www.w3.org/2000/svg" width="20" height="20" viewBox="0 0 20 20" fill="none">
  <path d="M9.58333 7.91667C10.0436 7.91667 10.4167 7.54357 10.4167 7.08333C10.4167 6.6231 10.0436 6.25 9.58333 6.25C9.1231 6.25 8.75 6.6231 8.75 7.08333C8.75 7.54357 9.1231 7.91667 9.58333 7.91667Z" fill="white"/>
  <path d="M10 16.6666C13.6819 16.6666 16.6667 13.6818 16.6667 9.99992C16.6667 6.31802 13.6819 3.33325 10 3.33325C6.31811 3.33325 3.33334 6.31802 3.33334 9.99992C3.33334 13.6818 6.31811 16.6666 10 16.6666Z" stroke="white" stroke-width="1.25" stroke-linecap="round" stroke-linejoin="round"/>
  <path d="M9.375 9.6875C9.54076 9.6875 9.69973 9.75335 9.81694 9.87056C9.93415 9.98777 10 10.1467 10 10.3125V13.125C10 13.2908 10.0658 13.4497 10.1831 13.5669C10.3003 13.6842 10.4592 13.75 10.625 13.75" stroke="white" stroke-width="1.25" stroke-linecap="round" stroke-linejoin="round"/>
</svg>
