<svg width="1440" height="1024" viewBox="0 0 1440 1024" fill="none" xmlns="http://www.w3.org/2000/svg">
<g clip-path="url(#clip0_2598_674)">
<rect width="1440" height="1024" fill="#121212"/>
<g filter="url(#filter0_f_2598_674)">
<ellipse cx="-210.095" cy="514.151" rx="207.032" ry="207.032" transform="rotate(-90 -210.095 514.151)" fill="#3C459A" fill-opacity="0.5"/>
</g>
<mask id="mask0_2598_674" style="mask-type:alpha" maskUnits="userSpaceOnUse" x="-1048" y="13" width="1678" height="1002">
<rect x="-1047.83" y="13.6052" width="1677.22" height="1001.09" fill="url(#paint0_radial_2598_674)"/>
</mask>
<g mask="url(#mask0_2598_674)">
<rect x="-3.93663" y="30.2029" width="138.021" height="138.021" fill="white" fill-opacity="0.25" stroke="white" stroke-width="1.7471"/>
<rect x="134.085" y="30.2029" width="138.021" height="138.021" stroke="white" stroke-width="1.7471"/>
<rect x="272.106" y="30.2029" width="138.021" height="138.021" stroke="white" stroke-width="1.7471"/>
<rect x="-3.93663" y="168.224" width="138.021" height="138.021" stroke="white" stroke-width="1.7471"/>
<rect x="134.085" y="168.224" width="138.021" height="138.021" stroke="white" stroke-width="1.7471"/>
<rect x="272.106" y="168.224" width="138.021" height="138.021" stroke="white" stroke-width="1.7471"/>
<rect x="-3.93663" y="306.245" width="138.021" height="138.021" fill="white" fill-opacity="0.25" stroke="white" stroke-width="1.7471"/>
<rect x="134.085" y="306.245" width="138.021" height="138.021" stroke="white" stroke-width="1.7471"/>
<rect x="272.106" y="306.245" width="138.021" height="138.021" stroke="white" stroke-width="1.7471"/>
<rect x="-3.93663" y="444.267" width="138.021" height="138.021" stroke="white" stroke-width="1.7471"/>
<rect x="134.085" y="444.267" width="138.021" height="138.021" stroke="white" stroke-width="1.7471"/>
<rect x="272.106" y="444.267" width="138.021" height="138.021" stroke="white" stroke-width="1.7471"/>
<rect x="-3.93663" y="582.288" width="138.021" height="138.021" stroke="white" stroke-width="1.7471"/>
<rect x="134.085" y="582.288" width="138.021" height="138.021" stroke="white" stroke-width="1.7471"/>
<rect x="272.106" y="582.288" width="138.021" height="138.021" stroke="white" stroke-width="1.7471"/>
<rect x="-3.93663" y="720.309" width="138.021" height="138.021" stroke="white" stroke-width="1.7471"/>
<rect x="134.085" y="720.309" width="138.021" height="138.021" stroke="white" stroke-width="1.7471"/>
<rect x="272.106" y="720.309" width="138.021" height="138.021" stroke="white" stroke-width="1.7471"/>
<rect x="-3.93663" y="858.331" width="138.021" height="138.021" stroke="white" stroke-width="1.7471"/>
<rect x="134.085" y="858.331" width="138.021" height="138.021" stroke="white" stroke-width="1.7471"/>
<rect x="272.106" y="858.331" width="138.021" height="138.021" stroke="white" stroke-width="1.7471"/>
</g>
<g filter="url(#filter1_f_2598_674)">
<ellipse cx="1648.52" cy="514.151" rx="207.032" ry="207.032" transform="rotate(-90 1648.52 514.151)" fill="#3C459A" fill-opacity="0.5"/>
</g>
<mask id="mask1_2598_674" style="mask-type:alpha" maskUnits="userSpaceOnUse" x="810" y="13" width="1678" height="1002">
<rect x="810.779" y="13.6052" width="1677.22" height="1001.09" fill="url(#paint1_radial_2598_674)"/>
</mask>
<g mask="url(#mask1_2598_674)">
<rect x="1026.55" y="30.2029" width="138.021" height="138.021" stroke="white" stroke-width="1.7471"/>
<rect x="1164.57" y="30.2029" width="138.021" height="138.021" stroke="white" stroke-width="1.7471"/>
<rect x="1302.59" y="30.2029" width="138.021" height="138.021" stroke="white" stroke-width="1.7471"/>
<rect x="1440.61" y="30.2029" width="138.021" height="138.021" stroke="white" stroke-width="1.7471"/>
<rect x="1026.55" y="168.224" width="138.021" height="138.021" stroke="white" stroke-width="1.7471"/>
<rect x="1164.57" y="168.224" width="138.021" height="138.021" stroke="white" stroke-width="1.7471"/>
<rect x="1302.59" y="168.224" width="138.021" height="138.021" stroke="white" stroke-width="1.7471"/>
<rect x="1440.61" y="168.224" width="138.021" height="138.021" stroke="white" stroke-width="1.7471"/>
<rect x="1026.55" y="306.245" width="138.021" height="138.021" stroke="white" stroke-width="1.7471"/>
<rect x="1164.57" y="306.245" width="138.021" height="138.021" stroke="white" stroke-width="1.7471"/>
<rect x="1302.59" y="306.245" width="138.021" height="138.021" stroke="white" stroke-width="1.7471"/>
<rect x="1440.61" y="306.245" width="138.021" height="138.021" stroke="white" stroke-width="1.7471"/>
<rect x="1026.55" y="444.267" width="138.021" height="138.021" stroke="white" stroke-width="1.7471"/>
<rect x="1164.57" y="444.267" width="138.021" height="138.021" stroke="white" stroke-width="1.7471"/>
<rect x="1302.59" y="444.267" width="138.021" height="138.021" stroke="white" stroke-width="1.7471"/>
<rect x="1440.61" y="444.267" width="138.021" height="138.021" stroke="white" stroke-width="1.7471"/>
<rect x="1026.55" y="582.288" width="138.021" height="138.021" stroke="white" stroke-width="1.7471"/>
<rect x="1164.57" y="582.288" width="138.021" height="138.021" stroke="white" stroke-width="1.7471"/>
<rect x="1302.59" y="582.288" width="138.021" height="138.021" stroke="white" stroke-width="1.7471"/>
<rect x="1440.61" y="582.288" width="138.021" height="138.021" fill="white" fill-opacity="0.25" stroke="white" stroke-width="1.7471"/>
<rect x="1026.55" y="720.309" width="138.021" height="138.021" stroke="white" stroke-width="1.7471"/>
<rect x="1164.57" y="720.309" width="138.021" height="138.021" stroke="white" stroke-width="1.7471"/>
<rect x="1302.59" y="720.309" width="138.021" height="138.021" stroke="white" stroke-width="1.7471"/>
<rect x="1440.61" y="720.309" width="138.021" height="138.021" stroke="white" stroke-width="1.7471"/>
<rect x="1026.55" y="858.331" width="138.021" height="138.021" stroke="white" stroke-width="1.7471"/>
<rect x="1164.57" y="858.331" width="138.021" height="138.021" stroke="white" stroke-width="1.7471"/>
<rect x="1302.59" y="858.331" width="138.021" height="138.021" stroke="white" stroke-width="1.7471"/>
<rect x="1440.61" y="858.331" width="138.021" height="138.021" stroke="white" stroke-width="1.7471"/>
</g>
<g clip-path="url(#clip1_2598_674)">
<rect width="2430.53" height="1363.62" transform="translate(-457 -130.957)" fill="#000212"/>
<g filter="url(#filter2_f_2598_674)">
<circle cx="-57.3828" cy="830.523" r="366.789" fill="#5203B7" fill-opacity="0.4"/>
</g>
<g filter="url(#filter3_f_2598_674)">
<circle cx="1170.51" cy="827.367" r="909.082" fill="#5203B7" fill-opacity="0.4"/>
</g>
</g>
<mask id="mask2_2598_674" style="mask-type:alpha" maskUnits="userSpaceOnUse" x="148" y="-561" width="1516" height="758">
<rect x="1663.51" y="196.568" width="1515.14" height="757.568" transform="rotate(-180 1663.51 196.568)" fill="url(#paint2_radial_2598_674)"/>
</mask>
<g mask="url(#mask2_2598_674)">
</g>
<g clip-path="url(#clip2_2598_674)">
<rect opacity="0.4" x="1663.51" y="196.568" width="1515.14" height="757.568" transform="rotate(-180 1663.51 196.568)" fill="url(#paint3_radial_2598_674)"/>
<g opacity="0.7">
<path d="M880.806 56.1245C880.463 56.3473 880.365 56.8063 880.588 57.1497C880.811 57.493 881.27 57.5907 881.613 57.3679C881.957 57.1451 882.054 56.6861 881.832 56.3427C881.609 55.9994 881.15 55.9017 880.806 56.1245Z" fill="white"/>
<path d="M827.076 26.4589C826.733 26.6818 826.635 27.1407 826.858 27.4841C827.081 27.8275 827.54 27.9252 827.883 27.7024C828.227 27.4795 828.324 27.0205 828.102 26.6772C827.879 26.3338 827.42 26.2361 827.076 26.4589Z" fill="white"/>
<path opacity="0.3" d="M857.389 70.4359C857.046 70.6587 856.948 71.1177 857.171 71.461C857.393 71.8044 857.852 71.9021 858.196 71.6793C858.539 71.4565 858.637 70.9975 858.414 70.6541C858.191 70.3107 857.732 70.213 857.389 70.4359Z" fill="white"/>
<path opacity="0.11" d="M974.082 30.9505C973.739 31.1733 973.641 31.6323 973.864 31.9757C974.087 32.3191 974.546 32.4168 974.889 32.1939C975.232 31.9711 975.33 31.5121 975.107 31.1688C974.884 30.8254 974.425 30.7277 974.082 30.9505Z" fill="white"/>
<path opacity="0.11" d="M856.827 32.7934C856.483 33.0162 856.385 33.4752 856.608 33.8186C856.831 34.1619 857.29 34.2596 857.633 34.0368C857.977 33.814 858.075 33.355 857.852 33.0116C857.629 32.6683 857.17 32.5706 856.827 32.7934Z" fill="white"/>
<path d="M786.363 17.5233C785.847 17.8577 785.701 18.5466 786.035 19.0619C786.37 19.5773 787.059 19.7239 787.574 19.3895C788.089 19.0551 788.236 18.3662 787.901 17.8508C787.567 17.3355 786.878 17.1889 786.363 17.5233Z" fill="white"/>
<path d="M789.064 65.2733C788.549 65.6078 788.402 66.2966 788.737 66.812C789.071 67.3273 789.76 67.474 790.276 67.1395C790.791 66.8051 790.938 66.1162 790.603 65.6009C790.269 65.0856 789.58 64.9389 789.064 65.2733Z" fill="white"/>
<path d="M796.334 109.169C795.819 109.504 795.672 110.192 796.007 110.708C796.341 111.223 797.03 111.37 797.545 111.035C798.061 110.701 798.207 110.012 797.873 109.497C797.538 108.981 796.85 108.835 796.334 109.169Z" fill="white"/>
<path opacity="0.3" d="M948.682 21.7949C947.995 22.2409 947.799 23.1597 948.245 23.847C948.692 24.5343 949.61 24.7298 950.298 24.2838C950.985 23.8378 951.18 22.919 950.734 22.2317C950.288 21.5444 949.37 21.3488 948.682 21.7949Z" fill="white"/>
<path d="M977.348 65.954C976.66 66.4 976.465 67.3188 976.911 68.0061C977.357 68.6934 978.275 68.889 978.963 68.4429C979.65 67.9969 979.846 67.0781 979.4 66.3908C978.954 65.7035 978.035 65.5079 977.348 65.954Z" fill="white"/>
<path d="M907.771 28.8973C907.256 29.2318 907.109 29.9206 907.443 30.4359C907.778 30.9513 908.467 31.0979 908.982 30.7635C909.497 30.4291 909.644 29.7402 909.31 29.2249C908.975 28.7095 908.286 28.5629 907.771 28.8973Z" fill="white"/>
<path opacity="0.3" d="M893.344 72.7334C892.657 73.1795 892.461 74.0982 892.907 74.7855C893.353 75.4728 894.272 75.6684 894.96 75.2224C895.647 74.7764 895.842 73.8576 895.396 73.1703C894.95 72.483 894.032 72.2874 893.344 72.7334Z" fill="white"/>
<path opacity="0.3" d="M803.107 68.5322C802.42 68.9782 802.224 69.897 802.67 70.5843C803.116 71.2716 804.035 71.4672 804.722 71.0212C805.409 70.5751 805.605 69.6564 805.159 68.9691C804.713 68.2818 803.794 68.0862 803.107 68.5322Z" fill="white"/>
<path opacity="0.3" d="M875.076 20.0618C874.389 20.5079 874.193 21.4266 874.639 22.114C875.085 22.8013 876.004 22.9968 876.691 22.5508C877.378 22.1048 877.574 21.186 877.128 20.4987C876.682 19.8114 875.763 19.6158 875.076 20.0618Z" fill="white"/>
<path opacity="0.11" d="M840.719 70.6423C840.032 71.0884 839.836 72.0071 840.282 72.6944C840.728 73.3817 841.647 73.5773 842.334 73.1313C843.022 72.6853 843.217 71.7665 842.771 71.0792C842.325 70.3919 841.406 70.1963 840.719 70.6423Z" fill="white"/>
<path opacity="0.11" d="M685.959 30.8082C685.271 31.2542 685.076 32.173 685.522 32.8603C685.968 33.5476 686.887 33.7432 687.574 33.2972C688.261 32.8511 688.457 31.9324 688.011 31.2451C687.565 30.5578 686.646 30.3622 685.959 30.8082Z" fill="white"/>
<path d="M677.481 26.5891C676.966 26.9235 676.819 27.6124 677.153 28.1277C677.488 28.6431 678.177 28.7897 678.692 28.4553C679.207 28.1209 679.354 27.432 679.02 26.9167C678.685 26.4013 677.996 26.2547 677.481 26.5891Z" fill="white"/>
<path d="M665.427 52.9701C664.911 53.3045 664.765 53.9933 665.099 54.5087C665.434 55.024 666.122 55.1707 666.638 54.8362C667.153 54.5018 667.3 53.813 666.965 53.2976C666.631 52.7823 665.942 52.6356 665.427 52.9701Z" fill="white"/>
<path d="M719.108 19.9067C718.592 20.2411 718.446 20.93 718.78 21.4453C719.115 21.9606 719.803 22.1073 720.319 21.7729C720.834 21.4384 720.981 20.7496 720.646 20.2342C720.312 19.7189 719.623 19.5722 719.108 19.9067Z" fill="white"/>
<path d="M672.09 5.33787C671.747 5.5607 671.649 6.01966 671.872 6.36302C672.095 6.70638 672.554 6.80412 672.897 6.58129C673.241 6.35846 673.339 5.89944 673.116 5.55608C672.893 5.21272 672.434 5.11504 672.09 5.33787Z" fill="white"/>
<path d="M536.488 93.333C536.144 93.5558 536.047 94.0148 536.27 94.3582C536.492 94.7015 536.951 94.7993 537.295 94.5764C537.638 94.3536 537.736 93.8946 537.513 93.5513C537.29 93.2079 536.831 93.1102 536.488 93.333Z" fill="white"/>
<path d="M490.49 170.921C490.147 171.144 490.049 171.603 490.272 171.946C490.495 172.29 490.954 172.387 491.297 172.165C491.64 171.942 491.738 171.483 491.515 171.139C491.292 170.796 490.833 170.698 490.49 170.921Z" fill="white"/>
<path d="M436.761 141.258C436.418 141.481 436.32 141.94 436.543 142.283C436.766 142.627 437.225 142.724 437.568 142.501C437.911 142.279 438.009 141.82 437.786 141.476C437.564 141.133 437.105 141.035 436.761 141.258Z" fill="white"/>
<path opacity="0.11" d="M543.411 65.8604C543.068 66.0832 542.97 66.5422 543.193 66.8856C543.416 67.2289 543.875 67.3266 544.218 67.1038C544.562 66.881 544.659 66.422 544.436 66.0786C544.214 65.7353 543.755 65.6376 543.411 65.8604Z" fill="white"/>
<path d="M749.524 47.0186C749.181 47.2415 749.083 47.7004 749.306 48.0438C749.529 48.3872 749.988 48.4849 750.331 48.262C750.675 48.0392 750.772 47.5802 750.549 47.2368C750.327 46.8935 749.868 46.7958 749.524 47.0186Z" fill="white"/>
<path d="M654.542 110.424C654.199 110.647 654.101 111.106 654.324 111.45C654.547 111.793 655.005 111.891 655.349 111.668C655.692 111.445 655.79 110.986 655.567 110.643C655.344 110.299 654.885 110.202 654.542 110.424Z" fill="white"/>
<path opacity="0.3" d="M728.632 39.3579C728.289 39.5807 728.191 40.0397 728.414 40.3831C728.637 40.7264 729.096 40.8242 729.439 40.6013C729.782 40.3785 729.88 39.9195 729.657 39.5761C729.434 39.2328 728.975 39.1351 728.632 39.3579Z" fill="white"/>
<path opacity="0.3" d="M467.074 185.231C466.73 185.454 466.632 185.913 466.855 186.256C467.078 186.6 467.537 186.697 467.88 186.475C468.224 186.252 468.322 185.793 468.099 185.449C467.876 185.106 467.417 185.008 467.074 185.231Z" fill="white"/>
<path opacity="0.11" d="M583.765 145.748C583.422 145.97 583.324 146.429 583.547 146.773C583.77 147.116 584.229 147.214 584.572 146.991C584.916 146.768 585.013 146.309 584.791 145.966C584.568 145.622 584.109 145.525 583.765 145.748Z" fill="white"/>
<path opacity="0.11" d="M466.511 147.59C466.168 147.813 466.07 148.272 466.293 148.615C466.516 148.959 466.975 149.057 467.318 148.834C467.662 148.611 467.759 148.152 467.536 147.809C467.314 147.465 466.855 147.367 466.511 147.59Z" fill="white"/>
<path opacity="0.3" d="M620.245 39.8645C619.558 40.3105 619.362 41.2292 619.808 41.9166C620.254 42.6039 621.173 42.7995 621.86 42.3534C622.547 41.9074 622.743 40.9886 622.297 40.3013C621.851 39.614 620.932 39.4184 620.245 39.8645Z" fill="white"/>
<path opacity="0.11" d="M595.653 82.3404C594.966 82.7865 594.77 83.7052 595.217 84.3925C595.663 85.0798 596.581 85.2754 597.269 84.8294C597.956 84.3833 598.151 83.4646 597.705 82.7773C597.259 82.09 596.341 81.8944 595.653 82.3404Z" fill="white"/>
<path d="M610.089 103.909C609.574 104.244 609.427 104.932 609.761 105.448C610.096 105.963 610.785 106.11 611.3 105.775C611.815 105.441 611.962 104.752 611.627 104.237C611.293 103.721 610.604 103.575 610.089 103.909Z" fill="white"/>
<path d="M610.622 10.7476C610.106 11.082 609.96 11.7709 610.294 12.2862C610.629 12.8016 611.317 12.9482 611.833 12.6138C612.348 12.2794 612.495 11.5905 612.16 11.0752C611.826 10.5598 611.137 10.4132 610.622 10.7476Z" fill="white"/>
<path d="M396.046 132.319C395.531 132.654 395.384 133.343 395.719 133.858C396.053 134.373 396.742 134.52 397.257 134.186C397.773 133.851 397.919 133.162 397.585 132.647C397.25 132.132 396.562 131.985 396.046 132.319Z" fill="white"/>
<path d="M631.869 72.0942C631.354 72.4287 631.207 73.1175 631.541 73.6329C631.876 74.1482 632.565 74.2949 633.08 73.9605C633.595 73.626 633.742 72.9371 633.408 72.4218C633.073 71.9065 632.384 71.7598 631.869 72.0942Z" fill="white"/>
<path d="M536.127 30.8044C535.612 31.1389 535.465 31.8277 535.8 32.3431C536.134 32.8584 536.823 33.0051 537.339 32.6706C537.854 32.3362 538 31.6473 537.666 31.132C537.332 30.6167 536.643 30.47 536.127 30.8044Z" fill="white"/>
<path d="M398.749 180.069C398.234 180.404 398.087 181.093 398.421 181.608C398.756 182.123 399.445 182.27 399.96 181.936C400.475 181.601 400.622 180.912 400.288 180.397C399.953 179.882 399.264 179.735 398.749 180.069Z" fill="white"/>
<path opacity="0.3" d="M558.377 136.59C557.689 137.036 557.494 137.955 557.94 138.642C558.386 139.33 559.305 139.525 559.992 139.079C560.679 138.633 560.875 137.715 560.429 137.027C559.983 136.34 559.064 136.144 558.377 136.59Z" fill="white"/>
<path d="M587.032 180.75C586.345 181.196 586.149 182.115 586.596 182.802C587.042 183.489 587.96 183.685 588.648 183.239C589.335 182.793 589.531 181.874 589.084 181.187C588.638 180.5 587.72 180.304 587.032 180.75Z" fill="white"/>
<path d="M517.455 143.693C516.939 144.028 516.793 144.717 517.127 145.232C517.462 145.747 518.15 145.894 518.666 145.559C519.181 145.225 519.328 144.536 518.993 144.021C518.659 143.505 517.97 143.359 517.455 143.693Z" fill="white"/>
<path opacity="0.3" d="M503.029 187.529C502.342 187.975 502.146 188.893 502.592 189.581C503.038 190.268 503.957 190.464 504.644 190.018C505.332 189.572 505.527 188.653 505.081 187.965C504.635 187.278 503.716 187.083 503.029 187.529Z" fill="white"/>
<path opacity="0.3" d="M412.79 183.328C412.103 183.774 411.907 184.693 412.353 185.38C412.8 186.067 413.718 186.263 414.406 185.817C415.093 185.371 415.288 184.452 414.842 183.765C414.396 183.078 413.478 182.882 412.79 183.328Z" fill="white"/>
<path opacity="0.3" d="M484.76 134.858C484.073 135.304 483.878 136.223 484.324 136.91C484.77 137.597 485.688 137.793 486.376 137.347C487.063 136.901 487.259 135.982 486.812 135.295C486.366 134.607 485.448 134.412 484.76 134.858Z" fill="white"/>
<path opacity="0.11" d="M450.404 185.438C449.716 185.884 449.521 186.803 449.967 187.49C450.413 188.178 451.332 188.373 452.019 187.927C452.706 187.481 452.902 186.562 452.456 185.875C452.01 185.188 451.091 184.992 450.404 185.438Z" fill="white"/>
</g>
</g>
</g>
<defs>
<filter id="filter0_f_2598_674" x="-766.548" y="-42.3022" width="1112.91" height="1112.91" filterUnits="userSpaceOnUse" color-interpolation-filters="sRGB">
<feFlood flood-opacity="0" result="BackgroundImageFix"/>
<feBlend mode="normal" in="SourceGraphic" in2="BackgroundImageFix" result="shape"/>
<feGaussianBlur stdDeviation="174.71" result="effect1_foregroundBlur_2598_674"/>
</filter>
<filter id="filter1_f_2598_674" x="1092.06" y="-42.3022" width="1112.91" height="1112.91" filterUnits="userSpaceOnUse" color-interpolation-filters="sRGB">
<feFlood flood-opacity="0" result="BackgroundImageFix"/>
<feBlend mode="normal" in="SourceGraphic" in2="BackgroundImageFix" result="shape"/>
<feGaussianBlur stdDeviation="174.71" result="effect1_foregroundBlur_2598_674"/>
</filter>
<filter id="filter2_f_2598_674" x="-1189.32" y="-301.41" width="2263.87" height="2263.87" filterUnits="userSpaceOnUse" color-interpolation-filters="sRGB">
<feFlood flood-opacity="0" result="BackgroundImageFix"/>
<feBlend mode="normal" in="SourceGraphic" in2="BackgroundImageFix" result="shape"/>
<feGaussianBlur stdDeviation="382.572" result="effect1_foregroundBlur_2598_674"/>
</filter>
<filter id="filter3_f_2598_674" x="-503.717" y="-846.859" width="3348.45" height="3348.45" filterUnits="userSpaceOnUse" color-interpolation-filters="sRGB">
<feFlood flood-opacity="0" result="BackgroundImageFix"/>
<feBlend mode="normal" in="SourceGraphic" in2="BackgroundImageFix" result="shape"/>
<feGaussianBlur stdDeviation="382.572" result="effect1_foregroundBlur_2598_674"/>
</filter>
<radialGradient id="paint0_radial_2598_674" cx="0" cy="0" r="1" gradientUnits="userSpaceOnUse" gradientTransform="translate(-209.222 514.151) rotate(90) scale(617.06 1033.82)">
<stop stop-color="#D9D9D9" stop-opacity="0.2"/>
<stop offset="0.802083" stop-color="#D9D9D9" stop-opacity="0"/>
</radialGradient>
<radialGradient id="paint1_radial_2598_674" cx="0" cy="0" r="1" gradientUnits="userSpaceOnUse" gradientTransform="translate(1649.39 514.151) rotate(90) scale(617.06 1033.82)">
<stop stop-color="#D9D9D9" stop-opacity="0.2"/>
<stop offset="0.802083" stop-color="#D9D9D9" stop-opacity="0"/>
</radialGradient>
<radialGradient id="paint2_radial_2598_674" cx="0" cy="0" r="1" gradientUnits="userSpaceOnUse" gradientTransform="translate(2421.08 575.353) rotate(26.5651) scale(846.987 677.59)">
<stop/>
<stop offset="0.8" stop-opacity="0"/>
</radialGradient>
<radialGradient id="paint3_radial_2598_674" cx="0" cy="0" r="1" gradientUnits="userSpaceOnUse" gradientTransform="translate(2421.08 575.353) rotate(26.5651) scale(846.987 677.59)">
<stop stop-color="#5203B7"/>
<stop offset="0.7" stop-opacity="0"/>
</radialGradient>
<clipPath id="clip0_2598_674">
<rect width="1440" height="1024" fill="white"/>
</clipPath>
<clipPath id="clip1_2598_674">
<rect width="2430.53" height="1363.62" fill="white" transform="translate(-457 -130.957)"/>
</clipPath>
<clipPath id="clip2_2598_674">
<rect width="1515.14" height="757.568" fill="white" transform="translate(1663.51 196.568) rotate(-180)"/>
</clipPath>
</defs>
</svg>
