<svg width="758" height="880" viewBox="0 0 758 880" fill="none" xmlns="http://www.w3.org/2000/svg">
<path d="M705.393 844H705.665C705.696 844.004 705.726 844.01 705.755 844.012C705.838 844.019 705.921 844.022 706.004 844.032C706.908 844.138 707.749 844.546 708.391 845.191C708.415 845.223 708.448 845.246 708.487 845.257C708.525 845.268 708.567 845.266 708.604 845.252H708.612C709.281 845.108 709.93 844.878 710.541 844.568C710.679 844.499 710.813 844.422 710.949 844.35C710.972 844.338 710.993 844.316 711.03 844.327C711.023 844.354 711.019 844.378 711.01 844.403C710.819 844.948 710.514 845.446 710.114 845.863C709.891 846.097 709.641 846.303 709.368 846.477C709.352 846.488 709.336 846.502 709.311 846.52C709.333 846.52 709.339 846.52 709.347 846.52C709.926 846.447 710.495 846.31 711.044 846.111C711.224 846.045 711.399 845.966 711.575 845.894V845.924C711.56 845.944 711.544 845.964 711.529 845.984C711.027 846.714 710.411 847.359 709.706 847.894C709.559 848.005 709.572 847.953 709.576 848.16C709.59 848.685 709.569 849.211 709.513 849.733C709.42 850.536 709.246 851.328 708.993 852.096C708.757 852.812 708.456 853.504 708.092 854.163C707.581 855.091 706.947 855.946 706.206 856.704C705.941 856.974 705.662 857.231 705.37 857.472C704.373 858.299 703.234 858.94 702.008 859.363C701.344 859.593 700.66 859.76 699.965 859.863C699.605 859.916 699.244 859.956 698.88 859.974C698.788 859.979 698.696 859.991 698.603 860H697.615C697.583 859.995 697.551 859.989 697.519 859.986C697.262 859.964 697.005 859.949 696.749 859.92C696.189 859.856 695.635 859.749 695.091 859.601C694.433 859.422 693.792 859.185 693.175 858.892C692.772 858.7 692.38 858.485 692.001 858.247C691.979 858.234 691.958 858.217 691.937 858.201C691.939 858.194 691.941 858.188 691.943 858.181C692.636 858.255 693.335 858.245 694.025 858.149C694.718 858.052 695.396 857.864 696.04 857.589C696.687 857.316 697.295 856.958 697.848 856.526C697.814 856.519 697.798 856.515 697.782 856.514C697.682 856.504 697.581 856.498 697.479 856.486C697.008 856.432 696.551 856.295 696.129 856.08C695.517 855.77 694.995 855.31 694.61 854.743C694.411 854.453 694.252 854.137 694.137 853.805C694.13 853.778 694.125 853.75 694.122 853.722C694.132 853.718 694.142 853.716 694.153 853.714C694.171 853.715 694.189 853.716 694.206 853.719C694.466 853.761 694.728 853.779 694.991 853.772C695.269 853.764 695.545 853.727 695.816 853.662C695.832 853.657 695.847 853.65 695.862 853.642C695.853 853.633 695.85 853.629 695.846 853.627L695.771 853.608C694.944 853.409 694.201 852.951 693.652 852.302C693.161 851.734 692.842 851.038 692.734 850.296C692.706 850.109 692.7 849.916 692.685 849.731C692.687 849.699 692.691 849.667 692.699 849.636C692.736 849.653 692.76 849.663 692.784 849.676C693.096 849.839 693.428 849.96 693.772 850.036C693.969 850.081 694.169 850.11 694.371 850.121C694.396 850.122 694.422 850.122 694.447 850.121L694.453 850.103C694.04 849.815 693.685 849.453 693.403 849.036C693.123 848.62 692.924 848.157 692.814 847.668C692.703 847.177 692.686 846.668 692.764 846.171C692.839 845.674 693.011 845.197 693.273 844.768C693.279 844.771 693.286 844.774 693.292 844.779C693.306 844.793 693.319 844.809 693.332 844.824C693.736 845.313 694.181 845.767 694.66 846.182C695.445 846.863 696.32 847.434 697.26 847.879C698.089 848.272 698.963 848.564 699.862 848.748C700.31 848.839 700.763 848.904 701.219 848.942C701.316 848.95 701.416 848.956 701.514 848.959C701.563 848.959 701.571 848.947 701.566 848.9C701.565 848.889 701.562 848.88 701.56 848.87C701.494 848.54 701.469 848.204 701.484 847.869C701.498 847.517 701.559 847.17 701.665 846.835C701.896 846.094 702.339 845.437 702.938 844.944C703.546 844.433 704.293 844.116 705.083 844.033C705.193 844.017 705.292 844.009 705.393 844Z" fill="white"/>
<path d="M753.983 852.456C753.977 852.531 753.971 852.613 753.967 852.692C753.949 853.031 753.907 853.369 753.844 853.703C753.592 855.039 753.013 856.292 752.159 857.35C751.305 858.408 750.203 859.238 748.95 859.766C748.774 859.84 748.595 859.906 748.415 859.967C748.303 860.006 748.18 860.004 748.068 859.961C747.996 859.932 747.935 859.882 747.893 859.818C747.85 859.753 747.828 859.677 747.83 859.6C747.83 859.227 747.835 858.855 747.836 858.478C747.836 858.074 747.841 857.671 747.836 857.268C747.838 856.955 747.779 856.645 747.662 856.354C747.582 856.157 747.46 855.979 747.304 855.833L747.289 855.815L747.462 855.793C748.038 855.731 748.6 855.58 749.129 855.346C749.714 855.082 750.199 854.639 750.515 854.08C750.698 853.749 750.829 853.393 750.905 853.023C751.003 852.56 751.043 852.087 751.023 851.615C751.004 850.87 750.719 850.157 750.22 849.605C750.208 849.594 750.2 849.58 750.197 849.564C750.194 849.548 750.196 849.532 750.203 849.517C750.321 849.181 750.37 848.825 750.347 848.47C750.326 848.112 750.249 847.761 750.119 847.427C750.116 847.415 750.109 847.404 750.1 847.396C750.09 847.388 750.078 847.383 750.066 847.382C749.911 847.363 749.754 847.37 749.602 847.404C749.236 847.481 748.884 847.615 748.56 847.801C748.33 847.928 748.109 848.071 747.884 848.208C747.874 848.216 747.861 848.221 747.848 848.223C747.836 848.225 747.822 848.224 747.81 848.22C747.449 848.123 747.08 848.052 746.709 848.008C746.292 847.959 745.872 847.944 745.453 847.963C745.152 847.976 744.852 848.006 744.554 848.055C744.293 848.097 744.035 848.153 743.781 848.222C743.77 848.224 743.76 848.224 743.749 848.222C743.738 848.22 743.728 848.216 743.719 848.211C743.367 847.971 742.993 847.765 742.602 847.596C742.371 847.496 742.127 847.426 741.878 847.388C741.762 847.369 741.643 847.369 741.527 847.388C741.518 847.39 741.51 847.394 741.503 847.4C741.495 847.406 741.49 847.413 741.485 847.421C741.324 847.819 741.242 848.245 741.246 848.675C741.248 848.97 741.302 849.263 741.404 849.541C741.407 849.551 741.408 849.561 741.405 849.571C741.402 849.581 741.396 849.59 741.388 849.596C741.084 849.932 740.857 850.329 740.722 850.761C740.626 851.069 740.576 851.391 740.573 851.714C740.568 852.047 740.589 852.381 740.637 852.711C740.705 853.233 740.878 853.736 741.147 854.19C741.437 854.659 741.851 855.04 742.343 855.289C742.726 855.485 743.135 855.624 743.557 855.703C743.794 855.749 744.033 855.778 744.271 855.817L744.298 855.823L744.286 855.84C744.074 856.042 743.924 856.3 743.852 856.584C743.823 856.685 743.808 856.787 743.785 856.889C743.781 856.904 743.772 856.918 743.759 856.927C743.469 857.06 743.155 857.13 742.837 857.132C742.58 857.133 742.326 857.071 742.099 856.952C741.871 856.833 741.676 856.659 741.531 856.447C741.448 856.335 741.377 856.213 741.295 856.1C741.129 855.863 740.911 855.667 740.657 855.528C740.424 855.403 740.153 855.367 739.896 855.427C739.743 855.464 739.715 855.555 739.811 855.68C739.882 855.771 739.971 855.848 740.073 855.903C740.248 856.003 740.398 856.14 740.514 856.305C740.715 856.566 740.88 856.853 741.004 857.158C741.06 857.304 741.14 857.44 741.239 857.561C741.447 857.804 741.724 857.978 742.033 858.059C742.309 858.136 742.595 858.17 742.881 858.16C743.169 858.153 743.457 858.123 743.74 858.069C743.74 858.085 743.74 858.099 743.74 858.114C743.744 858.598 743.748 859.083 743.751 859.567C743.755 859.644 743.74 859.721 743.707 859.79C743.675 859.852 743.627 859.904 743.567 859.941C743.508 859.978 743.44 859.998 743.37 860C743.252 860.003 743.135 859.981 743.027 859.934C741.784 859.49 740.666 858.753 739.767 857.785C738.869 856.817 738.217 855.647 737.866 854.374C737.759 853.988 737.682 853.593 737.635 853.195C737.474 851.866 737.639 850.518 738.118 849.269C738.597 848.019 739.374 846.905 740.382 846.025C741.207 845.302 742.169 844.753 743.211 844.41C743.648 844.266 744.097 844.159 744.552 844.092C744.848 844.046 745.146 844.018 745.445 844.007C745.465 844.006 745.486 844.004 745.505 844H746.05C746.072 844.004 746.094 844.007 746.117 844.008C746.431 844.02 746.745 844.05 747.056 844.1C747.524 844.171 747.984 844.285 748.432 844.439C749.668 844.863 750.785 845.575 751.691 846.517C752.597 847.458 753.267 848.601 753.644 849.852C753.825 850.458 753.935 851.083 753.97 851.714C753.975 851.788 753.981 851.863 753.985 851.937L753.983 852.456Z" fill="white"/>
<rect width="719.963" height="44.6333" transform="matrix(1 4.5575e-08 1.64003e-07 -1 161.821 41.1333)" fill="url(#paint0_linear_6702_167838)"/>
<rect width="648.559" height="43.2385" transform="matrix(1 4.09958e-08 1.82322e-07 -1 299.999 249.804)" fill="url(#paint1_linear_6702_167838)"/>
<rect x="1365.25" y="761.5" width="673.311" height="60.4995" transform="rotate(180 1365.25 761.5)" fill="url(#paint2_linear_6702_167838)"/>
<rect width="694.29" height="43.2385" transform="matrix(1 5.75823e-08 1.29804e-07 -1 0.798584 753.682)" fill="url(#paint3_linear_6702_167838)"/>
<rect width="688.919" height="43.2385" transform="matrix(1 4.43968e-08 1.68355e-07 -1 174.427 82.3096)" fill="url(#paint4_linear_6702_167838)"/>
<rect width="696.255" height="44.6333" transform="matrix(1 3.91248e-08 1.91041e-07 -1 211.619 124.88)" fill="url(#paint5_linear_6702_167838)"/>
<rect width="665.373" height="43.2385" transform="matrix(1 3.91248e-08 1.91041e-07 -1 231.271 166.057)" fill="url(#paint6_linear_6702_167838)"/>
<rect width="727.138" height="44.6333" transform="matrix(1 3.91248e-08 1.91041e-07 -1 234.66 208.627)" fill="url(#paint7_linear_6702_167838)"/>
<rect x="1346.42" y="712.506" width="634.84" height="43.2846" transform="rotate(180 1346.42 712.506)" fill="url(#paint8_linear_6702_167838)"/>
<rect width="654.62" height="44.6333" transform="matrix(1 5.75823e-08 1.29804e-07 -1 65.1075 712.506)" fill="url(#paint9_linear_6702_167838)"/>
<rect width="642.913" height="44.6333" transform="matrix(1 4.09958e-08 1.82322e-07 -1 286.797 292.375)" fill="url(#paint10_linear_6702_167838)"/>
<rect x="1361.94" y="804.784" width="658.735" height="51.1024" transform="rotate(180 1361.94 804.784)" fill="url(#paint11_linear_6702_167838)"/>
<rect width="679.26" height="44.6333" transform="matrix(1 5.75823e-08 1.29804e-07 -1 30.8577 796.253)" fill="url(#paint12_linear_6702_167838)"/>
<rect width="568.43" height="44.6333" transform="matrix(1 4.74795e-08 1.57424e-07 -1 337.22 334.946)" fill="url(#paint13_linear_6702_167838)"/>
<rect width="589.42" height="44.6333" transform="matrix(1 5.75823e-08 1.29804e-07 -1 197.891 628.758)" fill="url(#paint14_linear_6702_167838)"/>
<rect x="1428.59" y="852.433" width="699.575" height="47.6511" transform="rotate(180 1428.59 852.433)" fill="url(#paint15_linear_6702_167838)"/>
<rect width="721.372" height="44.6333" transform="matrix(1 5.75823e-08 1.29804e-07 -1 15.3603 838.824)" fill="url(#paint16_linear_6702_167838)"/>
<rect width="570.76" height="43.2385" transform="matrix(1 5.75823e-08 1.29804e-07 -1 247.857 543.616)" fill="url(#paint17_linear_6702_167838)"/>
<rect width="570.316" height="43.2385" transform="matrix(1 4.74795e-08 1.57424e-07 -1 323.096 376.122)" fill="url(#paint18_linear_6702_167838)"/>
<rect x="1334.9" y="669.935" width="589.12" height="43.9943" transform="rotate(180 1334.9 669.935)" fill="url(#paint19_linear_6702_167838)"/>
<rect width="607.476" height="43.2385" transform="matrix(1 5.75823e-08 1.29804e-07 -1 149.377 669.935)" fill="url(#paint20_linear_6702_167838)"/>
<rect x="1413.64" y="890" width="684.62" height="41.932" transform="rotate(180 1413.64 890)" fill="url(#paint21_linear_6702_167838)"/>
<rect width="705.951" height="43.2385" transform="matrix(1 3.74131e-08 1.99781e-07 -1 30.7819 880)" fill="url(#paint22_linear_6702_167838)"/>
<rect width="597.769" height="44.6333" transform="matrix(1 5.75823e-08 1.29804e-07 -1 284.016 418.693)" fill="url(#paint23_linear_6702_167838)"/>
<rect width="626.545" height="43.2385" transform="matrix(1 5.75823e-08 1.29804e-07 -1 244.234 459.869)" fill="url(#paint24_linear_6702_167838)"/>
<rect width="578.578" height="44.6333" transform="matrix(1 5.75823e-08 1.29804e-07 -1 271.039 502.44)" fill="url(#paint25_linear_6702_167838)"/>
<rect width="624.901" height="44.6333" transform="matrix(1 5.75823e-08 1.29804e-07 -1 176.871 586.188)" fill="url(#paint26_linear_6702_167838)"/>
<defs>
<linearGradient id="paint0_linear_6702_167838" x1="-4.38636e-06" y1="22.3166" x2="719.963" y2="22.3158" gradientUnits="userSpaceOnUse">
<stop stop-color="#0D0D0D" stop-opacity="0"/>
<stop offset="0.195" stop-color="#490F0F"/>
<stop offset="0.675" stop-color="#FED0FC"/>
<stop offset="1" stop-color="#FFFCD6"/>
</linearGradient>
<linearGradient id="paint1_linear_6702_167838" x1="-3.95133e-06" y1="21.6192" x2="648.559" y2="21.6185" gradientUnits="userSpaceOnUse">
<stop stop-color="#0D0D0D" stop-opacity="0"/>
<stop offset="0.195" stop-color="#490F0F"/>
<stop offset="0.675" stop-color="#FED0FC"/>
<stop offset="1" stop-color="#FFFCD6"/>
</linearGradient>
<linearGradient id="paint2_linear_6702_167838" x1="1365.25" y1="791.749" x2="2038.56" y2="791.749" gradientUnits="userSpaceOnUse">
<stop stop-color="#0D0D0D" stop-opacity="0"/>
<stop offset="0.195" stop-color="#490F0F"/>
<stop offset="0.675" stop-color="#FED0FC"/>
<stop offset="1" stop-color="#FFFCD6"/>
</linearGradient>
<linearGradient id="paint3_linear_6702_167838" x1="-4.22994e-06" y1="21.6192" x2="694.29" y2="21.6184" gradientUnits="userSpaceOnUse">
<stop stop-color="#0D0D0D" stop-opacity="0"/>
<stop offset="0.195" stop-color="#490F0F"/>
<stop offset="0.675" stop-color="#FED0FC"/>
<stop offset="1" stop-color="#FFFCD6"/>
</linearGradient>
<linearGradient id="paint4_linear_6702_167838" x1="-4.19722e-06" y1="21.6192" x2="688.919" y2="21.6184" gradientUnits="userSpaceOnUse">
<stop stop-color="#0D0D0D" stop-opacity="0"/>
<stop offset="0.195" stop-color="#490F0F"/>
<stop offset="0.675" stop-color="#FED0FC"/>
<stop offset="1" stop-color="#FFFCD6"/>
</linearGradient>
<linearGradient id="paint5_linear_6702_167838" x1="-4.24192e-06" y1="22.3166" x2="696.255" y2="22.3158" gradientUnits="userSpaceOnUse">
<stop stop-color="#0D0D0D" stop-opacity="0"/>
<stop offset="0.195" stop-color="#490F0F"/>
<stop offset="0.675" stop-color="#FED0FC"/>
<stop offset="1" stop-color="#FFFCD6"/>
</linearGradient>
<linearGradient id="paint6_linear_6702_167838" x1="-4.05377e-06" y1="21.6192" x2="665.373" y2="21.6185" gradientUnits="userSpaceOnUse">
<stop stop-color="#0D0D0D" stop-opacity="0"/>
<stop offset="0.195" stop-color="#490F0F"/>
<stop offset="0.675" stop-color="#FED0FC"/>
<stop offset="1" stop-color="#FFFCD6"/>
</linearGradient>
<linearGradient id="paint7_linear_6702_167838" x1="-4.43007e-06" y1="22.3166" x2="727.138" y2="22.3158" gradientUnits="userSpaceOnUse">
<stop stop-color="#0D0D0D" stop-opacity="0"/>
<stop offset="0.195" stop-color="#490F0F"/>
<stop offset="0.675" stop-color="#FED0FC"/>
<stop offset="1" stop-color="#FFFCD6"/>
</linearGradient>
<linearGradient id="paint8_linear_6702_167838" x1="1346.42" y1="734.148" x2="1981.26" y2="734.147" gradientUnits="userSpaceOnUse">
<stop stop-color="#0D0D0D" stop-opacity="0"/>
<stop offset="0.195" stop-color="#490F0F"/>
<stop offset="0.675" stop-color="#FED0FC"/>
<stop offset="1" stop-color="#FFFCD6"/>
</linearGradient>
<linearGradient id="paint9_linear_6702_167838" x1="-3.98826e-06" y1="22.3166" x2="654.62" y2="22.3159" gradientUnits="userSpaceOnUse">
<stop stop-color="#0D0D0D" stop-opacity="0"/>
<stop offset="0.195" stop-color="#490F0F"/>
<stop offset="0.675" stop-color="#FED0FC"/>
<stop offset="1" stop-color="#FFFCD6"/>
</linearGradient>
<linearGradient id="paint10_linear_6702_167838" x1="-3.91693e-06" y1="22.3166" x2="642.913" y2="22.3159" gradientUnits="userSpaceOnUse">
<stop stop-color="#0D0D0D" stop-opacity="0"/>
<stop offset="0.195" stop-color="#490F0F"/>
<stop offset="0.675" stop-color="#FED0FC"/>
<stop offset="1" stop-color="#FFFCD6"/>
</linearGradient>
<linearGradient id="paint11_linear_6702_167838" x1="1361.94" y1="830.335" x2="2020.67" y2="830.335" gradientUnits="userSpaceOnUse">
<stop stop-color="#0D0D0D" stop-opacity="0"/>
<stop offset="0.195" stop-color="#490F0F"/>
<stop offset="0.675" stop-color="#FED0FC"/>
<stop offset="1" stop-color="#FFFCD6"/>
</linearGradient>
<linearGradient id="paint12_linear_6702_167838" x1="-4.13837e-06" y1="22.3166" x2="679.26" y2="22.3159" gradientUnits="userSpaceOnUse">
<stop stop-color="#0D0D0D" stop-opacity="0"/>
<stop offset="0.195" stop-color="#490F0F"/>
<stop offset="0.675" stop-color="#FED0FC"/>
<stop offset="1" stop-color="#FFFCD6"/>
</linearGradient>
<linearGradient id="paint13_linear_6702_167838" x1="-3.46315e-06" y1="22.3166" x2="568.43" y2="22.3161" gradientUnits="userSpaceOnUse">
<stop stop-color="#0D0D0D" stop-opacity="0"/>
<stop offset="0.195" stop-color="#490F0F"/>
<stop offset="0.675" stop-color="#FED0FC"/>
<stop offset="1" stop-color="#FFFCD6"/>
</linearGradient>
<linearGradient id="paint14_linear_6702_167838" x1="-3.59103e-06" y1="22.3166" x2="589.42" y2="22.316" gradientUnits="userSpaceOnUse">
<stop stop-color="#0D0D0D" stop-opacity="0"/>
<stop offset="0.195" stop-color="#490F0F"/>
<stop offset="0.675" stop-color="#FED0FC"/>
<stop offset="1" stop-color="#FFFCD6"/>
</linearGradient>
<linearGradient id="paint15_linear_6702_167838" x1="1428.59" y1="876.258" x2="2128.16" y2="876.257" gradientUnits="userSpaceOnUse">
<stop stop-color="#0D0D0D" stop-opacity="0"/>
<stop offset="0.195" stop-color="#490F0F"/>
<stop offset="0.675" stop-color="#FED0FC"/>
<stop offset="1" stop-color="#FFFCD6"/>
</linearGradient>
<linearGradient id="paint16_linear_6702_167838" x1="-4.39494e-06" y1="22.3166" x2="721.372" y2="22.3158" gradientUnits="userSpaceOnUse">
<stop stop-color="#0D0D0D" stop-opacity="0"/>
<stop offset="0.195" stop-color="#490F0F"/>
<stop offset="0.675" stop-color="#FED0FC"/>
<stop offset="1" stop-color="#FFFCD6"/>
</linearGradient>
<linearGradient id="paint17_linear_6702_167838" x1="-3.47734e-06" y1="21.6192" x2="570.76" y2="21.6187" gradientUnits="userSpaceOnUse">
<stop stop-color="#0D0D0D" stop-opacity="0"/>
<stop offset="0.195" stop-color="#490F0F"/>
<stop offset="0.675" stop-color="#FED0FC"/>
<stop offset="1" stop-color="#FFFCD6"/>
</linearGradient>
<linearGradient id="paint18_linear_6702_167838" x1="-3.47463e-06" y1="21.6192" x2="570.316" y2="21.6187" gradientUnits="userSpaceOnUse">
<stop stop-color="#0D0D0D" stop-opacity="0"/>
<stop offset="0.195" stop-color="#490F0F"/>
<stop offset="0.675" stop-color="#FED0FC"/>
<stop offset="1" stop-color="#FFFCD6"/>
</linearGradient>
<linearGradient id="paint19_linear_6702_167838" x1="1334.9" y1="691.932" x2="1924.02" y2="691.931" gradientUnits="userSpaceOnUse">
<stop stop-color="#0D0D0D" stop-opacity="0"/>
<stop offset="0.195" stop-color="#490F0F"/>
<stop offset="0.675" stop-color="#FED0FC"/>
<stop offset="1" stop-color="#FFFCD6"/>
</linearGradient>
<linearGradient id="paint20_linear_6702_167838" x1="-3.70103e-06" y1="21.6192" x2="607.476" y2="21.6186" gradientUnits="userSpaceOnUse">
<stop stop-color="#0D0D0D" stop-opacity="0"/>
<stop offset="0.195" stop-color="#490F0F"/>
<stop offset="0.675" stop-color="#FED0FC"/>
<stop offset="1" stop-color="#FFFCD6"/>
</linearGradient>
<linearGradient id="paint21_linear_6702_167838" x1="1413.64" y1="910.966" x2="2098.26" y2="910.965" gradientUnits="userSpaceOnUse">
<stop stop-color="#0D0D0D" stop-opacity="0"/>
<stop offset="0.195" stop-color="#490F0F"/>
<stop offset="0.675" stop-color="#FED0FC"/>
<stop offset="1" stop-color="#FFFCD6"/>
</linearGradient>
<linearGradient id="paint22_linear_6702_167838" x1="-4.30099e-06" y1="21.6192" x2="705.951" y2="21.6184" gradientUnits="userSpaceOnUse">
<stop stop-color="#0D0D0D" stop-opacity="0"/>
<stop offset="0.195" stop-color="#490F0F"/>
<stop offset="0.675" stop-color="#FED0FC"/>
<stop offset="1" stop-color="#FFFCD6"/>
</linearGradient>
<linearGradient id="paint23_linear_6702_167838" x1="-3.6419e-06" y1="22.3166" x2="597.769" y2="22.316" gradientUnits="userSpaceOnUse">
<stop stop-color="#0D0D0D" stop-opacity="0"/>
<stop offset="0.195" stop-color="#490F0F"/>
<stop offset="0.675" stop-color="#FED0FC"/>
<stop offset="1" stop-color="#FFFCD6"/>
</linearGradient>
<linearGradient id="paint24_linear_6702_167838" x1="-3.81721e-06" y1="21.6192" x2="626.545" y2="21.6186" gradientUnits="userSpaceOnUse">
<stop stop-color="#0D0D0D" stop-opacity="0"/>
<stop offset="0.195" stop-color="#490F0F"/>
<stop offset="0.675" stop-color="#FED0FC"/>
<stop offset="1" stop-color="#FFFCD6"/>
</linearGradient>
<linearGradient id="paint25_linear_6702_167838" x1="-3.52497e-06" y1="22.3166" x2="578.578" y2="22.3161" gradientUnits="userSpaceOnUse">
<stop stop-color="#0D0D0D" stop-opacity="0"/>
<stop offset="0.195" stop-color="#490F0F"/>
<stop offset="0.675" stop-color="#FED0FC"/>
<stop offset="1" stop-color="#FFFCD6"/>
</linearGradient>
<linearGradient id="paint26_linear_6702_167838" x1="-3.8072e-06" y1="22.3166" x2="624.901" y2="22.316" gradientUnits="userSpaceOnUse">
<stop stop-color="#0D0D0D" stop-opacity="0"/>
<stop offset="0.195" stop-color="#490F0F"/>
<stop offset="0.675" stop-color="#FED0FC"/>
<stop offset="1" stop-color="#FFFCD6"/>
</linearGradient>
</defs>
</svg>
