<svg width="254" height="29" viewBox="0 0 254 29" fill="none" xmlns="http://www.w3.org/2000/svg">
<path d="M23.5988 15.8096C23.3126 15.6433 23.0421 15.4553 22.8281 15.1988C22.2654 14.5245 22.3007 13.5929 22.8438 12.9186C23.1533 12.5345 23.5853 12.3562 23.9721 12.0713C24.3492 11.7946 24.6723 11.447 24.9254 11.0554C25.0291 10.895 25.1162 10.7257 25.1988 10.5534C25.5452 9.83363 25.6353 8.99825 25.4843 8.22775C25.2988 7.28272 24.7451 6.42645 23.9706 5.85287C23.6063 5.5836 23.1954 5.39042 22.7604 5.25989C22.4014 5.15248 22.0265 5.0958 21.6509 5.09431C21.1424 5.09281 20.7307 5.16516 20.1485 5.39266C19.8691 5.50156 19.6219 5.67908 19.3485 5.80215C19.075 5.92522 18.7438 6.00652 18.4305 6.00279C18.0617 5.99831 17.6981 5.88121 17.4029 5.66043C17.1339 5.45979 16.9319 5.17934 16.8079 4.87054C16.6734 4.53564 16.6697 4.21715 16.6697 3.86435C16.6697 3.06476 16.4165 2.27562 15.9493 1.62372C15.482 0.97182 14.839 0.492964 14.0968 0.227431C13.1127 -0.124625 12.0137 -0.0657005 11.0732 0.388541C10.8343 0.504153 10.603 0.645124 10.3934 0.808472C10.2124 0.949444 10.0456 1.10682 9.89084 1.27689C9.73308 1.45068 9.59111 1.63789 9.46716 1.83704C9.34321 2.03619 9.23579 2.24877 9.15015 2.46806C9.14715 2.47552 9.14414 2.48372 9.14114 2.49118C8.98413 2.92081 8.89399 3.36013 8.89023 3.83004C8.88723 4.26116 8.82864 4.70272 8.6168 5.08908C8.45078 5.39266 8.19913 5.64775 7.88963 5.80886C7.44417 6.04008 6.90556 6.10423 6.45333 5.90135C5.94026 5.67087 5.57217 5.44412 5.09441 5.28823C4.57458 5.11892 4.02394 5.06596 3.47406 5.12339C2.69281 5.20619 1.92358 5.52915 1.32262 6.06022C0.663063 6.6435 0.203327 7.42817 0.0605981 8.29264C-0.0821305 9.15712 0.0508324 9.98728 0.424931 10.7212C0.596206 11.0584 0.868892 11.4343 1.17613 11.7289C1.33464 11.8803 1.51267 12.0385 1.69897 12.1533C2.16922 12.445 2.58915 12.6851 2.87535 13.161C3.05639 13.4623 3.14804 13.8129 3.1255 14.1642C3.09771 14.5924 2.88287 14.9772 2.60342 15.3002C2.30895 15.6403 1.93335 15.785 1.59005 16.0364C0.922228 16.5257 0.443711 17.1925 0.197317 17.9391C-0.0490775 18.6858 -0.0716136 19.4891 0.168771 20.2872C0.214595 20.4386 0.279198 20.5982 0.343801 20.7414C0.398639 20.8637 0.46174 20.9846 0.530851 21.1032C0.925232 21.7737 1.54197 22.3503 2.28416 22.6702C3.01207 22.9843 3.80084 23.0984 4.59636 22.9529C4.9036 22.897 5.17253 22.812 5.4625 22.6882C5.98233 22.4651 6.20694 22.1556 7.0265 22.1093C7.36529 22.09 7.74165 22.1959 8.03612 22.3876C8.3351 22.5822 8.57323 22.8754 8.7122 23.2013C8.78957 23.3826 8.84967 23.5974 8.86319 23.7935C8.87897 24.0173 8.87446 24.2896 8.89249 24.5491C8.93906 25.2323 9.16517 25.8992 9.57158 26.4526C10.0193 27.0635 10.5602 27.5371 11.3692 27.8534C12.318 28.2241 13.4425 28.1875 14.3387 27.7825C14.8886 27.5341 15.3709 27.1754 15.7615 26.7174C16.412 25.9529 16.6825 25.0213 16.6614 24.0882C16.6502 23.6041 16.7996 23.1148 17.1106 22.7351C17.7259 21.9863 18.767 21.943 19.5829 22.4204C20.4603 22.9335 21.1822 23.0917 22.0829 22.9969C22.8859 22.9127 23.7107 22.5487 24.3214 21.9721C24.4529 21.8475 24.5761 21.714 24.6888 21.5731C25.3115 20.7929 25.621 19.8083 25.5279 18.8148C25.4911 18.4269 25.4009 18.0286 25.2484 17.6691C25.0201 17.1284 24.6828 16.6435 24.229 16.2609C23.9518 16.0267 23.8114 15.9349 23.598 15.8104L23.5988 15.8096ZM10.9328 7.26109C10.9621 7.2775 10.9913 7.29391 11.0214 7.30957C11.2543 7.43488 11.5104 7.52513 11.7658 7.59301C11.9724 7.6482 12.1843 7.68699 12.3976 7.70787C12.5246 7.72055 12.6523 7.72727 12.78 7.72727C13.1976 7.72727 13.6145 7.6579 14.0119 7.52961C14.4905 7.37521 14.818 7.1328 15.3446 6.91276C15.6826 6.77105 16.074 6.78596 16.4286 6.88293C17.1497 7.08059 17.6177 7.71981 17.7236 8.4366C17.78 8.817 17.7567 9.21008 17.8153 9.59346C17.8739 9.97684 17.9941 10.3617 18.1728 10.713C18.2044 10.7749 18.2374 10.8354 18.272 10.8958C18.6288 11.5074 19.1652 12.0146 19.7902 12.3532C20.2417 12.5986 20.624 12.9857 20.8051 13.4713C20.9884 13.9643 20.9162 14.5058 20.6571 14.9616C20.3063 15.5784 19.6279 15.7701 19.1404 16.2087C18.8775 16.4451 18.6356 16.6898 18.4388 16.9829C18.3832 17.0635 18.3283 17.1515 18.278 17.238C17.9144 17.8608 17.7552 18.5925 17.7695 19.2593C17.78 19.7703 17.6425 20.2021 17.4156 20.537C16.8545 21.3687 15.7382 21.5358 14.7782 20.9428C13.924 20.4154 12.8468 20.2573 11.8688 20.4848C11.4706 20.5773 11.1018 20.7339 10.7532 20.9465C9.97046 21.4254 8.97061 21.4671 8.28477 20.725C7.93245 20.3438 7.77921 19.7964 7.78822 19.2526C7.804 18.286 7.493 17.3521 6.77184 16.551C6.51343 16.2639 6.20619 16.011 5.79303 15.7835C5.27995 15.5001 4.86003 15.1257 4.68801 14.5431C4.42283 13.6443 4.96144 12.7896 5.74645 12.3629C6.35417 12.034 6.88077 11.5395 7.25186 10.9002C7.62446 10.258 7.80625 9.5599 7.78597 8.86996C7.7747 8.48135 7.85583 8.08156 8.04138 7.73845C8.20439 7.43712 8.44928 7.18277 8.75276 7.01868C9.05625 6.85458 9.40856 6.78895 9.75337 6.81878C9.94342 6.83519 10.1312 6.8792 10.31 6.94484C10.5301 7.02614 10.7307 7.14772 10.9343 7.26184L10.9328 7.26109Z" fill="#E4E1DA"/>
<path d="M12.7769 17.9205C14.9264 17.9205 16.6689 16.1903 16.6689 14.0561C16.6689 11.9218 14.9264 10.1917 12.7769 10.1917C10.6274 10.1917 8.88495 11.9218 8.88495 14.0561C8.88495 16.1903 10.6274 17.9205 12.7769 17.9205Z" fill="#E4E1DA"/>
<g clip-path="url(#clip0_6702_36869)">
<path d="M38.3191 20.8613H38.3871C38.8967 20.8613 39.214 20.5457 39.214 20.0365V15.9537C39.214 15.6693 39.4209 15.4629 39.7061 15.4629H41.059C41.3442 15.4629 41.5511 15.6693 41.5511 15.9537V15.9877C41.5511 16.496 41.8675 16.8125 42.378 16.8125H42.412C42.6971 16.8125 42.905 17.0189 42.905 17.3042V18.6878C42.905 19.1961 43.2214 19.5126 43.7319 19.5126H43.7659C44.1173 19.5126 44.1908 19.7612 44.1908 19.9704V20.0383C44.1908 20.5466 44.5753 20.9301 45.0848 20.9301H45.1529C45.6625 20.9301 46.0469 20.5466 46.0469 20.0383V19.9704C46.0469 19.4621 45.6625 19.0786 45.1529 19.0786H45.0848C44.8751 19.0786 44.6259 19.0052 44.6259 18.6548V17.2712C44.6259 16.7629 44.3095 16.4464 43.799 16.4464H43.765C43.4799 16.4464 43.2729 16.24 43.2729 15.9556C43.2729 15.6711 43.4799 15.4647 43.765 15.4647H43.799C44.3086 15.4647 44.6259 15.1491 44.6259 14.6399V14.606C44.6259 14.3215 44.8328 14.1142 45.118 14.1142H45.152C45.6615 14.1142 45.9789 13.7986 45.9789 13.2894V9.1727C45.9789 8.66442 45.6625 8.34789 45.152 8.34789H45.118C44.8328 8.34789 44.6259 8.14146 44.6259 7.85704V7.8231C44.6259 7.31482 44.3095 6.99829 43.799 6.99829H38.3522C37.8463 6.99921 37.4922 7.35152 37.4922 7.85704V20.0365C37.4922 20.5448 37.8086 20.8613 38.3191 20.8613ZM43.7641 8.71488C44.0492 8.71488 44.2561 8.92131 44.2561 9.20664V13.2554C44.2561 13.5399 44.0492 13.7463 43.7641 13.7463H39.7051C39.42 13.7463 39.2131 13.5399 39.2131 13.2554V9.20664C39.2131 8.92223 39.42 8.71488 39.7051 8.71488H43.7641Z" fill="#E4E1DA"/>
<path d="M50.5363 19.5795C50.7451 19.5795 50.9953 19.6529 50.9953 20.0034V20.0373C50.9953 20.5456 51.3117 20.8621 51.8221 20.8621H55.9482C56.4577 20.8621 56.7751 20.5465 56.7751 20.0373V20.0034C56.7751 19.6529 57.0243 19.5795 57.234 19.5795H57.3021C57.8116 19.5795 58.1961 19.196 58.1961 18.6877V18.6198C58.1961 18.4107 58.2697 18.162 58.621 18.162H58.6551C59.1646 18.162 59.4819 17.8464 59.4819 17.3372V10.5222C59.4819 10.014 59.1655 9.69743 58.6551 9.69743H58.621C58.2697 9.69743 58.1961 9.4488 58.1961 9.23961V9.17172C58.1961 8.66344 57.8116 8.27994 57.3021 8.27994H57.234C57.0243 8.27994 56.7751 8.20654 56.7751 7.85607V7.82212C56.7751 7.31384 56.4587 6.99731 55.9482 6.99731H51.8221C51.3126 6.99731 50.9953 7.31292 50.9953 7.82212V7.85607C50.9953 8.20654 50.746 8.27994 50.5363 8.27994H50.4682C49.9587 8.27994 49.5742 8.66344 49.5742 9.17172V9.23961C49.5742 9.4488 49.5006 9.69743 49.1493 9.69743H49.1153C48.6057 9.69743 48.2884 10.013 48.2884 10.5222V17.3372C48.2884 17.8455 48.6048 18.162 49.1153 18.162H49.1493C49.5006 18.162 49.5742 18.4107 49.5742 18.6198V18.6877C49.5742 19.196 49.9587 19.5795 50.4682 19.5795H50.5363ZM50.0102 10.5562C50.0102 10.2057 50.2594 10.1323 50.4692 10.1323H50.5372C51.0468 10.1323 51.4312 9.74881 51.4312 9.24053V9.17264C51.4312 8.96345 51.5048 8.71482 51.8562 8.71482H55.9151C56.2664 8.71482 56.34 8.96345 56.34 9.17264V9.24053C56.34 9.74881 56.7245 10.1323 57.234 10.1323H57.3021C57.5118 10.1323 57.7611 10.2057 57.7611 10.5562V17.3042C57.7611 17.6547 57.5118 17.7281 57.3021 17.7281H57.234C56.7245 17.7281 56.34 18.1116 56.34 18.6198V18.6877C56.34 18.8969 56.2664 19.1455 55.9151 19.1455H51.8562C51.5048 19.1455 51.4312 18.8969 51.4312 18.6877V18.6198C51.4312 18.1116 51.0468 17.7281 50.5372 17.7281H50.4692C50.2594 17.7281 50.0102 17.6547 50.0102 17.3042V10.5562Z" fill="#E4E1DA"/>
<path d="M72.3182 9.69743H72.2842C71.9328 9.69743 71.8592 9.4488 71.8592 9.23961V9.17172C71.8592 8.66344 71.4748 8.27994 70.9652 8.27994H70.8972C70.6884 8.27994 70.4382 8.20654 70.4382 7.85607V7.82212C70.4382 7.31384 70.1218 6.99731 69.6113 6.99731H65.4853C64.9757 6.99731 64.6584 7.31292 64.6584 7.82212V7.85607C64.6584 8.20654 64.4092 8.27994 64.1994 8.27994H64.1314C63.6218 8.27994 63.2374 8.66344 63.2374 9.17172V9.23961C63.2374 9.4488 63.1638 9.69743 62.8124 9.69743H62.7784C62.2689 9.69743 61.9515 10.013 61.9515 10.5222V17.3372C61.9515 17.8455 62.2679 18.162 62.7784 18.162H62.8124C63.1638 18.162 63.2374 18.4107 63.2374 18.6198V18.6877C63.2374 19.196 63.6218 19.5795 64.1314 19.5795H64.1994C64.4092 19.5795 64.6584 19.6529 64.6584 20.0034V20.0373C64.6584 20.5456 64.9748 20.8621 65.4853 20.8621H69.6113C70.1209 20.8621 70.4382 20.5465 70.4382 20.0373V20.0034C70.4382 19.6529 70.6875 19.5795 70.8972 19.5795H70.9652C71.4748 19.5795 71.8592 19.196 71.8592 18.6877V18.6198C71.8592 18.4107 71.9328 18.162 72.2842 18.162H72.3182C72.8278 18.162 73.1451 17.8464 73.1451 17.3372V10.5222C73.1451 10.014 72.8287 9.69743 72.3182 9.69743ZM71.4242 17.3033C71.4242 17.6537 71.1749 17.7271 70.9652 17.7271H70.8972C70.3876 17.7271 70.0032 18.1106 70.0032 18.6189V18.6868C70.0032 18.896 69.9296 19.1446 69.5782 19.1446H65.5193C65.168 19.1446 65.0944 18.896 65.0944 18.6868V18.6189C65.0944 18.1106 64.7099 17.7271 64.2004 17.7271H64.1323C63.9226 17.7271 63.6733 17.6537 63.6733 17.3033V10.5562C63.6733 10.2057 63.9226 10.1323 64.1323 10.1323H64.2004C64.7099 10.1323 65.0944 9.74881 65.0944 9.24053V9.17264C65.0944 8.96345 65.168 8.71482 65.5193 8.71482H69.5782C69.9296 8.71482 70.0032 8.96345 70.0032 9.17264V9.24053C70.0032 9.74881 70.3876 10.1323 70.8972 10.1323H70.9652C71.1749 10.1323 71.4242 10.2057 71.4242 10.5562V17.3042V17.3033Z" fill="#E4E1DA"/>
<path d="M83.3314 6.99915H75.1465C74.6369 6.99915 74.3196 7.31476 74.3196 7.82396V7.89185C74.3196 8.40013 74.636 8.71665 75.1465 8.71665H77.8864C78.1716 8.71665 78.3785 8.92309 78.3785 9.20842V20.0382C78.3785 20.5465 78.6949 20.8631 79.2054 20.8631H79.2734C79.783 20.8631 80.1003 20.5474 80.1003 20.0382V9.20658C80.1003 8.92217 80.3073 8.71482 80.5933 8.71482H83.3333C83.8428 8.71482 84.1601 8.39921 84.1601 7.89001V7.82212C84.1601 7.31384 83.8437 6.99731 83.3333 6.99731L83.3314 6.99915Z" fill="#E4E1DA"/>
<path d="M93.5004 8.34789H93.4663C93.1812 8.34789 92.9743 8.14146 92.9743 7.85704V7.8231C92.9743 7.31482 92.6579 6.99829 92.1474 6.99829H88.0213C87.5118 6.99829 87.1945 7.3139 87.1945 7.8231V7.85704C87.1945 8.14146 86.9875 8.34789 86.7024 8.34789H86.6684C86.1588 8.34789 85.8415 8.6635 85.8415 9.1727V11.9389C85.8415 12.4472 86.1579 12.7637 86.6684 12.7637H86.7024C86.9875 12.7637 87.1945 12.9701 87.1945 13.2545V13.2885C87.1945 13.7967 87.5109 14.1133 88.0213 14.1133H89.4083C89.6935 14.1133 89.9004 14.3197 89.9004 14.605V14.639C89.9004 15.1473 90.2168 15.4638 90.7273 15.4638H92.1143C92.3994 15.4638 92.6064 15.6702 92.6064 15.9546V18.6538C92.6064 18.9383 92.3994 19.1456 92.1143 19.1456H88.0554C87.7702 19.1456 87.5633 18.9392 87.5633 18.6538V17.2703C87.5633 16.762 87.2469 16.4455 86.7364 16.4455H86.6684C86.1588 16.4455 85.8415 16.7611 85.8415 17.2703V18.6878C85.8415 19.1961 86.1579 19.5126 86.6684 19.5126H86.7024C86.9875 19.5126 87.1945 19.719 87.1945 20.0034V20.0374C87.1945 20.5457 87.5109 20.8622 88.0213 20.8622H92.1474C92.657 20.8622 92.9743 20.5466 92.9743 20.0374V20.0034C92.9743 19.719 93.1812 19.5126 93.4663 19.5126H93.5004C94.0099 19.5126 94.3272 19.197 94.3272 18.6878V15.9207C94.3272 15.4124 94.0108 15.0959 93.5004 15.0959H93.4663C93.1812 15.0959 92.9743 14.8895 92.9743 14.605V14.5711C92.9743 14.0628 92.6579 13.7463 92.1474 13.7463H90.7604C90.4753 13.7463 90.2683 13.5399 90.2683 13.2554V13.2215C90.2683 12.7132 89.9519 12.3967 89.4415 12.3967H88.0544C87.7693 12.3967 87.5624 12.1903 87.5624 11.9058V9.20664C87.5624 8.92223 87.7693 8.71488 88.0544 8.71488H92.1134C92.3985 8.71488 92.6054 8.92131 92.6054 9.20664V10.5902C92.6054 11.0985 92.9218 11.415 93.4323 11.415H93.5004C94.0099 11.415 94.3272 11.0994 94.3272 10.5902V9.1727C94.3272 8.66442 94.0108 8.34789 93.5004 8.34789Z" fill="#E4E1DA"/>
<path d="M105.022 6.99915H96.8372C96.3277 6.99915 96.0104 7.31476 96.0104 7.82396V7.89185C96.0104 8.40013 96.3268 8.71665 96.8372 8.71665H99.5772C99.8624 8.71665 100.069 8.92309 100.069 9.20842V20.0382C100.069 20.5465 100.386 20.8631 100.896 20.8631H100.964C101.474 20.8631 101.791 20.5474 101.791 20.0382V9.20658C101.791 8.92217 101.998 8.71482 102.284 8.71482H105.024C105.534 8.71482 105.851 8.39921 105.851 7.89001V7.82212C105.851 7.31384 105.535 6.99731 105.024 6.99731L105.022 6.99915Z" fill="#E4E1DA"/>
<path d="M117.432 9.69743H117.398C117.046 9.69743 116.973 9.4488 116.973 9.23961V9.17172C116.973 8.66344 116.588 8.27994 116.079 8.27994H116.011C115.802 8.27994 115.552 8.20654 115.552 7.85607V7.82212C115.552 7.31384 115.235 6.99731 114.725 6.99731H110.599C110.089 6.99731 109.772 7.31292 109.772 7.82212V7.85607C109.772 8.20654 109.523 8.27994 109.313 8.27994H109.245C108.735 8.27994 108.351 8.66344 108.351 9.17172V9.23961C108.351 9.4488 108.277 9.69743 107.926 9.69743H107.892C107.382 9.69743 107.065 10.013 107.065 10.5222V17.3372C107.065 17.8455 107.381 18.162 107.892 18.162H107.926C108.277 18.162 108.351 18.4107 108.351 18.6198V18.6877C108.351 19.196 108.735 19.5795 109.245 19.5795H109.313C109.523 19.5795 109.772 19.6529 109.772 20.0034V20.0373C109.772 20.5456 110.088 20.8621 110.599 20.8621H114.725C115.234 20.8621 115.552 20.5465 115.552 20.0373V20.0034C115.552 19.6529 115.801 19.5795 116.011 19.5795H116.079C116.588 19.5795 116.973 19.196 116.973 18.6877V18.6198C116.973 18.4107 117.046 18.162 117.398 18.162H117.432C117.941 18.162 118.259 17.8464 118.259 17.3372V10.5222C118.259 10.014 117.942 9.69743 117.432 9.69743ZM116.538 17.3033C116.538 17.6537 116.288 17.7271 116.079 17.7271H116.011C115.501 17.7271 115.117 18.1106 115.117 18.6189V18.6868C115.117 18.896 115.043 19.1446 114.692 19.1446H110.633C110.281 19.1446 110.208 18.896 110.208 18.6868V18.6189C110.208 18.1106 109.823 17.7271 109.314 17.7271H109.246C109.036 17.7271 108.787 17.6537 108.787 17.3033V10.5562C108.787 10.2057 109.036 10.1323 109.246 10.1323H109.314C109.823 10.1323 110.208 9.74881 110.208 9.24053V9.17264C110.208 8.96345 110.281 8.71482 110.633 8.71482H114.692C115.043 8.71482 115.117 8.96345 115.117 9.17264V9.24053C115.117 9.74881 115.501 10.1323 116.011 10.1323H116.079C116.288 10.1323 116.538 10.2057 116.538 10.5562V17.3042V17.3033Z" fill="#E4E1DA"/>
<path d="M122.914 19.5796C123.123 19.5796 123.373 19.653 123.373 20.0034V20.0374C123.373 20.5457 123.69 20.8622 124.2 20.8622H128.326C128.836 20.8622 129.153 20.5466 129.153 20.0374V20.0034C129.153 19.653 129.402 19.5796 129.612 19.5796H129.68C130.19 19.5796 130.574 19.1961 130.574 18.6878V18.6199C130.574 18.3171 130.662 18.23 130.965 18.23H131.033C131.543 18.23 131.927 17.8465 131.927 17.3382V17.2703C131.927 16.762 131.543 16.3785 131.033 16.3785H130.965C130.456 16.3785 130.071 16.762 130.071 17.2703V17.3382C130.071 17.641 129.984 17.7281 129.68 17.7281H129.612C129.103 17.7281 128.718 18.1116 128.718 18.6199V18.6878C128.718 18.897 128.645 19.1456 128.293 19.1456H124.234C123.883 19.1456 123.809 18.897 123.809 18.6878V18.6199C123.809 18.1116 123.425 17.7281 122.915 17.7281H122.847C122.638 17.7281 122.388 17.6547 122.388 17.3042V10.5562C122.388 10.2058 122.638 10.1324 122.847 10.1324H122.915C123.425 10.1324 123.809 9.74887 123.809 9.24059V9.1727C123.809 8.96351 123.883 8.71488 124.234 8.71488H128.293C128.645 8.71488 128.718 8.96351 128.718 9.1727V9.24059C128.718 9.74887 129.103 10.1324 129.612 10.1324H129.68C129.984 10.1324 130.071 10.2195 130.071 10.5223V10.5902C130.071 11.0985 130.456 11.482 130.965 11.482H131.033C131.543 11.482 131.927 11.0985 131.927 10.5902V10.5223C131.927 10.014 131.543 9.63051 131.033 9.63051H130.965C130.662 9.63051 130.574 9.54336 130.574 9.24059V9.1727C130.574 8.66442 130.19 8.28092 129.68 8.28092H129.612C129.402 8.28092 129.153 8.20752 129.153 7.85704V7.8231C129.153 7.31482 128.837 6.99829 128.326 6.99829H124.2C123.691 6.99829 123.373 7.3139 123.373 7.8231V7.85704C123.373 8.20752 123.124 8.28092 122.914 8.28092H122.846C122.337 8.28092 121.952 8.66442 121.952 9.1727V9.24059C121.952 9.44977 121.879 9.69841 121.527 9.69841H121.493C120.984 9.69841 120.667 10.014 120.667 10.5232V17.3382C120.667 17.8465 120.983 18.163 121.493 18.163H121.527C121.879 18.163 121.952 18.4116 121.952 18.6208V18.6887C121.952 19.197 122.337 19.5805 122.846 19.5805H122.914V19.5796Z" fill="#E4E1DA"/>
<path d="M137.58 12.8315H137.648C138.158 12.8315 138.542 12.448 138.542 11.9397V11.8719C138.542 11.5691 138.63 11.4819 138.933 11.4819H139.001C139.511 11.4819 139.895 11.0984 139.895 10.5901V10.5223C139.895 10.2195 139.983 10.1323 140.286 10.1323H140.354C140.864 10.1323 141.248 9.74883 141.248 9.24055V9.17266C141.248 8.86989 141.336 8.78273 141.639 8.78273H141.707C142.217 8.78273 142.601 8.39923 142.601 7.89095V7.82306C142.601 7.31478 142.217 6.93127 141.707 6.93127H141.639C141.129 6.93127 140.745 7.31478 140.745 7.82306V7.89095C140.745 8.19371 140.658 8.28087 140.354 8.28087H140.286C139.777 8.28087 139.392 8.66438 139.392 9.17266V9.24055C139.392 9.54331 139.305 9.63047 139.001 9.63047H138.933C138.424 9.63047 138.039 10.014 138.039 10.5223V10.5901C138.039 10.8929 137.952 10.9801 137.648 10.9801H137.58C137.071 10.9801 136.686 11.3636 136.686 11.8719V11.9397C136.686 12.1489 136.613 12.3976 136.261 12.3976H136.227C135.871 12.3976 135.768 12.2948 135.768 11.9397V7.82306C135.768 7.31478 135.452 6.99825 134.941 6.99825H134.873C134.364 6.99825 134.046 7.31386 134.046 7.82306V20.0364C134.046 20.5447 134.363 20.8612 134.873 20.8612H134.941C135.451 20.8612 135.768 20.5456 135.768 20.0364V15.9207C135.768 15.5656 135.871 15.4628 136.227 15.4628H136.261C136.613 15.4628 136.686 15.7115 136.686 15.9207V15.9885C136.686 16.4968 137.071 16.8803 137.58 16.8803H137.648C137.952 16.8803 138.039 16.9675 138.039 17.2703V17.3381C138.039 17.8464 138.424 18.2299 138.933 18.2299H139.001C139.305 18.2299 139.392 18.3171 139.392 18.6199V18.6877C139.392 19.196 139.777 19.5795 140.286 19.5795H140.354C140.658 19.5795 140.745 19.6667 140.745 19.9695V20.0373C140.745 20.5456 141.129 20.9291 141.639 20.9291H141.707C142.217 20.9291 142.601 20.5456 142.601 20.0373V19.9695C142.601 19.4612 142.217 19.0777 141.707 19.0777H141.639C141.336 19.0777 141.248 18.9905 141.248 18.6877V18.6199C141.248 18.1116 140.864 17.7281 140.354 17.7281H140.286C139.983 17.7281 139.895 17.6409 139.895 17.3381V17.2703C139.895 16.762 139.511 16.3785 139.001 16.3785H138.933C138.63 16.3785 138.542 16.2913 138.542 15.9885V15.9207C138.542 15.4124 138.158 15.0289 137.648 15.0289H137.58C137.371 15.0289 137.121 14.9555 137.121 14.605V13.2554C137.121 12.9049 137.37 12.8315 137.58 12.8315Z" fill="#E4E1DA"/>
<path d="M159.254 9.56155H159.186C158.883 9.56155 158.796 9.47439 158.796 9.17162V9.10373C158.796 8.59545 158.411 8.21195 157.902 8.21195H157.833C157.625 8.21195 157.374 8.13855 157.374 7.78807V7.75413C157.374 7.24585 157.058 6.92932 156.548 6.92932H152.422C151.912 6.92932 151.595 7.24493 151.595 7.75413V7.78807C151.595 8.13855 151.345 8.21195 151.136 8.21195H151.068C150.558 8.21195 150.174 8.59545 150.174 9.10373V9.17162C150.174 9.3808 150.1 9.62944 149.749 9.62944H149.715C149.205 9.62944 148.888 9.94505 148.888 10.4542V17.2692C148.888 17.7775 149.204 18.094 149.715 18.094H149.749C150.1 18.094 150.174 18.3427 150.174 18.5518V18.6197C150.174 19.128 150.558 19.5115 151.068 19.5115H151.136C151.345 19.5115 151.595 19.5849 151.595 19.9354V19.9693C151.595 20.4776 151.911 20.7941 152.422 20.7941H156.548C157.057 20.7941 157.374 20.4785 157.374 19.9693V19.9354C157.374 19.5849 157.624 19.5115 157.833 19.5115H157.902C158.411 19.5115 158.796 19.128 158.796 18.6197V18.5518C158.796 18.2491 158.883 18.1619 159.186 18.1619H159.254C159.764 18.1619 160.149 17.7784 160.149 17.2701V17.2022C160.149 16.694 159.764 16.3105 159.254 16.3105H159.186C158.677 16.3105 158.292 16.694 158.292 17.2022V17.2701C158.292 17.5729 158.205 17.6601 157.902 17.6601H157.833C157.324 17.6601 156.939 18.0436 156.939 18.5518V18.6197C156.939 18.8289 156.866 19.0776 156.515 19.0776H152.456C152.104 19.0776 152.031 18.8289 152.031 18.6197V18.5518C152.031 18.0436 151.646 17.6601 151.137 17.6601H151.069C150.859 17.6601 150.61 17.5867 150.61 17.2362V10.4873C150.61 10.1368 150.859 10.0634 151.069 10.0634H151.137C151.646 10.0634 152.031 9.6799 152.031 9.17162V9.10373C152.031 8.89546 152.104 8.64591 152.456 8.64591H156.515C156.866 8.64591 156.939 8.89454 156.939 9.10373V9.17162C156.939 9.6799 157.324 10.0634 157.833 10.0634H157.902C158.205 10.0634 158.292 10.1506 158.292 10.4533V10.5212C158.292 11.0295 158.677 11.413 159.186 11.413H159.254C159.764 11.413 160.149 11.0295 160.149 10.5212V10.4533C160.149 9.94505 159.764 9.56155 159.254 9.56155Z" fill="#E4E1DA"/>
<path d="M172.015 9.62944H171.981C171.63 9.62944 171.556 9.3808 171.556 9.17162V9.10373C171.556 8.59545 171.172 8.21195 170.662 8.21195H170.594C170.385 8.21195 170.135 8.13855 170.135 7.78807V7.75413C170.135 7.24585 169.819 6.92932 169.308 6.92932H165.182C164.673 6.92932 164.355 7.24493 164.355 7.75413V7.78807C164.355 8.13855 164.106 8.21195 163.897 8.21195H163.828C163.319 8.21195 162.934 8.59545 162.934 9.10373V9.17162C162.934 9.3808 162.861 9.62944 162.51 9.62944H162.475C161.966 9.62944 161.649 9.94505 161.649 10.4542V17.2692C161.649 17.7775 161.965 18.094 162.475 18.094H162.51C162.861 18.094 162.934 18.3427 162.934 18.5518V18.6197C162.934 19.128 163.319 19.5115 163.828 19.5115H163.897C164.106 19.5115 164.355 19.5849 164.355 19.9354V19.9693C164.355 20.4776 164.672 20.7941 165.182 20.7941H169.308C169.818 20.7941 170.135 20.4785 170.135 19.9693V19.9354C170.135 19.5849 170.385 19.5115 170.594 19.5115H170.662C171.172 19.5115 171.556 19.128 171.556 18.6197V18.5518C171.556 18.3427 171.63 18.094 171.981 18.094H172.015C172.525 18.094 172.842 17.7784 172.842 17.2692V10.4542C172.842 9.94597 172.526 9.62944 172.015 9.62944ZM171.121 17.2353C171.121 17.5857 170.872 17.6591 170.662 17.6591H170.594C170.085 17.6591 169.7 18.0426 169.7 18.5509V18.6188C169.7 18.828 169.627 19.0766 169.275 19.0766H165.216C164.865 19.0766 164.791 18.828 164.791 18.6188V18.5509C164.791 18.0426 164.407 17.6591 163.897 17.6591H163.829C163.62 17.6591 163.37 17.5857 163.37 17.2353V10.4873C163.37 10.1368 163.62 10.0634 163.829 10.0634H163.897C164.407 10.0634 164.791 9.6799 164.791 9.17162V9.10373C164.791 8.89546 164.865 8.64591 165.216 8.64591H169.275C169.627 8.64591 169.7 8.89454 169.7 9.10373V9.17162C169.7 9.6799 170.085 10.0634 170.594 10.0634H170.662C170.872 10.0634 171.121 10.1368 171.121 10.4873V17.2353Z" fill="#E4E1DA"/>
<path d="M182.812 19.0766H177.367C177.081 19.0766 176.874 18.8701 176.874 18.5848V7.75498C176.874 7.2467 176.558 6.93018 176.048 6.93018H175.98C175.47 6.93018 175.153 7.24579 175.153 7.75498V19.9344C175.153 20.4399 175.507 20.7922 176.013 20.7922H182.812C183.321 20.7922 183.638 20.4766 183.638 19.9674V19.8995C183.638 19.3913 183.322 19.0747 182.812 19.0747L182.812 19.0766Z" fill="#E4E1DA"/>
<path d="M193.192 19.0766H187.746C187.461 19.0766 187.254 18.8701 187.254 18.5848V7.75498C187.254 7.2467 186.938 6.93018 186.427 6.93018H186.359C185.849 6.93018 185.532 7.24579 185.532 7.75498V19.9344C185.532 20.4399 185.886 20.7922 186.392 20.7922H193.191C193.701 20.7922 194.018 20.4766 194.018 19.9674V19.8995C194.018 19.3913 193.702 19.0747 193.191 19.0747L193.192 19.0766Z" fill="#E4E1DA"/>
<path d="M203.248 6.93024H196.449C195.942 6.93024 195.588 7.28347 195.588 7.78808V19.9345C195.588 20.44 195.942 20.7923 196.449 20.7923H203.248C203.757 20.7923 204.075 20.4767 204.075 19.9675V19.8996C204.075 19.3913 203.758 19.0748 203.248 19.0748H197.802C197.517 19.0748 197.31 18.8684 197.31 18.583V14.5342C197.31 14.2498 197.517 14.0434 197.802 14.0434H201.895C202.404 14.0434 202.722 13.7278 202.722 13.2186V13.1507C202.722 12.6424 202.405 12.3259 201.895 12.3259H197.802C197.517 12.3259 197.31 12.1195 197.31 11.835V9.13584C197.31 8.85143 197.517 8.645 197.802 8.645H203.248C203.757 8.645 204.075 8.32939 204.075 7.82019V7.7523C204.075 7.24402 203.758 6.92749 203.248 6.92749V6.93024Z" fill="#E4E1DA"/>
<path d="M216.215 9.56155H216.147C215.843 9.56155 215.756 9.47439 215.756 9.17162V9.10373C215.756 8.59545 215.371 8.21195 214.862 8.21195H214.794C214.585 8.21195 214.335 8.13855 214.335 7.78807V7.75413C214.335 7.24585 214.018 6.92932 213.508 6.92932H209.382C208.872 6.92932 208.555 7.24493 208.555 7.75413V7.78807C208.555 8.13855 208.306 8.21195 208.096 8.21195H208.028C207.518 8.21195 207.134 8.59545 207.134 9.10373V9.17162C207.134 9.3808 207.06 9.62944 206.709 9.62944H206.675C206.165 9.62944 205.848 9.94505 205.848 10.4542V17.2692C205.848 17.7775 206.164 18.094 206.675 18.094H206.709C207.06 18.094 207.134 18.3427 207.134 18.5518V18.6197C207.134 19.128 207.518 19.5115 208.028 19.5115H208.096C208.306 19.5115 208.555 19.5849 208.555 19.9354V19.9693C208.555 20.4776 208.871 20.7941 209.382 20.7941H213.508C214.017 20.7941 214.335 20.4785 214.335 19.9693V19.9354C214.335 19.5849 214.584 19.5115 214.794 19.5115H214.862C215.371 19.5115 215.756 19.128 215.756 18.6197V18.5518C215.756 18.2491 215.843 18.1619 216.147 18.1619H216.215C216.724 18.1619 217.109 17.7784 217.109 17.2701V17.2022C217.109 16.694 216.724 16.3105 216.215 16.3105H216.147C215.637 16.3105 215.253 16.694 215.253 17.2022V17.2701C215.253 17.5729 215.165 17.6601 214.862 17.6601H214.794C214.284 17.6601 213.9 18.0436 213.9 18.5518V18.6197C213.9 18.8289 213.826 19.0776 213.475 19.0776H209.416C209.064 19.0776 208.991 18.8289 208.991 18.6197V18.5518C208.991 18.0436 208.606 17.6601 208.097 17.6601H208.029C207.819 17.6601 207.57 17.5867 207.57 17.2362V10.4873C207.57 10.1368 207.819 10.0634 208.029 10.0634H208.097C208.606 10.0634 208.991 9.6799 208.991 9.17162V9.10373C208.991 8.89546 209.064 8.64591 209.416 8.64591H213.475C213.826 8.64591 213.9 8.89454 213.9 9.10373V9.17162C213.9 9.6799 214.284 10.0634 214.794 10.0634H214.862C215.165 10.0634 215.253 10.1506 215.253 10.4533V10.5212C215.253 11.0295 215.637 11.413 216.147 11.413H216.215C216.724 11.413 217.109 11.0295 217.109 10.5212V10.4533C217.109 9.94505 216.724 9.56155 216.215 9.56155Z" fill="#E4E1DA"/>
<path d="M227.114 6.93024H218.929C218.419 6.93024 218.102 7.24585 218.102 7.75505V7.82294C218.102 8.33122 218.418 8.64774 218.929 8.64774H221.669C221.954 8.64774 222.161 8.85418 222.161 9.13859V19.9684C222.161 20.4767 222.477 20.7932 222.988 20.7932H223.056C223.565 20.7932 223.883 20.4776 223.883 19.9684V9.13767C223.883 8.85326 224.09 8.64683 224.376 8.64683H227.116C227.625 8.64683 227.943 8.33122 227.943 7.82202V7.75413C227.943 7.24585 227.626 6.92932 227.116 6.92932L227.114 6.93024Z" fill="#E4E1DA"/>
<path d="M230.637 6.93018H230.57C230.114 6.93018 229.743 7.29945 229.743 7.75498V19.9674C229.743 20.423 230.114 20.7922 230.57 20.7922H230.637C231.094 20.7922 231.464 20.423 231.464 19.9674V7.75498C231.464 7.29945 231.094 6.93018 230.637 6.93018Z" fill="#E4E1DA"/>
<path d="M242.743 6.93018H242.675C242.166 6.93018 241.849 7.24579 241.849 7.75498V9.13853C241.849 9.42294 241.642 9.62937 241.356 9.62937H241.321C240.812 9.62937 240.495 9.94498 240.495 10.4542V13.1873C240.495 13.4717 240.288 13.6791 240.003 13.6791H239.968C239.459 13.6791 239.142 13.9947 239.142 14.5039V17.237C239.142 17.5215 238.935 17.7279 238.65 17.7279C238.364 17.7279 238.157 17.5215 238.157 17.237V14.5039C238.157 13.9956 237.841 13.6791 237.331 13.6791H237.297C237.011 13.6791 236.805 13.4727 236.805 13.1873V10.4542C236.805 9.9459 236.488 9.62937 235.978 9.62937H235.944C235.658 9.62937 235.452 9.42294 235.452 9.13853V7.75498C235.452 7.2467 235.135 6.93018 234.625 6.93018H234.557C234.047 6.93018 233.73 7.24579 233.73 7.75498V9.17156C233.73 9.67984 234.046 9.99636 234.557 9.99636H234.591C234.876 9.99636 235.083 10.2028 235.083 10.4872V13.2204C235.083 13.7286 235.399 14.0452 235.91 14.0452H235.944C236.229 14.0452 236.437 14.2516 236.437 14.536V17.2692C236.437 17.7774 236.753 18.094 237.263 18.094H237.298C237.583 18.094 237.79 18.3004 237.79 18.5848V19.9684C237.79 20.4766 238.106 20.7932 238.616 20.7932H238.684C239.194 20.7932 239.511 20.4775 239.511 19.9684V18.5848C239.511 18.3004 239.718 18.094 240.004 18.094H240.038C240.548 18.094 240.865 17.7784 240.865 17.2692V14.536C240.865 14.2516 241.072 14.0452 241.357 14.0452H241.391C241.901 14.0452 242.218 13.7296 242.218 13.2204V10.4872C242.218 10.2028 242.425 9.99636 242.71 9.99636H242.744C243.254 9.99636 243.571 9.68075 243.571 9.17156V7.75498C243.571 7.2467 243.255 6.93018 242.744 6.93018L242.743 6.93018Z" fill="#E4E1DA"/>
<path d="M253.173 6.93024H246.374C245.867 6.93024 245.514 7.28347 245.514 7.78808V19.9345C245.514 20.44 245.868 20.7923 246.374 20.7923H253.173C253.656 20.7923 253.965 20.5079 253.996 20.0437C253.998 20.0189 253.999 19.9941 253.999 19.9675V19.8996C253.999 19.8739 253.998 19.8482 253.996 19.8235C253.965 19.3601 253.656 19.0748 253.173 19.0748H247.727C247.442 19.0748 247.235 18.8684 247.235 18.583V14.5342C247.235 14.2498 247.442 14.0434 247.727 14.0434H251.82C252.303 14.0434 252.612 13.759 252.643 13.2947C252.645 13.27 252.646 13.2452 252.646 13.2186V13.1507C252.646 13.125 252.645 13.0993 252.643 13.0745C252.612 12.6112 252.303 12.3259 251.82 12.3259H247.727C247.442 12.3259 247.235 12.1195 247.235 11.835V9.13584C247.235 8.85143 247.442 8.645 247.727 8.645H253.173C253.656 8.645 253.965 8.36058 253.996 7.89634C253.998 7.87157 253.999 7.8468 253.999 7.82019V7.7523C253.999 7.72661 253.998 7.70092 253.996 7.67615C253.965 7.21282 253.656 6.92749 253.173 6.92749V6.93024Z" fill="#E4E1DA"/>
</g>
<defs>
<clipPath id="clip0_6702_36869">
<rect width="216.506" height="13.9979" fill="white" transform="translate(37.4922 6.93164)"/>
</clipPath>
</defs>
</svg>
