<svg width="120" height="14" viewBox="0 0 120 14" fill="none" xmlns="http://www.w3.org/2000/svg">
<path d="M6.69666 13.198C3.29466 13.198 0.810664 10.462 0.810664 6.7C0.810664 2.884 3.31266 0.0399995 6.69666 0.0399995C9.18066 0.0399995 11.1247 1.372 11.8987 3.604C12.0607 4.126 11.7367 4.612 11.2327 4.612H10.6747C10.3507 4.612 10.0807 4.396 9.95466 4.054C9.50466 2.704 8.33466 1.93 6.69666 1.93C4.39266 1.93 2.84466 3.856 2.84466 6.7C2.84466 9.472 4.37466 11.308 6.69666 11.308C8.38866 11.308 9.50466 10.57 9.97266 9.148C10.0807 8.824 10.3507 8.608 10.6747 8.608H11.1967C11.7187 8.608 12.0427 9.076 11.8627 9.616C11.0707 11.938 9.25266 13.198 6.69666 13.198ZM19.0035 13.198C15.5295 13.198 13.0275 10.462 13.0275 6.7C13.0275 2.866 15.5655 0.0399995 19.0035 0.0399995C22.4775 0.0399995 24.9795 2.83 24.9795 6.7C24.9795 10.516 22.5135 13.198 19.0035 13.198ZM19.0035 11.308C21.3975 11.308 22.9635 9.49 22.9635 6.7C22.9635 3.856 21.3615 1.93 19.0035 1.93C16.6455 1.93 15.0435 3.856 15.0435 6.7C15.0435 9.454 16.6455 11.308 19.0035 11.308ZM27.3982 13C27.0202 13 26.6962 12.676 26.6962 12.298V0.922C26.6962 0.543999 27.0202 0.219999 27.3982 0.219999H29.0902C29.5582 0.219999 29.8282 0.399999 29.9362 0.831999L32.2222 9.598C32.3482 10.102 33.0502 10.102 33.1762 9.598L35.4442 0.993999C35.5882 0.436 35.8402 0.219999 36.3262 0.219999H38.0182C38.3962 0.219999 38.7202 0.543999 38.7202 0.922V12.298C38.7202 12.676 38.3782 13 38.0002 13H37.5142C37.1362 13 36.8122 12.676 36.8122 12.298V6.232C36.8122 5.584 36.0382 5.494 35.8582 6.124L34.2382 12.046C34.0582 12.676 33.7342 13 33.2482 13H32.1502C31.6642 13 31.3402 12.676 31.1602 12.046L29.5402 6.124C29.3602 5.494 28.6042 5.584 28.6042 6.232V12.298C28.6042 12.676 28.2802 13 27.9022 13H27.3982ZM41.6198 13C41.2238 13 40.8818 12.658 40.8818 12.262V0.957999C40.8818 0.561999 41.2238 0.219999 41.6198 0.219999H42.0878C42.4838 0.219999 42.8258 0.561999 42.8258 0.957999V12.262C42.8258 12.658 42.4838 13 42.0878 13H41.6198ZM45.6795 13C45.3015 13 44.9775 12.676 44.9775 12.298V0.922C44.9775 0.543999 45.3015 0.219999 45.6795 0.219999H47.0295C47.4435 0.219999 47.6775 0.399999 47.8935 0.831999L51.3855 7.906C51.7275 8.608 52.6275 8.41 52.6275 7.636V0.922C52.6275 0.543999 52.9515 0.219999 53.3295 0.219999H53.8515C54.2295 0.219999 54.5535 0.543999 54.5535 0.922V12.298C54.5535 12.676 54.2295 13 53.8515 13H52.3395C51.9255 13 51.6915 12.838 51.4755 12.388L48.0555 5.314C47.6955 4.594 46.9035 4.792 46.9035 5.602V12.298C46.9035 12.676 46.5795 13 46.2015 13H45.6795ZM62.0656 13.198C58.6996 13.198 56.2696 10.534 56.2696 6.826C56.2696 2.848 58.7356 0.0399995 62.2096 0.0399995C64.7296 0.0399995 66.7996 1.426 67.3756 3.496C67.5196 4.054 67.1956 4.522 66.6556 4.522H66.0976C65.7916 4.522 65.5216 4.306 65.4136 3.946C65.0176 2.668 63.8116 1.894 62.2096 1.894C59.7976 1.894 58.2856 3.784 58.2856 6.826C58.2856 9.526 59.8336 11.362 62.1376 11.362C63.6856 11.362 64.7836 10.678 65.2516 9.544C65.5756 8.77 65.3236 8.23 64.6216 8.23H63.6136C63.2176 8.23 62.8756 7.888 62.8756 7.492V7.186C62.8756 6.79 63.2176 6.448 63.6136 6.448H66.6916C67.0876 6.448 67.4296 6.79 67.4296 7.186V12.262C67.4296 12.658 67.0876 13 66.6916 13H66.3316C66.0616 13 65.8276 12.838 65.6656 12.514C65.5216 12.154 65.1436 12.064 64.8376 12.316C64.0096 12.946 63.2176 13.198 62.0656 13.198ZM77.7652 13.198C75.3352 13.198 73.5532 11.704 73.2472 9.4C73.1932 9.004 73.5352 8.662 73.9492 8.662H74.5072C74.8312 8.662 75.1192 8.914 75.1912 9.292C75.4432 10.606 76.4512 11.398 77.8912 11.398C79.2592 11.398 80.1952 10.66 80.1952 9.58C80.1952 8.608 79.7092 8.068 78.4492 7.654L76.6312 7.06C74.5612 6.394 73.7332 5.386 73.7332 3.586C73.7332 1.552 75.4612 0.0399995 77.7832 0.0399995C79.9252 0.0399995 81.4552 1.3 81.8152 3.316C81.9052 3.748 81.5992 4.126 81.1312 4.126H80.5732C80.2492 4.126 79.9792 3.892 79.9072 3.532C79.6552 2.434 78.8812 1.84 77.6752 1.84C76.4692 1.84 75.6772 2.524 75.6772 3.55C75.6772 4.342 76.0912 4.882 76.8832 5.17L79.4932 6.07C81.3652 6.718 82.1392 7.69 82.1392 9.4C82.1392 11.686 80.3932 13.198 77.7652 13.198ZM89.2456 13.198C85.7716 13.198 83.2696 10.462 83.2696 6.7C83.2696 2.866 85.8076 0.0399995 89.2456 0.0399995C92.7196 0.0399995 95.2216 2.83 95.2216 6.7C95.2216 10.516 92.7556 13.198 89.2456 13.198ZM89.2456 11.308C91.6396 11.308 93.2056 9.49 93.2056 6.7C93.2056 3.856 91.6036 1.93 89.2456 1.93C86.8876 1.93 85.2856 3.856 85.2856 6.7C85.2856 9.454 86.8876 11.308 89.2456 11.308ZM102.464 13.198C98.9904 13.198 96.4884 10.462 96.4884 6.7C96.4884 2.866 99.0264 0.0399995 102.464 0.0399995C105.938 0.0399995 108.44 2.83 108.44 6.7C108.44 10.516 105.974 13.198 102.464 13.198ZM102.464 11.308C104.858 11.308 106.424 9.49 106.424 6.7C106.424 3.856 104.822 1.93 102.464 1.93C100.106 1.93 98.5044 3.856 98.5044 6.7C98.5044 9.454 100.106 11.308 102.464 11.308ZM110.859 13C110.481 13 110.157 12.676 110.157 12.298V0.922C110.157 0.543999 110.481 0.219999 110.859 0.219999H112.209C112.623 0.219999 112.857 0.399999 113.073 0.831999L116.565 7.906C116.907 8.608 117.807 8.41 117.807 7.636V0.922C117.807 0.543999 118.131 0.219999 118.509 0.219999H119.031C119.409 0.219999 119.733 0.543999 119.733 0.922V12.298C119.733 12.676 119.409 13 119.031 13H117.519C117.105 13 116.871 12.838 116.655 12.388L113.235 5.314C112.875 4.594 112.083 4.792 112.083 5.602V12.298C112.083 12.676 111.759 13 111.381 13H110.859Z" fill="#E56B1A"/>
<path d="M6.69666 13.198C3.29466 13.198 0.810664 10.462 0.810664 6.7C0.810664 2.884 3.31266 0.0399995 6.69666 0.0399995C9.18066 0.0399995 11.1247 1.372 11.8987 3.604C12.0607 4.126 11.7367 4.612 11.2327 4.612H10.6747C10.3507 4.612 10.0807 4.396 9.95466 4.054C9.50466 2.704 8.33466 1.93 6.69666 1.93C4.39266 1.93 2.84466 3.856 2.84466 6.7C2.84466 9.472 4.37466 11.308 6.69666 11.308C8.38866 11.308 9.50466 10.57 9.97266 9.148C10.0807 8.824 10.3507 8.608 10.6747 8.608H11.1967C11.7187 8.608 12.0427 9.076 11.8627 9.616C11.0707 11.938 9.25266 13.198 6.69666 13.198ZM19.0035 13.198C15.5295 13.198 13.0275 10.462 13.0275 6.7C13.0275 2.866 15.5655 0.0399995 19.0035 0.0399995C22.4775 0.0399995 24.9795 2.83 24.9795 6.7C24.9795 10.516 22.5135 13.198 19.0035 13.198ZM19.0035 11.308C21.3975 11.308 22.9635 9.49 22.9635 6.7C22.9635 3.856 21.3615 1.93 19.0035 1.93C16.6455 1.93 15.0435 3.856 15.0435 6.7C15.0435 9.454 16.6455 11.308 19.0035 11.308ZM27.3982 13C27.0202 13 26.6962 12.676 26.6962 12.298V0.922C26.6962 0.543999 27.0202 0.219999 27.3982 0.219999H29.0902C29.5582 0.219999 29.8282 0.399999 29.9362 0.831999L32.2222 9.598C32.3482 10.102 33.0502 10.102 33.1762 9.598L35.4442 0.993999C35.5882 0.436 35.8402 0.219999 36.3262 0.219999H38.0182C38.3962 0.219999 38.7202 0.543999 38.7202 0.922V12.298C38.7202 12.676 38.3782 13 38.0002 13H37.5142C37.1362 13 36.8122 12.676 36.8122 12.298V6.232C36.8122 5.584 36.0382 5.494 35.8582 6.124L34.2382 12.046C34.0582 12.676 33.7342 13 33.2482 13H32.1502C31.6642 13 31.3402 12.676 31.1602 12.046L29.5402 6.124C29.3602 5.494 28.6042 5.584 28.6042 6.232V12.298C28.6042 12.676 28.2802 13 27.9022 13H27.3982ZM41.6198 13C41.2238 13 40.8818 12.658 40.8818 12.262V0.957999C40.8818 0.561999 41.2238 0.219999 41.6198 0.219999H42.0878C42.4838 0.219999 42.8258 0.561999 42.8258 0.957999V12.262C42.8258 12.658 42.4838 13 42.0878 13H41.6198ZM45.6795 13C45.3015 13 44.9775 12.676 44.9775 12.298V0.922C44.9775 0.543999 45.3015 0.219999 45.6795 0.219999H47.0295C47.4435 0.219999 47.6775 0.399999 47.8935 0.831999L51.3855 7.906C51.7275 8.608 52.6275 8.41 52.6275 7.636V0.922C52.6275 0.543999 52.9515 0.219999 53.3295 0.219999H53.8515C54.2295 0.219999 54.5535 0.543999 54.5535 0.922V12.298C54.5535 12.676 54.2295 13 53.8515 13H52.3395C51.9255 13 51.6915 12.838 51.4755 12.388L48.0555 5.314C47.6955 4.594 46.9035 4.792 46.9035 5.602V12.298C46.9035 12.676 46.5795 13 46.2015 13H45.6795ZM62.0656 13.198C58.6996 13.198 56.2696 10.534 56.2696 6.826C56.2696 2.848 58.7356 0.0399995 62.2096 0.0399995C64.7296 0.0399995 66.7996 1.426 67.3756 3.496C67.5196 4.054 67.1956 4.522 66.6556 4.522H66.0976C65.7916 4.522 65.5216 4.306 65.4136 3.946C65.0176 2.668 63.8116 1.894 62.2096 1.894C59.7976 1.894 58.2856 3.784 58.2856 6.826C58.2856 9.526 59.8336 11.362 62.1376 11.362C63.6856 11.362 64.7836 10.678 65.2516 9.544C65.5756 8.77 65.3236 8.23 64.6216 8.23H63.6136C63.2176 8.23 62.8756 7.888 62.8756 7.492V7.186C62.8756 6.79 63.2176 6.448 63.6136 6.448H66.6916C67.0876 6.448 67.4296 6.79 67.4296 7.186V12.262C67.4296 12.658 67.0876 13 66.6916 13H66.3316C66.0616 13 65.8276 12.838 65.6656 12.514C65.5216 12.154 65.1436 12.064 64.8376 12.316C64.0096 12.946 63.2176 13.198 62.0656 13.198ZM77.7652 13.198C75.3352 13.198 73.5532 11.704 73.2472 9.4C73.1932 9.004 73.5352 8.662 73.9492 8.662H74.5072C74.8312 8.662 75.1192 8.914 75.1912 9.292C75.4432 10.606 76.4512 11.398 77.8912 11.398C79.2592 11.398 80.1952 10.66 80.1952 9.58C80.1952 8.608 79.7092 8.068 78.4492 7.654L76.6312 7.06C74.5612 6.394 73.7332 5.386 73.7332 3.586C73.7332 1.552 75.4612 0.0399995 77.7832 0.0399995C79.9252 0.0399995 81.4552 1.3 81.8152 3.316C81.9052 3.748 81.5992 4.126 81.1312 4.126H80.5732C80.2492 4.126 79.9792 3.892 79.9072 3.532C79.6552 2.434 78.8812 1.84 77.6752 1.84C76.4692 1.84 75.6772 2.524 75.6772 3.55C75.6772 4.342 76.0912 4.882 76.8832 5.17L79.4932 6.07C81.3652 6.718 82.1392 7.69 82.1392 9.4C82.1392 11.686 80.3932 13.198 77.7652 13.198ZM89.2456 13.198C85.7716 13.198 83.2696 10.462 83.2696 6.7C83.2696 2.866 85.8076 0.0399995 89.2456 0.0399995C92.7196 0.0399995 95.2216 2.83 95.2216 6.7C95.2216 10.516 92.7556 13.198 89.2456 13.198ZM89.2456 11.308C91.6396 11.308 93.2056 9.49 93.2056 6.7C93.2056 3.856 91.6036 1.93 89.2456 1.93C86.8876 1.93 85.2856 3.856 85.2856 6.7C85.2856 9.454 86.8876 11.308 89.2456 11.308ZM102.464 13.198C98.9904 13.198 96.4884 10.462 96.4884 6.7C96.4884 2.866 99.0264 0.0399995 102.464 0.0399995C105.938 0.0399995 108.44 2.83 108.44 6.7C108.44 10.516 105.974 13.198 102.464 13.198ZM102.464 11.308C104.858 11.308 106.424 9.49 106.424 6.7C106.424 3.856 104.822 1.93 102.464 1.93C100.106 1.93 98.5044 3.856 98.5044 6.7C98.5044 9.454 100.106 11.308 102.464 11.308ZM110.859 13C110.481 13 110.157 12.676 110.157 12.298V0.922C110.157 0.543999 110.481 0.219999 110.859 0.219999H112.209C112.623 0.219999 112.857 0.399999 113.073 0.831999L116.565 7.906C116.907 8.608 117.807 8.41 117.807 7.636V0.922C117.807 0.543999 118.131 0.219999 118.509 0.219999H119.031C119.409 0.219999 119.733 0.543999 119.733 0.922V12.298C119.733 12.676 119.409 13 119.031 13H117.519C117.105 13 116.871 12.838 116.655 12.388L113.235 5.314C112.875 4.594 112.083 4.792 112.083 5.602V12.298C112.083 12.676 111.759 13 111.381 13H110.859Z" fill="url(#paint0_linear_7230_4339)"/>
<defs>
<linearGradient id="paint0_linear_7230_4339" x1="158.458" y1="7" x2="-67.2222" y2="7" gradientUnits="userSpaceOnUse">
<stop stop-color="#FFFEE3"/>
<stop offset="0.4" stop-color="#F9E1FF"/>
<stop offset="0.58" stop-color="#BE5B0F"/>
<stop offset="0.76" stop-color="#932309"/>
<stop offset="1" stop-color="#010101"/>
</linearGradient>
</defs>
</svg>
