<svg width="20" height="20" viewBox="0 0 20 20" fill="none" xmlns="http://www.w3.org/2000/svg">
<g opacity="0.6">
<g clip-path="url(#clip0_445_2183)">
<path d="M7.57502 7.49996C7.77094 6.94302 8.15765 6.47338 8.66665 6.17424C9.17565 5.87509 9.7741 5.76574 10.356 5.86555C10.9379 5.96536 11.4657 6.2679 11.8459 6.71957C12.2261 7.17124 12.4342 7.74289 12.4334 8.33329C12.4334 9.99996 9.93335 10.8333 9.93335 10.8333M10 14.1666H10.0084M18.3334 9.99996C18.3334 14.6023 14.6024 18.3333 10 18.3333C5.39765 18.3333 1.66669 14.6023 1.66669 9.99996C1.66669 5.39759 5.39765 1.66663 10 1.66663C14.6024 1.66663 18.3334 5.39759 18.3334 9.99996Z" stroke="white" stroke-width="2" stroke-linecap="round" stroke-linejoin="round"/>
</g>
</g>
<defs>
<clipPath id="clip0_445_2183">
<rect width="20" height="20" fill="white"/>
</clipPath>
</defs>
</svg>
