<svg xmlns="http://www.w3.org/2000/svg" width="40" height="40" viewBox="0 0 40 40" fill="none">
  <path d="M19.9999 25.3845C20.2905 25.3845 20.5341 25.2862 20.7308 25.0895C20.9274 24.8932 21.0258 24.6497 21.0258 24.3591C21.0258 24.0683 20.9274 23.8247 20.7308 23.6283C20.5341 23.4316 20.2905 23.3333 19.9999 23.3333C19.7094 23.3333 19.4658 23.4316 19.2691 23.6283C19.0724 23.8247 18.9741 24.0683 18.9741 24.3591C18.9741 24.6497 19.0724 24.8932 19.2691 25.0895C19.4658 25.2862 19.7094 25.3845 19.9999 25.3845ZM19.1666 20.705H20.8333V12.9487H19.1666V20.705ZM19.9999 34.9358C16.6516 33.9422 13.8701 31.9138 11.6553 28.8508C9.44061 25.7877 8.33325 22.3375 8.33325 18.5V9.48704L19.9999 5.1283L31.6666 9.48704V18.5C31.6666 22.3375 30.5592 25.7877 28.3445 28.8508C26.1298 31.9138 23.3483 33.9422 19.9999 34.9358ZM19.9999 33.1666C22.8888 32.25 25.2777 30.4166 27.1666 27.6666C29.0555 24.9166 29.9999 21.8611 29.9999 18.5V10.625L19.9999 6.90705L9.99992 10.625V18.5C9.99992 21.8611 10.9444 24.9166 12.8333 27.6666C14.7221 30.4166 17.111 32.25 19.9999 33.1666Z" fill="#FF6688"/>
</svg>
