<?xml version="1.0" encoding="utf-8"?>
<!-- Generator: Adobe Illustrator 27.8.0, SVG Export Plug-In . SVG Version: 6.00 Build 0)  -->
<svg version="1.1" id="ARTWORK" xmlns="http://www.w3.org/2000/svg" xmlns:xlink="http://www.w3.org/1999/xlink" x="0px" y="0px"
	 viewBox="0 0 2215 645.2" style="enable-background:new 0 0 2215 645.2;" xml:space="preserve">
<style type="text/css">
	.st0{fill:#25211E;}
	.st1{fill:#E4E1DA;}
	.st2{fill:#D4FAFF;}
	.st3{fill:#F9E1FF;}
	.st4{fill:#DBFEE5;}
	.st5{fill:#FFFDD9;}
	.st6{fill:#FFFFFF;}
</style>
<g>
	<path class="st1" d="M18.8,294.5h1.4c10.7,0,17.4-6.7,17.4-17.4V191c0-6,4.4-10.4,10.4-10.4h28.5c6,0,10.4,4.4,10.4,10.4v0.7
		c0,10.7,6.7,17.4,17.4,17.4h0.7c6,0,10.4,4.4,10.4,10.4v29.2c0,10.7,6.7,17.4,17.4,17.4h0.7c7.4,0,8.9,5.2,8.9,9.7v1.4
		c0,10.7,8.1,18.8,18.8,18.8h1.4c10.7,0,18.8-8.1,18.8-18.8v-1.4c0-10.7-8.1-18.8-18.8-18.8h-1.4c-4.4,0-9.7-1.6-9.7-8.9v-29.2
		c0-10.7-6.7-17.4-17.4-17.4h-0.7c-6,0-10.4-4.4-10.4-10.4c0-6,4.4-10.4,10.4-10.4h0.7c10.7,0,17.4-6.7,17.4-17.4v-0.7
		c0-6,4.4-10.4,10.4-10.4h0.7c10.7,0,17.4-6.7,17.4-17.4V47.9c0-10.7-6.7-17.4-17.4-17.4h-0.7c-6,0-10.4-4.4-10.4-10.4v-0.7
		c0-10.7-6.7-17.4-17.4-17.4H19.5C8.9,2,1.4,9.4,1.4,20.1v257C1.4,287.8,8.1,294.5,18.8,294.5z M133.4,38.2c6,0,10.4,4.4,10.4,10.4
		V134c0,6-4.4,10.4-10.4,10.4H48c-6,0-10.4-4.4-10.4-10.4V48.6c0-6,4.4-10.4,10.4-10.4H133.4z"/>
	<path class="st1" d="M275.9,267.4c4.4,0,9.7,1.6,9.7,8.9v0.7c0,10.7,6.7,17.4,17.4,17.4h86.8c10.7,0,17.4-6.7,17.4-17.4v-0.7
		c0-7.4,5.2-8.9,9.7-8.9h1.4c10.7,0,18.8-8.1,18.8-18.8v-1.4c0-4.4,1.6-9.7,8.9-9.7h0.7c10.7,0,17.4-6.7,17.4-17.4V76.3
		c0-10.7-6.7-17.4-17.4-17.4h-0.7c-7.4,0-8.9-5.2-8.9-9.7v-1.4c0-10.7-8.1-18.8-18.8-18.8h-1.4c-4.4,0-9.7-1.6-9.7-8.9v-0.7
		c0-10.7-6.7-17.4-17.4-17.4H303c-10.7,0-17.4,6.7-17.4,17.4v0.7c0,7.4-5.2,8.9-9.7,8.9h-1.4c-10.7,0-18.8,8.1-18.8,18.8v1.4
		c0,4.4-1.6,9.7-8.9,9.7H246c-10.7,0-17.4,6.7-17.4,17.4v143.8c0,10.7,6.7,17.4,17.4,17.4h0.7c7.4,0,8.9,5.2,8.9,9.7v1.4
		c0,10.7,8.1,18.8,18.8,18.8H275.9z M264.9,77.1c0-7.4,5.2-8.9,9.7-8.9h1.4c10.7,0,18.8-8.1,18.8-18.8v-1.4c0-4.4,1.6-9.7,8.9-9.7
		h85.4c7.4,0,8.9,5.2,8.9,9.7v1.4c0,10.7,8.1,18.8,18.8,18.8h1.4c4.4,0,9.7,1.6,9.7,8.9v142.4c0,7.4-5.2,8.9-9.7,8.9h-1.4
		c-10.7,0-18.8,8.1-18.8,18.8v1.4c0,4.4-1.6,9.7-8.9,9.7h-85.4c-7.4,0-8.9-5.2-8.9-9.7v-1.4c0-10.7-8.1-18.8-18.8-18.8h-1.4
		c-4.4,0-9.7-1.6-9.7-8.9V77.1z"/>
	<path class="st1" d="M734.4,58.9h-0.7c-7.4,0-8.9-5.2-8.9-9.7v-1.4c0-10.7-8.1-18.8-18.8-18.8h-1.4c-4.4,0-9.7-1.6-9.7-8.9v-0.7
		c0-10.7-6.7-17.4-17.4-17.4h-86.8c-10.7,0-17.4,6.7-17.4,17.4v0.7c0,7.4-5.2,8.9-9.7,8.9h-1.4c-10.7,0-18.8,8.1-18.8,18.8v1.4
		c0,4.4-1.6,9.7-8.9,9.7h-0.7c-10.7,0-17.4,6.7-17.4,17.4v143.8c0,10.7,6.7,17.4,17.4,17.4h0.7c7.4,0,8.9,5.2,8.9,9.7v1.4
		c0,10.7,8.1,18.8,18.8,18.8h1.4c4.4,0,9.7,1.6,9.7,8.9v0.7c0,10.7,6.7,17.4,17.4,17.4h86.8c10.7,0,17.4-6.7,17.4-17.4v-0.7
		c0-7.4,5.2-8.9,9.7-8.9h1.4c10.7,0,18.8-8.1,18.8-18.8v-1.4c0-4.4,1.6-9.7,8.9-9.7h0.7c10.7,0,17.4-6.7,17.4-17.4V76.3
		C751.8,65.6,745.1,58.9,734.4,58.9z M715.6,219.4c0,7.4-5.2,8.9-9.7,8.9h-1.4c-10.7,0-18.8,8.1-18.8,18.8v1.4
		c0,4.4-1.6,9.7-8.9,9.7h-85.4c-7.4,0-8.9-5.2-8.9-9.7v-1.4c0-10.7-8.1-18.8-18.8-18.8h-1.4c-4.4,0-9.7-1.6-9.7-8.9V77.1
		c0-7.4,5.2-8.9,9.7-8.9h1.4c10.7,0,18.8-8.1,18.8-18.8v-1.4c0-4.4,1.6-9.7,8.9-9.7h85.4c7.4,0,8.9,5.2,8.9,9.7v1.4
		c0,10.7,8.1,18.8,18.8,18.8h1.4c4.4,0,9.7,1.6,9.7,8.9V219.4z"/>
	<path class="st1" d="M966.2,2H793.9c-10.7,0-17.4,6.7-17.4,17.4v1.4c0,10.7,6.7,17.4,17.4,17.4h57.7c6,0,10.4,4.4,10.4,10.4v228.5
		c0,10.7,6.7,17.4,17.4,17.4h1.4c10.7,0,17.4-6.7,17.4-17.4V48.6c0-6,4.4-10.4,10.4-10.4h57.7c10.7,0,17.4-6.7,17.4-17.4v-1.4
		C983.6,8.7,976.9,2,966.2,2z"/>
	<path class="st1" d="M1180.2,30.5h-0.7c-6,0-10.4-4.4-10.4-10.4v-0.7c0-10.7-6.7-17.4-17.4-17.4h-86.8c-10.7,0-17.4,6.7-17.4,17.4
		v0.7c0,6-4.4,10.4-10.4,10.4h-0.7c-10.7,0-17.4,6.7-17.4,17.4v58.4c0,10.7,6.7,17.4,17.4,17.4h0.7c6,0,10.4,4.4,10.4,10.4v0.7
		c0,10.7,6.7,17.4,17.4,17.4h29.2c6,0,10.4,4.4,10.4,10.4v0.7c0,10.7,6.7,17.4,17.4,17.4h29.2c6,0,10.4,4.4,10.4,10.4v56.9
		c0,6-4.4,10.4-10.4,10.4h-85.4c-6,0-10.4-4.4-10.4-10.4v-29.2c0-10.7-6.7-17.4-17.4-17.4h-1.4c-10.7,0-17.4,6.7-17.4,17.4v29.9
		c0,10.7,6.7,17.4,17.4,17.4h0.7c6,0,10.4,4.4,10.4,10.4v0.7c0,10.7,6.7,17.4,17.4,17.4h86.8c10.7,0,17.4-6.7,17.4-17.4v-0.7
		c0-6,4.4-10.4,10.4-10.4h0.7c10.7,0,17.4-6.7,17.4-17.4v-58.4c0-10.7-6.7-17.4-17.4-17.4h-0.7c-6,0-10.4-4.4-10.4-10.4v-0.7
		c0-10.7-6.7-17.4-17.4-17.4h-29.2c-6,0-10.4-4.4-10.4-10.4v-0.7c0-10.7-6.7-17.4-17.4-17.4h-29.2c-6,0-10.4-4.4-10.4-10.4V48.6
		c0-6,4.4-10.4,10.4-10.4h85.4c6,0,10.4,4.4,10.4,10.4v29.2c0,10.7,6.7,17.4,17.4,17.4h1.4c10.7,0,17.4-6.7,17.4-17.4V47.9
		C1197.6,37.1,1190.9,30.5,1180.2,30.5z"/>
	<path class="st1" d="M1422.7,2h-172.3c-10.7,0-17.4,6.7-17.4,17.4v1.4c0,10.7,6.7,17.4,17.4,17.4h57.7c6,0,10.4,4.4,10.4,10.4
		v228.5c0,10.7,6.7,17.4,17.4,17.4h1.4c10.7,0,17.4-6.7,17.4-17.4V48.6c0-6,4.4-10.4,10.4-10.4h57.7c10.7,0,17.4-6.7,17.4-17.4v-1.4
		C1440.1,8.7,1433.4,2,1422.7,2z"/>
	<path class="st1" d="M1683.9,58.9h-0.7c-7.4,0-8.9-5.2-8.9-9.7v-1.4c0-10.7-8.1-18.8-18.8-18.8h-1.4c-4.4,0-9.7-1.6-9.7-8.9v-0.7
		c0-10.7-6.7-17.4-17.4-17.4h-86.8c-10.7,0-17.4,6.7-17.4,17.4v0.7c0,7.4-5.2,8.9-9.7,8.9h-1.4c-10.7,0-18.8,8.1-18.8,18.8v1.4
		c0,4.4-1.6,9.7-8.9,9.7h-0.7c-10.7,0-17.4,6.7-17.4,17.4v143.8c0,10.7,6.7,17.4,17.4,17.4h0.7c7.4,0,8.9,5.2,8.9,9.7v1.4
		c0,10.7,8.1,18.8,18.8,18.8h1.4c4.4,0,9.7,1.6,9.7,8.9v0.7c0,10.7,6.7,17.4,17.4,17.4h86.8c10.7,0,17.4-6.7,17.4-17.4v-0.7
		c0-7.4,5.2-8.9,9.7-8.9h1.4c10.7,0,18.8-8.1,18.8-18.8v-1.4c0-4.4,1.6-9.7,8.9-9.7h0.7c10.7,0,17.4-6.7,17.4-17.4V76.3
		C1701.3,65.6,1694.6,58.9,1683.9,58.9z M1665.1,219.4c0,7.4-5.2,8.9-9.7,8.9h-1.4c-10.7,0-18.8,8.1-18.8,18.8v1.4
		c0,4.4-1.6,9.7-8.9,9.7h-85.4c-7.4,0-8.9-5.2-8.9-9.7v-1.4c0-10.7-8.1-18.8-18.8-18.8h-1.4c-4.4,0-9.7-1.6-9.7-8.9V77.1
		c0-7.4,5.2-8.9,9.7-8.9h1.4c10.7,0,18.8-8.1,18.8-18.8v-1.4c0-4.4,1.6-9.7,8.9-9.7h85.4c7.4,0,8.9,5.2,8.9,9.7v1.4
		c0,10.7,8.1,18.8,18.8,18.8h1.4c4.4,0,9.7,1.6,9.7,8.9V219.4z"/>
	<path class="st1" d="M1799.3,267.4c4.4,0,9.7,1.6,9.7,8.9v0.7c0,10.7,6.7,17.4,17.4,17.4h86.8c10.7,0,17.4-6.7,17.4-17.4v-0.7
		c0-7.4,5.2-8.9,9.7-8.9h1.4c10.7,0,18.8-8.1,18.8-18.8v-1.4c0-6.4,1.8-8.2,8.2-8.2h1.4c10.7,0,18.8-8.1,18.8-18.8v-1.4
		c0-10.7-8.1-18.8-18.8-18.8h-1.4c-10.7,0-18.8,8.1-18.8,18.8v1.4c0,6.4-1.8,8.2-8.2,8.2h-1.4c-10.7,0-18.8,8.1-18.8,18.8v1.4
		c0,4.4-1.6,9.7-8.9,9.7H1827c-7.4,0-8.9-5.2-8.9-9.7v-1.4c0-10.7-8.1-18.8-18.8-18.8h-1.4c-4.4,0-9.7-1.6-9.7-8.9V77.1
		c0-7.4,5.2-8.9,9.7-8.9h1.4c10.7,0,18.8-8.1,18.8-18.8v-1.4c0-4.4,1.6-9.7,8.9-9.7h85.4c7.4,0,8.9,5.2,8.9,9.7v1.4
		c0,10.7,8.1,18.8,18.8,18.8h1.4c6.4,0,8.2,1.8,8.2,8.2v1.4c0,10.7,8.1,18.8,18.8,18.8h1.4c10.7,0,18.8-8.1,18.8-18.8v-1.4
		c0-10.7-8.1-18.8-18.8-18.8h-1.4c-6.4,0-8.2-1.8-8.2-8.2v-1.4c0-10.7-8.1-18.8-18.8-18.8h-1.4c-4.4,0-9.7-1.6-9.7-8.9v-0.7
		c0-10.7-6.7-17.4-17.4-17.4h-86.8c-10.7,0-17.4,6.7-17.4,17.4v0.7c0,7.4-5.2,8.9-9.7,8.9h-1.4c-10.7,0-18.8,8.1-18.8,18.8v1.4
		c0,4.4-1.6,9.7-8.9,9.7h-0.7c-10.7,0-17.4,6.7-17.4,17.4v143.8c0,10.7,6.7,17.4,17.4,17.4h0.7c7.4,0,8.9,5.2,8.9,9.7v1.4
		c0,10.7,8.1,18.8,18.8,18.8H1799.3z"/>
	<path class="st1" d="M2107.9,125.1h1.4c10.7,0,18.8-8.1,18.8-18.8v-1.4c0-6.4,1.8-8.2,8.2-8.2h1.4c10.7,0,18.8-8.1,18.8-18.8v-1.4
		c0-6.4,1.8-8.2,8.2-8.2h1.4c10.7,0,18.8-8.1,18.8-18.8v-1.4c0-6.4,1.8-8.2,8.2-8.2h1.4c10.7,0,18.8-8.1,18.8-18.8v-1.4
		c0-10.7-8.1-18.8-18.8-18.8h-1.4c-10.7,0-18.8,8.1-18.8,18.8v1.4c0,6.4-1.8,8.2-8.2,8.2h-1.4c-10.7,0-18.8,8.1-18.8,18.8v1.4
		c0,6.4-1.8,8.2-8.2,8.2h-1.4c-10.7,0-18.8,8.1-18.8,18.8v1.4c0,6.4-1.8,8.2-8.2,8.2h-1.4c-10.7,0-18.8,8.1-18.8,18.8v1.4
		c0,4.4-1.6,9.7-8.9,9.7h-0.7c-7.5,0-9.7-2.2-9.7-9.7V19.4c0-10.7-6.7-17.4-17.4-17.4h-1.4c-10.7,0-17.4,6.7-17.4,17.4v257.7
		c0,10.7,6.7,17.4,17.4,17.4h1.4c10.7,0,17.4-6.7,17.4-17.4v-86.8c0-7.5,2.2-9.7,9.7-9.7h0.7c7.4,0,8.9,5.2,8.9,9.7v1.4
		c0,10.7,8.1,18.8,18.8,18.8h1.4c6.4,0,8.2,1.8,8.2,8.2v1.4c0,10.7,8.1,18.8,18.8,18.8h1.4c6.4,0,8.2,1.8,8.2,8.2v1.4
		c0,10.7,8.1,18.8,18.8,18.8h1.4c6.4,0,8.2,1.8,8.2,8.2v1.4c0,10.7,8.1,18.8,18.8,18.8h1.4c10.7,0,18.8-8.1,18.8-18.8v-1.4
		c0-10.7-8.1-18.8-18.8-18.8h-1.4c-6.4,0-8.2-1.8-8.2-8.2v-1.4c0-10.7-8.1-18.8-18.8-18.8h-1.4c-6.4,0-8.2-1.8-8.2-8.2v-1.4
		c0-10.7-8.1-18.8-18.8-18.8h-1.4c-6.4,0-8.2-1.8-8.2-8.2v-1.4c0-10.7-8.1-18.8-18.8-18.8h-1.4c-4.4,0-9.7-1.6-9.7-8.9V134
		C2098.3,126.6,2103.5,125.1,2107.9,125.1z"/>
	<path class="st1" d="M219.6,406h-1.4c-6.4,0-8.2-1.8-8.2-8.2v-1.4c0-10.7-8.1-18.8-18.8-18.8h-1.4c-4.4,0-9.7-1.6-9.7-8.9v-0.7
		c0-10.7-6.7-17.4-17.4-17.4H75.8c-10.7,0-17.4,6.7-17.4,17.4v0.7c0,7.4-5.2,8.9-9.7,8.9h-1.4c-10.7,0-18.8,8.1-18.8,18.8v1.4
		c0,4.4-1.6,9.7-8.9,9.7h-0.7c-10.7,0-17.4,6.7-17.4,17.4v143.8c0,10.7,6.7,17.4,17.4,17.4h0.7c7.4,0,8.9,5.2,8.9,9.7v1.4
		c0,10.7,8.1,18.8,18.8,18.8h1.4c4.4,0,9.7,1.6,9.7,8.9v0.7c0,10.7,6.7,17.4,17.4,17.4h86.8c10.7,0,17.4-6.7,17.4-17.4v-0.7
		c0-7.4,5.2-8.9,9.7-8.9h1.4c10.7,0,18.8-8.1,18.8-18.8v-1.4c0-6.4,1.8-8.2,8.2-8.2h1.4c10.7,0,18.8-8.1,18.8-18.8v-1.4
		c0-10.7-8.1-18.8-18.8-18.8h-1.4c-10.7,0-18.8,8.1-18.8,18.8v1.4c0,6.4-1.8,8.2-8.2,8.2h-1.4c-10.7,0-18.8,8.1-18.8,18.8v1.4
		c0,4.4-1.6,9.7-8.9,9.7H76.5c-7.4,0-8.9-5.2-8.9-9.7v-1.4c0-10.7-8.1-18.8-18.8-18.8h-1.4c-4.4,0-9.7-1.6-9.7-8.9V425.5
		c0-7.4,5.2-8.9,9.7-8.9h1.4c10.7,0,18.8-8.1,18.8-18.8v-1.4c0-4.4,1.6-9.7,8.9-9.7h85.4c7.4,0,8.9,5.2,8.9,9.7v1.4
		c0,10.7,8.1,18.8,18.8,18.8h1.4c6.4,0,8.2,1.8,8.2,8.2v1.4c0,10.7,8.1,18.8,18.8,18.8h1.4c10.7,0,18.8-8.1,18.8-18.8v-1.4
		C238.4,414.1,230.3,406,219.6,406z"/>
	<path class="st1" d="M488.1,407.4h-0.7c-7.4,0-8.9-5.2-8.9-9.7v-1.4c0-10.7-8.1-18.8-18.8-18.8h-1.4c-4.4,0-9.7-1.6-9.7-8.9v-0.7
		c0-10.7-6.7-17.4-17.4-17.4h-86.8c-10.7,0-17.4,6.7-17.4,17.4v0.7c0,7.4-5.2,8.9-9.7,8.9h-1.4c-10.7,0-18.8,8.1-18.8,18.8v1.4
		c0,4.4-1.6,9.7-8.9,9.7h-0.7c-10.7,0-17.4,6.7-17.4,17.4v143.8c0,10.7,6.7,17.4,17.4,17.4h0.7c7.4,0,8.9,5.2,8.9,9.7v1.4
		c0,10.7,8.1,18.8,18.8,18.8h1.4c4.4,0,9.7,1.6,9.7,8.9v0.7c0,10.7,6.7,17.4,17.4,17.4h86.8c10.7,0,17.4-6.7,17.4-17.4v-0.7
		c0-7.4,5.2-8.9,9.7-8.9h1.4c10.7,0,18.8-8.1,18.8-18.8v-1.4c0-4.4,1.6-9.7,8.9-9.7h0.7c10.7,0,17.4-6.7,17.4-17.4V424.8
		C505.5,414.1,498.9,407.4,488.1,407.4z M469.3,567.9c0,7.4-5.2,8.9-9.7,8.9h-1.4c-10.7,0-18.8,8.1-18.8,18.8v1.4
		c0,4.4-1.6,9.7-8.9,9.7h-85.4c-7.4,0-8.9-5.2-8.9-9.7v-1.4c0-10.7-8.1-18.8-18.8-18.8h-1.4c-4.4,0-9.7-1.6-9.7-8.9V425.5
		c0-7.4,5.2-8.9,9.7-8.9h1.4c10.7,0,18.8-8.1,18.8-18.8v-1.4c0-4.4,1.6-9.7,8.9-9.7h85.4c7.4,0,8.9,5.2,8.9,9.7v1.4
		c0,10.7,8.1,18.8,18.8,18.8h1.4c4.4,0,9.7,1.6,9.7,8.9V567.9z"/>
	<path class="st1" d="M715.4,606.7H600.8c-6,0-10.4-4.4-10.4-10.4V367.8c0-10.7-6.7-17.4-17.4-17.4h-1.4c-10.7,0-17.4,6.7-17.4,17.4
		v257c0,10.7,7.4,18.1,18.1,18.1h143.1c10.7,0,17.4-6.7,17.4-17.4v-1.4C732.8,613.4,726.1,606.7,715.4,606.7z"/>
	<path class="st1" d="M933.8,606.7H819.2c-6,0-10.4-4.4-10.4-10.4V367.8c0-10.7-6.7-17.4-17.4-17.4H790c-10.7,0-17.4,6.7-17.4,17.4
		v257c0,10.7,7.4,18.1,18.1,18.1h143.1c10.7,0,17.4-6.7,17.4-17.4v-1.4C951.2,613.4,944.6,606.7,933.8,606.7z"/>
	<path class="st1" d="M1145.5,350.4h-143.1c-10.7,0-18.1,7.4-18.1,18.1v256.3c0,10.7,7.4,18.1,18.1,18.1h143.1
		c10.7,0,17.4-6.7,17.4-17.4v-1.4c0-10.7-6.7-17.4-17.4-17.4h-114.6c-6,0-10.4-4.4-10.4-10.4v-85.4c0-6,4.4-10.4,10.4-10.4h86.1
		c10.7,0,17.4-6.7,17.4-17.4v-1.4c0-10.7-6.7-17.4-17.4-17.4h-86.1c-6,0-10.4-4.4-10.4-10.4V397c0-6,4.4-10.4,10.4-10.4h114.6
		c10.7,0,17.4-6.7,17.4-17.4v-1.4C1162.9,357.1,1156.2,350.4,1145.5,350.4z"/>
	<path class="st1" d="M1418.4,406h-1.4c-6.4,0-8.2-1.8-8.2-8.2v-1.4c0-10.7-8.1-18.8-18.8-18.8h-1.4c-4.4,0-9.7-1.6-9.7-8.9v-0.7
		c0-10.7-6.7-17.4-17.4-17.4h-86.8c-10.7,0-17.4,6.7-17.4,17.4v0.7c0,7.4-5.2,8.9-9.7,8.9h-1.4c-10.7,0-18.8,8.1-18.8,18.8v1.4
		c0,4.4-1.6,9.7-8.9,9.7h-0.7c-10.7,0-17.4,6.7-17.4,17.4v143.8c0,10.7,6.7,17.4,17.4,17.4h0.7c7.4,0,8.9,5.2,8.9,9.7v1.4
		c0,10.7,8.1,18.8,18.8,18.8h1.4c4.4,0,9.7,1.6,9.7,8.9v0.7c0,10.7,6.7,17.4,17.4,17.4h86.8c10.7,0,17.4-6.7,17.4-17.4v-0.7
		c0-7.4,5.2-8.9,9.7-8.9h1.4c10.7,0,18.8-8.1,18.8-18.8v-1.4c0-6.4,1.8-8.2,8.2-8.2h1.4c10.7,0,18.8-8.1,18.8-18.8v-1.4
		c0-10.7-8.1-18.8-18.8-18.8h-1.4c-10.7,0-18.8,8.1-18.8,18.8v1.4c0,6.4-1.8,8.2-8.2,8.2h-1.4c-10.7,0-18.8,8.1-18.8,18.8v1.4
		c0,4.4-1.6,9.7-8.9,9.7h-85.4c-7.4,0-8.9-5.2-8.9-9.7v-1.4c0-10.7-8.1-18.8-18.8-18.8h-1.4c-4.4,0-9.7-1.6-9.7-8.9V425.5
		c0-7.4,5.2-8.9,9.7-8.9h1.4c10.7,0,18.8-8.1,18.8-18.8v-1.4c0-4.4,1.6-9.7,8.9-9.7h85.4c7.4,0,8.9,5.2,8.9,9.7v1.4
		c0,10.7,8.1,18.8,18.8,18.8h1.4c6.4,0,8.2,1.8,8.2,8.2v1.4c0,10.7,8.1,18.8,18.8,18.8h1.4c10.7,0,18.8-8.1,18.8-18.8v-1.4
		C1437.2,414.1,1429.1,406,1418.4,406z"/>
	<path class="st1" d="M1647.8,350.4h-172.3c-10.7,0-17.4,6.7-17.4,17.4v1.4c0,10.7,6.7,17.4,17.4,17.4h57.7c6,0,10.4,4.4,10.4,10.4
		v228.5c0,10.7,6.7,17.4,17.4,17.4h1.4c10.7,0,17.4-6.7,17.4-17.4V397c0-6,4.4-10.4,10.4-10.4h57.7c10.7,0,17.4-6.7,17.4-17.4v-1.4
		C1665.2,357.1,1658.5,350.4,1647.8,350.4z"/>
	<path class="st1" d="M1721.9,350.4h-1.4c-10.7,0-17.4,6.7-17.4,17.4v257.7c0,10.7,6.7,17.4,17.4,17.4h1.4
		c10.7,0,17.4-6.7,17.4-17.4V367.8C1739.3,357.1,1732.7,350.4,1721.9,350.4z"/>
	<path class="st1" d="M1976.7,350.4h-1.4c-10.7,0-17.4,6.7-17.4,17.4V397c0,6-4.4,10.4-10.4,10.4h-0.7c-10.7,0-17.4,6.7-17.4,17.4
		v57.7c0,6-4.4,10.4-10.4,10.4h-0.7c-10.7,0-17.4,6.7-17.4,17.4v57.7c0,6-4.4,10.4-10.4,10.4s-10.4-4.4-10.4-10.4v-57.7
		c0-10.7-6.7-17.4-17.4-17.4h-0.7c-6,0-10.4-4.4-10.4-10.4v-57.7c0-10.7-6.7-17.4-17.4-17.4h-0.7c-6,0-10.4-4.4-10.4-10.4v-29.2
		c0-10.7-6.7-17.4-17.4-17.4h-1.4c-10.7,0-17.4,6.7-17.4,17.4v29.9c0,10.7,6.7,17.4,17.4,17.4h0.7c6,0,10.4,4.4,10.4,10.4v57.7
		c0,10.7,6.7,17.4,17.4,17.4h0.7c6,0,10.4,4.4,10.4,10.4v57.7c0,10.7,6.7,17.4,17.4,17.4h0.7c6,0,10.4,4.4,10.4,10.4v29.2
		c0,10.7,6.7,17.4,17.4,17.4h1.4c10.7,0,17.4-6.7,17.4-17.4v-29.2c0-6,4.4-10.4,10.4-10.4h0.7c10.7,0,17.4-6.7,17.4-17.4v-57.7
		c0-6,4.4-10.4,10.4-10.4h0.7c10.7,0,17.4-6.7,17.4-17.4v-57.7c0-6,4.4-10.4,10.4-10.4h0.7c10.7,0,17.4-6.7,17.4-17.4v-29.9
		C1994.1,357.1,1987.5,350.4,1976.7,350.4z"/>
	<path class="st1" d="M2196.2,350.4h-143.1c-10.7,0-18.1,7.4-18.1,18.1v256.3c0,10.7,7.4,18.1,18.1,18.1h143.1
		c10.2,0,16.7-6,17.3-15.8c0-0.5,0.1-1.1,0.1-1.6v-1.4c0-0.6,0-1.1-0.1-1.6c-0.6-9.8-7.2-15.8-17.3-15.8h-114.6
		c-6,0-10.4-4.4-10.4-10.4v-85.4c0-6,4.4-10.4,10.4-10.4h86.1c10.2,0,16.7-6,17.3-15.8c0-0.5,0.1-1.1,0.1-1.6v-1.4
		c0-0.6,0-1.1-0.1-1.6c-0.6-9.8-7.2-15.8-17.3-15.8h-86.1c-6,0-10.4-4.4-10.4-10.4V397c0-6,4.4-10.4,10.4-10.4h114.6
		c10.2,0,16.7-6,17.3-15.8c0-0.5,0.1-1.1,0.1-1.6v-1.4c0-0.6,0-1.1-0.1-1.6C2212.9,356.5,2206.4,350.4,2196.2,350.4z"/>
</g>
</svg>
