<svg width="17" height="17" viewBox="0 0 17 17" fill="none"
  xmlns="http://www.w3.org/2000/svg">
  <rect x="0.5" y="0.416656" width="16" height="16" rx="8" fill="#FBFBFB"/>
  <path d="M11.7499 5.16666V11.6467H10.347V8.26232H9.19178C9.05694 8.26232 8.92688 8.31234 8.82679 8.40194C8.76973 8.45323 8.7251 8.51528 8.6945 8.58366C8.6639 8.65205 8.64764 8.72676 8.64764 8.80306V9.58442C8.64764 9.794 8.47614 9.96433 8.26512 9.96433H7.33113C7.11978 9.96433 6.94861 9.794 6.94861 9.58442V8.64223C6.94861 8.43233 7.11978 8.26232 7.33113 8.26232H8.17076C8.28329 8.26232 8.39167 8.22274 8.47774 8.15119C8.53161 8.10624 8.574 8.05052 8.60301 7.98846C8.63202 7.92673 8.64732 7.85866 8.64732 7.78901V6.55999H5.25244V5.16666H11.7499Z" fill="#4B5CF0"/>
  <path d="M6.94903 10.8084V10.8229C6.94903 11.2889 6.56843 11.6666 6.09952 11.6666C5.63061 11.6666 5.25 11.2889 5.25 10.8229V10.8084C5.25 10.3423 5.63029 9.96463 6.09952 9.96463C6.33381 9.96463 6.54643 10.059 6.70008 10.2116C6.85404 10.3645 6.94903 10.5753 6.94903 10.8084Z" fill="#4B5CF0"/>
</svg>
